STARTFONT 2.1
COMMENT
COMMENT Converted from OpenType font "ipaexg.ttf" by "otf2bdf 3.0".
COMMENT
FONT -FreeType-IPAexGothic-Medium-R-Normal--32-320-72-72-P-277-ISO10646-1
SIZE 32 72 72
FONTBOUNDINGBOX 40 39 -8 -9
STARTPROPERTIES 19
FOUNDRY "FreeType"
FAMILY_NAME "IPAexGothic"
WEIGHT_NAME "Medium"
SLANT "R"
SETWIDTH_NAME "Normal"
ADD_STYLE_NAME ""
PIXEL_SIZE 32
POINT_SIZE 320
RESOLUTION_X 72
RESOLUTION_Y 72
SPACING "P"
AVERAGE_WIDTH 277
CHARSET_REGISTRY "ISO10646"
CHARSET_ENCODING "1"
FONT_ASCENT 28
FONT_DESCENT 3
COPYRIGHT "Copyright(c) Information-technology Promotion Agency, Japan (IPA), 2003-2019. You must accept "https://opensource.org/licenses/IPA/" to use this product."
_OTF_FONTFILE "ipaexg.ttf"
_OTF_PSNAME "IPAexGothic"
ENDPROPERTIES
CHARS 11691
STARTCHAR 0020
ENCODING 32
SWIDTH 281 0
DWIDTH 9 0
BBX 0 0 0 0
BITMAP
ENDCHAR
STARTCHAR 0021
ENCODING 33
SWIDTH 312 0
DWIDTH 10 0
BBX 3 23 3 0
BITMAP
E0
E0
E0
E0
E0
E0
E0
E0
E0
E0
E0
60
60
60
60
60
60
00
00
00
E0
E0
E0
ENDCHAR
STARTCHAR 0022
ENCODING 34
SWIDTH 343 0
DWIDTH 11 0
BBX 7 9 2 15
BITMAP
CE
CE
CE
CE
CE
CE
C6
C6
C6
ENDCHAR
STARTCHAR 0023
ENCODING 35
SWIDTH 625 0
DWIDTH 20 0
BBX 17 24 2 -1
BITMAP
030C00
030C00
070C00
060C00
061800
061800
FFFF80
FFFF80
041800
0C1800
0C3000
0C3000
0C3000
FFFF80
FFFF80
183000
186000
186000
186000
306000
306000
306000
30C000
304000
ENDCHAR
STARTCHAR 0024
ENCODING 36
SWIDTH 625 0
DWIDTH 20 0
BBX 15 27 3 -2
BITMAP
0300
0300
0FC0
3FF0
7878
701C
E008
E000
E000
F000
7800
3F00
1FC0
07F0
00F8
003C
001C
000E
000E
400E
E01C
F83C
7FF8
1FF0
0300
0300
0300
ENDCHAR
STARTCHAR 0025
ENCODING 37
SWIDTH 843 0
DWIDTH 27 0
BBX 23 25 2 -1
BITMAP
000010
3E0038
7F0030
E38060
C180C0
C1C0C0
C1C180
C1C300
C1C700
C18600
E38C00
7F1800
3E38F8
0031FC
00638E
00C306
00C306
018706
030706
070306
060306
0C038E
1801FC
1800F8
100000
ENDCHAR
STARTCHAR 0026
ENCODING 38
SWIDTH 687 0
DWIDTH 22 0
BBX 20 23 2 0
BITMAP
03E000
0FF000
1C3800
1C1800
381C00
381C00
181800
1C3800
0E7000
0FE000
07C000
1F8080
3DC0C0
70E1C0
E071C0
E03980
E01F80
E00F00
E00F80
F01FC0
783DE0
3FF0F0
1FC060
ENDCHAR
STARTCHAR 0027
ENCODING 39
SWIDTH 187 0
DWIDTH 6 0
BBX 2 9 2 15
BITMAP
C0
C0
C0
C0
C0
C0
C0
C0
C0
ENDCHAR
STARTCHAR 0028
ENCODING 40
SWIDTH 343 0
DWIDTH 11 0
BBX 7 30 2 -5
BITMAP
06
06
0C
1C
18
38
30
70
70
70
60
60
E0
E0
E0
E0
E0
60
60
60
70
70
30
38
18
18
0C
0E
06
02
ENDCHAR
STARTCHAR 0029
ENCODING 41
SWIDTH 343 0
DWIDTH 11 0
BBX 7 30 1 -5
BITMAP
C0
60
70
30
38
18
1C
0C
0C
0E
0E
0E
06
06
06
06
06
0E
0E
0E
0C
0C
1C
18
18
30
30
60
C0
40
ENDCHAR
STARTCHAR 002A
ENCODING 42
SWIDTH 375 0
DWIDTH 12 0
BBX 9 10 1 13
BITMAP
0C00
0C80
6D80
7F80
1E00
3F00
EF80
4C80
0C00
0C00
ENDCHAR
STARTCHAR 002B
ENCODING 43
SWIDTH 687 0
DWIDTH 22 0
BBX 18 18 2 1
BITMAP
00C000
00C000
00C000
00C000
00C000
00C000
00C000
00C000
FFFFC0
FFFFC0
00C000
00C000
00C000
00C000
00C000
00C000
00C000
00C000
ENDCHAR
STARTCHAR 002C
ENCODING 44
SWIDTH 250 0
DWIDTH 8 0
BBX 5 9 1 -5
BITMAP
38
38
30
70
70
60
60
E0
C0
ENDCHAR
STARTCHAR 002D
ENCODING 45
SWIDTH 343 0
DWIDTH 11 0
BBX 8 2 2 9
BITMAP
FF
FF
ENDCHAR
STARTCHAR 002E
ENCODING 46
SWIDTH 250 0
DWIDTH 8 0
BBX 4 4 2 0
BITMAP
F0
F0
F0
F0
ENDCHAR
STARTCHAR 002F
ENCODING 47
SWIDTH 500 0
DWIDTH 16 0
BBX 12 28 2 -5
BITMAP
0030
0060
0060
0040
00C0
00C0
0080
0180
0180
0300
0300
0200
0600
0600
0400
0C00
0C00
1800
1800
1000
3000
3000
2000
6000
6000
C000
C000
8000
ENDCHAR
STARTCHAR 0030
ENCODING 48
SWIDTH 625 0
DWIDTH 20 0
BBX 16 23 2 0
BITMAP
07E0
1FF8
3C3C
381C
700E
700E
E007
E007
E007
E007
E007
E007
E007
E007
E007
E007
E007
7007
700E
381E
3C3C
1FF8
07E0
ENDCHAR
STARTCHAR 0031
ENCODING 49
SWIDTH 625 0
DWIDTH 20 0
BBX 9 23 3 0
BITMAP
0380
0F80
FF80
7B80
0380
0380
0380
0380
0380
0380
0380
0380
0380
0380
0380
0380
0380
0380
0380
0380
0380
0380
0380
ENDCHAR
STARTCHAR 0032
ENCODING 50
SWIDTH 625 0
DWIDTH 20 0
BBX 16 23 2 0
BITMAP
07F0
1FFC
3C1E
700E
7007
6007
0007
0007
000E
001E
003C
00F0
01E0
0780
0F00
1C00
3800
3000
7000
E000
FFFF
FFFF
FFFF
ENDCHAR
STARTCHAR 0033
ENCODING 51
SWIDTH 625 0
DWIDTH 20 0
BBX 16 23 2 0
BITMAP
0FE0
3FF8
783C
700E
600E
000E
000E
000E
001C
0078
07F0
07E0
0078
001E
000E
0006
0007
0006
C00E
E00E
783C
3FF8
0FE0
ENDCHAR
STARTCHAR 0034
ENCODING 52
SWIDTH 625 0
DWIDTH 20 0
BBX 18 23 1 0
BITMAP
001C00
003C00
007C00
006C00
00CC00
01CC00
038C00
030C00
070C00
0E0C00
1C0C00
180C00
380C00
700C00
E00C00
FFFFC0
FFFFC0
FFFFC0
000C00
000C00
000C00
000C00
000C00
ENDCHAR
STARTCHAR 0035
ENCODING 53
SWIDTH 625 0
DWIDTH 20 0
BBX 16 23 2 0
BITMAP
3FFE
3FFE
3800
3800
3000
3000
3000
3000
73F0
7FF8
7C1C
700E
7007
0007
0007
0007
0007
0007
2007
F00E
783C
3FF8
07E0
ENDCHAR
STARTCHAR 0036
ENCODING 54
SWIDTH 625 0
DWIDTH 20 0
BBX 16 23 2 0
BITMAP
03F8
07FE
1E0F
1C06
3800
3000
7000
7000
61F0
67FC
EE1E
F80E
F007
F007
7003
7003
7003
7007
3807
380E
1E1E
0FF8
03F0
ENDCHAR
STARTCHAR 0037
ENCODING 55
SWIDTH 625 0
DWIDTH 20 0
BBX 16 23 2 0
BITMAP
FFFF
FFFF
FFFF
000E
000E
001C
0018
0038
0030
0070
0060
00E0
00C0
01C0
01C0
0380
0380
0700
0700
0700
0F00
0E00
0E00
ENDCHAR
STARTCHAR 0038
ENCODING 56
SWIDTH 625 0
DWIDTH 20 0
BBX 16 23 2 0
BITMAP
07F0
1FFC
3C1E
700E
7007
E007
E007
7006
780E
3C3C
1FF0
07F0
1C3C
700E
E007
E007
E003
E007
E007
F00F
781E
3FFC
0FF0
ENDCHAR
STARTCHAR 0039
ENCODING 57
SWIDTH 625 0
DWIDTH 20 0
BBX 16 23 2 0
BITMAP
07C0
1FF0
3838
701C
E00E
E00E
E00E
E006
E007
E00F
E00F
701F
7837
3FE7
0FC7
000E
000E
000E
001C
E01C
7078
3FF0
0FC0
ENDCHAR
STARTCHAR 003A
ENCODING 58
SWIDTH 312 0
DWIDTH 10 0
BBX 4 16 3 0
BITMAP
F0
F0
F0
F0
00
00
00
00
00
00
00
00
F0
F0
F0
F0
ENDCHAR
STARTCHAR 003B
ENCODING 59
SWIDTH 312 0
DWIDTH 10 0
BBX 5 21 2 -5
BITMAP
78
78
78
78
00
00
00
00
00
00
00
00
00
38
30
70
70
70
60
E0
C0
ENDCHAR
STARTCHAR 003C
ENCODING 60
SWIDTH 687 0
DWIDTH 22 0
BBX 18 18 2 1
BITMAP
000080
0003C0
000F00
003C00
00F000
07C000
1F0000
780000
E00000
F00000
3C0000
0F0000
03C000
00F000
003E00
000F80
000380
000080
ENDCHAR
STARTCHAR 003D
ENCODING 61
SWIDTH 687 0
DWIDTH 22 0
BBX 18 8 2 6
BITMAP
FFFFC0
FFFFC0
000000
000000
000000
000000
FFFFC0
FFFFC0
ENDCHAR
STARTCHAR 003E
ENCODING 62
SWIDTH 687 0
DWIDTH 22 0
BBX 18 17 2 1
BITMAP
400000
F00000
3C0000
0F0000
03C000
00F000
003C00
000F00
0003C0
0003C0
000F00
003C00
01F000
07C000
1E0000
780000
E00000
ENDCHAR
STARTCHAR 003F
ENCODING 63
SWIDTH 562 0
DWIDTH 18 0
BBX 15 23 1 0
BITMAP
07E0
1FF0
383C
701C
E00E
E00E
000E
001E
001C
003C
0078
00F0
01C0
0180
0380
0380
0300
0000
0000
0000
0380
0380
0380
ENDCHAR
STARTCHAR 0040
ENCODING 64
SWIDTH 906 0
DWIDTH 29 0
BBX 24 23 2 0
BITMAP
007F80
01FFE0
07C0F0
0E0038
1C1E6C
387F66
30E1E6
70C1C3
61C0C3
6180C3
6380C3
E38183
E38183
638387
638386
61878E
71FF9C
38F9F8
1C00F0
1E0008
07807C
03FFF8
007FC0
ENDCHAR
STARTCHAR 0041
ENCODING 65
SWIDTH 625 0
DWIDTH 20 0
BBX 20 23 0 0
BITMAP
007000
00F000
00F000
00F800
01F800
019800
039C00
039C00
030E00
070E00
070600
0E0700
0E0700
0E0380
1FFF80
1FFF80
1801C0
3801C0
3800E0
7000E0
7000E0
700070
E00070
ENDCHAR
STARTCHAR 0042
ENCODING 66
SWIDTH 656 0
DWIDTH 21 0
BBX 16 23 3 0
BITMAP
FFE0
FFF8
E03C
E01E
E00E
E00E
E00E
E00E
E01E
E03C
FFF0
FFF0
E03C
E00E
E007
E007
E007
E007
E007
E00E
E03E
FFF8
FFE0
ENDCHAR
STARTCHAR 0043
ENCODING 67
SWIDTH 718 0
DWIDTH 23 0
BBX 19 23 2 0
BITMAP
01FC00
07FF80
0F07C0
1C01E0
3800E0
780040
700000
F00000
E00000
E00000
E00000
E00000
E00000
E00000
E00000
F00000
700000
780060
3800E0
1C01E0
0F03C0
07FF00
01FC00
ENDCHAR
STARTCHAR 0044
ENCODING 68
SWIDTH 750 0
DWIDTH 24 0
BBX 19 23 3 0
BITMAP
FFE000
FFFC00
E03E00
E00700
E00380
E001C0
E001C0
E000E0
E000E0
E000E0
E000E0
E000E0
E000E0
E000E0
E000E0
E000E0
E001C0
E001C0
E00380
E00780
E03E00
FFFC00
FFE000
ENDCHAR
STARTCHAR 0045
ENCODING 69
SWIDTH 593 0
DWIDTH 19 0
BBX 15 23 3 0
BITMAP
FFFC
FFFC
E000
E000
E000
E000
E000
E000
E000
E000
FFF8
FFF8
E000
E000
E000
E000
E000
E000
E000
E000
E000
FFFE
FFFE
ENDCHAR
STARTCHAR 0046
ENCODING 70
SWIDTH 562 0
DWIDTH 18 0
BBX 14 23 3 0
BITMAP
FFFC
FFFC
E000
E000
E000
E000
E000
E000
E000
E000
FFF8
FFF8
E000
E000
E000
E000
E000
E000
E000
E000
E000
E000
E000
ENDCHAR
STARTCHAR 0047
ENCODING 71
SWIDTH 750 0
DWIDTH 24 0
BBX 20 23 2 0
BITMAP
01FC00
07FF80
0F07C0
1C01E0
3800E0
780040
700000
F00000
E00000
E00000
E00000
E00000
E00FF0
E00FF0
E00070
F00070
700070
700070
380070
1C00F0
0F03E0
07FF80
01FE00
ENDCHAR
STARTCHAR 0048
ENCODING 72
SWIDTH 750 0
DWIDTH 24 0
BBX 18 23 3 0
BITMAP
E001C0
E001C0
E001C0
E001C0
E001C0
E001C0
E001C0
E001C0
E001C0
E001C0
FFFFC0
FFFFC0
E001C0
E001C0
E001C0
E001C0
E001C0
E001C0
E001C0
E001C0
E001C0
E001C0
E001C0
ENDCHAR
STARTCHAR 0049
ENCODING 73
SWIDTH 281 0
DWIDTH 9 0
BBX 3 23 3 0
BITMAP
E0
E0
E0
E0
E0
E0
E0
E0
E0
E0
E0
E0
E0
E0
E0
E0
E0
E0
E0
E0
E0
E0
E0
ENDCHAR
STARTCHAR 004A
ENCODING 74
SWIDTH 375 0
DWIDTH 12 0
BBX 9 23 0 0
BITMAP
0380
0380
0380
0380
0380
0380
0380
0380
0380
0380
0380
0380
0380
0380
0380
0380
0380
0380
0380
0380
8700
FF00
FC00
ENDCHAR
STARTCHAR 004B
ENCODING 75
SWIDTH 656 0
DWIDTH 21 0
BBX 17 23 3 0
BITMAP
E00700
E00E00
E01C00
E03800
E07000
E0E000
E1C000
E38000
E70000
EE0000
FF0000
FF8000
F38000
E1C000
E0E000
E0F000
E07800
E03800
E01C00
E01E00
E00F00
E00780
E00380
ENDCHAR
STARTCHAR 004C
ENCODING 76
SWIDTH 531 0
DWIDTH 17 0
BBX 14 22 3 0
BITMAP
E000
E000
E000
E000
E000
E000
E000
E000
E000
E000
E000
E000
E000
E000
E000
E000
E000
E000
E000
E000
FFFC
FFFC
ENDCHAR
STARTCHAR 004D
ENCODING 77
SWIDTH 906 0
DWIDTH 29 0
BBX 23 23 3 0
BITMAP
F0003E
F8003E
F8003E
F8007E
FC006E
EC00EE
EE00EE
EE00CE
E701CE
E7018E
E3038E
E3838E
E3830E
E1C70E
E1C60E
E0CE0E
E0EE0E
E0EC0E
E07C0E
E0780E
E0380E
E0380E
E0000E
ENDCHAR
STARTCHAR 004E
ENCODING 78
SWIDTH 750 0
DWIDTH 24 0
BBX 18 23 3 0
BITMAP
F001C0
F801C0
F801C0
FC01C0
EE01C0
EE01C0
E701C0
E381C0
E381C0
E1C1C0
E0E1C0
E0E1C0
E071C0
E079C0
E038C0
E01CC0
E01EC0
E00EC0
E007C0
E007C0
E003C0
E001C0
E001C0
ENDCHAR
STARTCHAR 004F
ENCODING 79
SWIDTH 812 0
DWIDTH 26 0
BBX 22 23 2 0
BITMAP
01FC00
07FF00
0F07C0
1C01E0
3800F0
780070
700078
F00038
E00038
E00038
E00038
E0003C
E0003C
E00038
E00038
F00038
700078
700070
3800F0
1C01E0
0F07C0
07FF00
01FC00
ENDCHAR
STARTCHAR 0050
ENCODING 80
SWIDTH 625 0
DWIDTH 20 0
BBX 15 22 3 1
BITMAP
FFE0
FFF8
E03C
E01E
E00E
E00E
E00E
E00E
E00E
E01E
E03C
FFF8
FFE0
E000
E000
E000
E000
E000
E000
E000
E000
E000
ENDCHAR
STARTCHAR 0051
ENCODING 81
SWIDTH 812 0
DWIDTH 26 0
BBX 22 25 2 -2
BITMAP
01FC00
07FF00
0F07C0
1C01E0
3800F0
700070
700038
F00038
E00038
E00038
E00018
E0001C
E0001C
E00038
E00038
E01038
703838
703E70
380F70
1C07E0
0F03C0
07FFF0
01FE78
00001C
000008
ENDCHAR
STARTCHAR 0052
ENCODING 82
SWIDTH 656 0
DWIDTH 21 0
BBX 17 23 3 0
BITMAP
FFE000
FFF800
E03C00
E01E00
E00E00
E00E00
E00600
E00E00
E00E00
E01E00
E03C00
FFF000
FFC000
E1F000
E07000
E03800
E01C00
E01C00
E00E00
E00F00
E00700
E00780
E00380
ENDCHAR
STARTCHAR 0053
ENCODING 83
SWIDTH 593 0
DWIDTH 19 0
BBX 15 23 2 0
BITMAP
0FE0
3FF8
783C
701E
E008
E000
E000
F000
7800
3F00
1FC0
0FF0
01F8
007C
001E
000E
000E
000E
400E
E01C
F83C
3FF8
0FE0
ENDCHAR
STARTCHAR 0054
ENCODING 84
SWIDTH 593 0
DWIDTH 19 0
BBX 19 22 0 1
BITMAP
FFFFE0
FFFFE0
00E000
00E000
00E000
00E000
00E000
00E000
00E000
00E000
00E000
00E000
00E000
00E000
00E000
00E000
00E000
00E000
00E000
00E000
00E000
00E000
ENDCHAR
STARTCHAR 0055
ENCODING 85
SWIDTH 750 0
DWIDTH 24 0
BBX 18 23 3 0
BITMAP
E001C0
E001C0
E001C0
E001C0
E001C0
E001C0
E001C0
E001C0
E001C0
E001C0
E001C0
E001C0
E001C0
E001C0
E001C0
E001C0
E001C0
E001C0
F00380
700780
3C0F00
1FFE00
07F800
ENDCHAR
STARTCHAR 0056
ENCODING 86
SWIDTH 625 0
DWIDTH 20 0
BBX 20 23 0 0
BITMAP
E00070
700070
7000E0
7000E0
3800E0
3801C0
1C01C0
1C0380
1C0380
0E0380
0E0700
0E0700
070600
070E00
038E00
039C00
039C00
01D800
01F800
00F800
00F000
00F000
006000
ENDCHAR
STARTCHAR 0057
ENCODING 87
SWIDTH 937 0
DWIDTH 30 0
BBX 29 23 0 0
BITMAP
F0030038
70070038
70078038
70078070
380F8070
380FC070
380DC060
180CC0E0
1C1CE0E0
1C1CE0E0
1C18E1C0
0E3861C0
0E3871C0
0E307180
06303380
07703B80
07603B00
03601B00
03601F00
03E01E00
03C01E00
01C00E00
01C00E00
ENDCHAR
STARTCHAR 0058
ENCODING 88
SWIDTH 687 0
DWIDTH 22 0
BBX 20 23 1 0
BITMAP
F000E0
7801E0
3801C0
3C0380
1E0780
0E0700
070E00
079C00
039C00
01F800
01F000
00F000
01F000
01F800
039C00
071E00
0F0E00
0E0700
1C0780
3C0380
3801C0
7001E0
F000F0
ENDCHAR
STARTCHAR 0059
ENCODING 89
SWIDTH 625 0
DWIDTH 20 0
BBX 19 23 0 0
BITMAP
F000E0
7001E0
3801C0
3C0380
1C0780
0E0700
0F0E00
071E00
039C00
01F800
01F000
00F000
00E000
00E000
00E000
00E000
00E000
00E000
00E000
00E000
00E000
00E000
00E000
ENDCHAR
STARTCHAR 005A
ENCODING 90
SWIDTH 656 0
DWIDTH 21 0
BBX 18 23 1 0
BITMAP
7FFFC0
7FFFC0
000380
000700
000F00
001E00
001C00
003C00
007800
007000
00E000
01E000
03C000
038000
078000
0F0000
0E0000
1C0000
3C0000
780000
700000
FFFFC0
FFFFC0
ENDCHAR
STARTCHAR 005B
ENCODING 91
SWIDTH 312 0
DWIDTH 10 0
BBX 6 29 3 -5
BITMAP
FC
FC
C0
C0
C0
C0
C0
C0
C0
C0
C0
C0
C0
C0
C0
C0
C0
C0
C0
C0
C0
C0
C0
C0
C0
C0
C0
FC
FC
ENDCHAR
STARTCHAR 005C
ENCODING 92
SWIDTH 500 0
DWIDTH 16 0
BBX 12 28 2 -5
BITMAP
C000
6000
6000
2000
3000
3000
1000
1800
1800
0C00
0C00
0400
0600
0600
0200
0300
0300
0180
0180
0080
00C0
00C0
0040
0060
0060
0030
0030
0010
ENDCHAR
STARTCHAR 005D
ENCODING 93
SWIDTH 312 0
DWIDTH 10 0
BBX 6 29 1 -5
BITMAP
FC
FC
1C
1C
1C
1C
1C
1C
1C
1C
1C
1C
1C
1C
1C
1C
1C
1C
1C
1C
1C
1C
1C
1C
1C
1C
1C
FC
FC
ENDCHAR
STARTCHAR 005E
ENCODING 94
SWIDTH 500 0
DWIDTH 16 0
BBX 14 9 1 11
BITMAP
0300
0780
0780
0CC0
1860
3030
7038
E01C
C00C
ENDCHAR
STARTCHAR 005F
ENCODING 95
SWIDTH 500 0
DWIDTH 16 0
BBX 16 2 0 -4
BITMAP
FFFF
FFFF
ENDCHAR
STARTCHAR 0060
ENCODING 96
SWIDTH 500 0
DWIDTH 16 0
BBX 4 4 5 19
BITMAP
E0
60
70
30
ENDCHAR
STARTCHAR 0061
ENCODING 97
SWIDTH 562 0
DWIDTH 18 0
BBX 14 16 2 0
BITMAP
0FC0
3FE0
7870
6038
0038
0038
03F8
3FF8
7C38
E038
E038
E038
E078
F0F8
7FD8
1F1C
ENDCHAR
STARTCHAR 0062
ENCODING 98
SWIDTH 625 0
DWIDTH 20 0
BBX 15 24 3 0
BITMAP
E000
E000
E000
E000
E000
E000
E000
E000
E7E0
EFF0
FC38
F01C
E00E
E00E
E00E
E00E
E00E
E00E
E00E
E00E
F01C
F83C
DFF8
C7E0
ENDCHAR
STARTCHAR 0063
ENCODING 99
SWIDTH 531 0
DWIDTH 17 0
BBX 14 16 2 0
BITMAP
0FC0
1FF0
3838
701C
E000
E000
E000
C000
C000
E000
E000
E008
701C
383C
1FF0
0FE0
ENDCHAR
STARTCHAR 0064
ENCODING 100
SWIDTH 625 0
DWIDTH 20 0
BBX 15 24 2 0
BITMAP
000E
000E
000E
000E
000E
000E
000E
000E
0F8E
3FEE
787E
701E
E00E
E00E
E00E
C00E
C00E
E00E
E00E
E01E
701E
787E
3FEE
0F8E
ENDCHAR
STARTCHAR 0065
ENCODING 101
SWIDTH 562 0
DWIDTH 18 0
BBX 15 16 2 0
BITMAP
0FC0
1FF0
7878
701C
E01C
E00C
FFFE
FFFE
C000
E000
E000
E000
700E
7C3C
1FF8
07E0
ENDCHAR
STARTCHAR 0066
ENCODING 102
SWIDTH 312 0
DWIDTH 10 0
BBX 11 24 1 0
BITMAP
07C0
0FE0
1C40
1800
3800
3800
3800
3800
FF80
FF80
3800
3800
3800
3800
3800
3800
3800
3800
3800
3800
3800
3800
3800
3800
ENDCHAR
STARTCHAR 0067
ENCODING 103
SWIDTH 562 0
DWIDTH 18 0
BBX 15 23 2 -6
BITMAP
001C
0FFC
3FF0
7870
7038
E038
E038
E038
6038
7870
3FE0
3FC0
6000
6000
7F80
3FF8
3FFC
F01C
E00E
E00C
F03C
7FF8
1FE0
ENDCHAR
STARTCHAR 0068
ENCODING 104
SWIDTH 593 0
DWIDTH 19 0
BBX 14 24 3 0
BITMAP
E000
E000
E000
E000
E000
E000
E000
E000
E3E0
EFF0
FC78
F038
E01C
E01C
E01C
E01C
E01C
E01C
E01C
E01C
E01C
E01C
E01C
E01C
ENDCHAR
STARTCHAR 0069
ENCODING 105
SWIDTH 281 0
DWIDTH 9 0
BBX 3 23 3 0
BITMAP
E0
E0
E0
00
00
00
00
E0
E0
E0
E0
E0
E0
E0
E0
E0
E0
E0
E0
E0
E0
E0
E0
ENDCHAR
STARTCHAR 006A
ENCODING 106
SWIDTH 281 0
DWIDTH 9 0
BBX 7 29 -1 -6
BITMAP
0E
0E
0E
00
00
00
0E
0E
0E
0E
0E
0E
0E
0E
0E
0E
0E
0E
0E
0E
0E
0E
0E
0E
0C
1C
7C
F8
E0
ENDCHAR
STARTCHAR 006B
ENCODING 107
SWIDTH 531 0
DWIDTH 17 0
BBX 13 24 3 0
BITMAP
E000
E000
E000
E000
E000
E000
E000
E000
E070
E0E0
E1C0
E380
E700
EE00
FC00
FE00
F700
E700
E380
E1C0
E1E0
E0E0
E070
E038
ENDCHAR
STARTCHAR 006C
ENCODING 108
SWIDTH 281 0
DWIDTH 9 0
BBX 3 24 3 0
BITMAP
E0
E0
E0
E0
E0
E0
E0
E0
E0
E0
E0
E0
E0
E0
E0
E0
E0
E0
E0
E0
E0
E0
E0
E0
ENDCHAR
STARTCHAR 006D
ENCODING 109
SWIDTH 875 0
DWIDTH 28 0
BBX 22 16 3 0
BITMAP
C7C3E0
DFE7F8
D8FE38
F0781C
E0781C
E0301C
E0301C
E0301C
E0301C
E0301C
E0301C
E0301C
E0301C
E0301C
E0301C
E0301C
ENDCHAR
STARTCHAR 006E
ENCODING 110
SWIDTH 593 0
DWIDTH 19 0
BBX 14 16 3 0
BITMAP
C7E0
CFF0
D878
F038
E01C
E01C
E01C
E01C
E01C
E01C
E01C
E01C
E01C
E01C
E01C
E01C
ENDCHAR
STARTCHAR 006F
ENCODING 111
SWIDTH 593 0
DWIDTH 19 0
BBX 16 16 2 0
BITMAP
07E0
1FF0
383C
701C
E00E
E00E
E007
C007
C007
E007
E00E
E00E
701C
383C
1FF8
07E0
ENDCHAR
STARTCHAR 0070
ENCODING 112
SWIDTH 625 0
DWIDTH 20 0
BBX 15 22 3 -6
BITMAP
C7E0
CFF0
D838
F01C
E00E
E00E
E00E
E00E
E00E
E00E
E00E
E00E
F01C
F838
FFF0
E7E0
E000
E000
E000
E000
E000
E000
ENDCHAR
STARTCHAR 0071
ENCODING 113
SWIDTH 625 0
DWIDTH 20 0
BBX 15 22 2 -6
BITMAP
0FC6
3FF6
787E
701E
E00E
E00E
E00E
C00E
C00E
E00E
E00E
E00E
701E
787E
3FEE
0FCE
000E
000E
000E
000E
000E
000E
ENDCHAR
STARTCHAR 0072
ENCODING 114
SWIDTH 375 0
DWIDTH 12 0
BBX 8 16 3 0
BITMAP
C7
CF
DF
D8
F0
E0
E0
E0
E0
E0
E0
E0
E0
E0
E0
E0
ENDCHAR
STARTCHAR 0073
ENCODING 115
SWIDTH 468 0
DWIDTH 15 0
BBX 11 16 2 0
BITMAP
1F00
7FC0
E0E0
E000
C000
E000
7800
3F00
0FC0
01E0
00E0
0060
0060
E0E0
FFC0
3F00
ENDCHAR
STARTCHAR 0074
ENCODING 116
SWIDTH 343 0
DWIDTH 11 0
BBX 9 21 1 0
BITMAP
0800
3800
3800
3800
3800
FF80
FF80
3800
3800
3800
3800
3800
3800
3800
3800
3800
3800
3800
3880
1F80
0F80
ENDCHAR
STARTCHAR 0075
ENCODING 117
SWIDTH 593 0
DWIDTH 19 0
BBX 13 16 3 0
BITMAP
C018
C018
C018
C018
C018
C018
C018
C018
C018
C018
C038
C038
E078
F0F8
7F98
1F18
ENDCHAR
STARTCHAR 0076
ENCODING 118
SWIDTH 500 0
DWIDTH 16 0
BBX 15 16 0 0
BITMAP
E00E
700E
700C
301C
381C
3818
1C38
1C30
0C70
0E60
0660
06E0
07C0
03C0
0380
0180
ENDCHAR
STARTCHAR 0077
ENCODING 119
SWIDTH 750 0
DWIDTH 24 0
BBX 24 16 0 0
BITMAP
E01807
703C06
703C0E
703C0E
307E0C
38661C
38661C
18E718
1CC318
0CC338
0DC3B0
0F81B0
0781F0
0780E0
0700E0
0300E0
ENDCHAR
STARTCHAR 0078
ENCODING 120
SWIDTH 500 0
DWIDTH 16 0
BBX 14 16 1 0
BITMAP
E01C
7038
7070
3870
1CE0
1DC0
0F80
0780
0780
0FC0
1DC0
18E0
3870
7070
E038
E01C
ENDCHAR
STARTCHAR 0079
ENCODING 121
SWIDTH 500 0
DWIDTH 16 0
BBX 15 22 0 -6
BITMAP
F00E
700E
700E
381C
381C
1818
1C38
0C38
0E70
0E70
0660
07E0
03C0
03C0
01C0
0180
0380
0300
0700
0E00
3E00
3C00
ENDCHAR
STARTCHAR 007A
ENCODING 122
SWIDTH 468 0
DWIDTH 15 0
BBX 13 16 1 0
BITMAP
7FF8
7FF8
0070
00E0
01C0
01C0
0380
0700
0F00
0E00
1C00
3800
3800
7000
FFF8
FFF8
ENDCHAR
STARTCHAR 007B
ENCODING 123
SWIDTH 343 0
DWIDTH 11 0
BBX 8 29 2 -5
BITMAP
0F
1F
38
30
30
30
30
30
30
30
30
30
70
60
C0
60
30
30
30
30
30
30
30
30
30
30
38
1F
0F
ENDCHAR
STARTCHAR 007C
ENCODING 124
SWIDTH 187 0
DWIDTH 6 0
BBX 2 29 2 -5
BITMAP
C0
C0
C0
C0
C0
C0
C0
C0
C0
C0
C0
C0
C0
C0
C0
C0
C0
C0
C0
C0
C0
C0
C0
C0
C0
C0
C0
C0
C0
ENDCHAR
STARTCHAR 007D
ENCODING 125
SWIDTH 343 0
DWIDTH 11 0
BBX 8 29 1 -5
BITMAP
E0
F8
18
1C
1C
1C
1C
1C
1C
1C
1C
1C
0C
0E
07
0E
0C
1C
1C
1C
1C
1C
1C
1C
1C
1C
18
F8
F0
ENDCHAR
STARTCHAR 007E
ENCODING 126
SWIDTH 500 0
DWIDTH 16 0
BBX 10 4 3 19
BITMAP
7000
FCC0
CFC0
0780
ENDCHAR
STARTCHAR 00A0
ENCODING 160
SWIDTH 281 0
DWIDTH 9 0
BBX 0 0 0 0
BITMAP
ENDCHAR
STARTCHAR 00A1
ENCODING 161
SWIDTH 312 0
DWIDTH 10 0
BBX 3 23 3 0
BITMAP
E0
E0
E0
00
00
00
60
60
60
60
60
60
E0
E0
E0
E0
E0
E0
E0
E0
E0
E0
E0
ENDCHAR
STARTCHAR 00A2
ENCODING 162
SWIDTH 625 0
DWIDTH 20 0
BBX 16 24 2 1
BITMAP
0018
0018
0038
0030
07F0
1FF8
3C7C
786E
70C6
60C0
E1C0
E180
E180
E380
6307
7307
7E0E
3E1C
1FF8
0FE0
0C00
1C00
1800
1800
ENDCHAR
STARTCHAR 00A3
ENCODING 163
SWIDTH 843 0
DWIDTH 27 0
BBX 22 24 2 0
BITMAP
003E00
00FF80
01C380
0181C0
0381C0
0380C0
038000
018000
018000
1FFF80
1FFF80
00E000
006000
006000
006000
3E6000
7FE000
E1E008
E0E01C
E0F01C
E0F838
61DC70
7F87F0
1E03C0
ENDCHAR
STARTCHAR 00A4
ENCODING 164
SWIDTH 625 0
DWIDTH 20 0
BBX 14 15 3 3
BITMAP
0004
CFCC
FFFC
7878
6018
C00C
C00C
C00C
C00C
C00C
C00C
6018
7878
FFFC
C7CC
ENDCHAR
STARTCHAR 00A5
ENCODING 165
SWIDTH 625 0
DWIDTH 20 0
BBX 19 23 1 0
BITMAP
E001E0
F003C0
700380
380700
1C0E00
0E0E00
0E1C00
073800
03B000
01E000
3FFF00
3FFF00
00C000
00C000
00C000
3FFF00
3FFF00
00C000
00C000
00C000
00C000
00C000
00C000
ENDCHAR
STARTCHAR 00A6
ENCODING 166
SWIDTH 187 0
DWIDTH 6 0
BBX 2 29 2 -5
BITMAP
C0
C0
C0
C0
C0
C0
C0
C0
C0
C0
C0
C0
00
00
00
00
00
C0
C0
C0
C0
C0
C0
C0
C0
C0
C0
C0
C0
ENDCHAR
STARTCHAR 00A7
ENCODING 167
SWIDTH 593 0
DWIDTH 19 0
BBX 13 28 3 -2
BITMAP
0F80
3FE0
70F0
6070
E038
E038
6000
7000
3C00
3F00
77C0
E1F0
E078
E038
E018
7038
7C38
1F70
07E0
01E0
0070
0038
E038
E038
E038
7070
3FE0
0F80
ENDCHAR
STARTCHAR 00A8
ENCODING 168
SWIDTH 500 0
DWIDTH 16 0
BBX 10 3 3 20
BITMAP
E1C0
E1C0
E1C0
ENDCHAR
STARTCHAR 00A9
ENCODING 169
SWIDTH 1000 0
DWIDTH 32 0
BBX 26 26 3 -1
BITMAP
007F0000
01C0E000
07003800
0C000C00
181F0600
307FC300
20E1E100
61C07180
43807080
C38000C0
C30000C0
87000040
87000040
87000040
87000040
870000C0
C38000C0
43807080
61C07180
21E0E100
307FC300
183F0600
0C000C00
06001800
01C0E000
007F0000
ENDCHAR
STARTCHAR 00AA
ENCODING 170
SWIDTH 437 0
DWIDTH 14 0
BBX 10 14 2 9
BITMAP
1F00
7F80
2180
01C0
3FC0
71C0
E1C0
E3C0
7FC0
3CC0
0000
0000
FFC0
FFC0
ENDCHAR
STARTCHAR 00AB
ENCODING 171
SWIDTH 593 0
DWIDTH 19 0
BBX 13 14 3 3
BITMAP
0410
0E38
1C30
1860
38E0
71C0
6180
E180
71C0
38E0
1860
1C70
0C38
0410
ENDCHAR
STARTCHAR 00AC
ENCODING 172
SWIDTH 687 0
DWIDTH 22 0
BBX 16 8 2 5
BITMAP
FFFF
FFFF
0003
0003
0003
0003
0003
0003
ENDCHAR
STARTCHAR 00AD
ENCODING 173
SWIDTH 687 0
DWIDTH 22 0
BBX 18 2 2 9
BITMAP
FFFFC0
FFFFC0
ENDCHAR
STARTCHAR 00AE
ENCODING 174
SWIDTH 1000 0
DWIDTH 32 0
BBX 26 25 3 0
BITMAP
007F0000
01C0E000
07003000
0E000C00
18000600
31FF0200
21FFC100
61C1E180
41C0E080
C1C0E0C0
C1C0E0C0
81C0E040
81FFC040
81FF0040
81C78040
C1C1C0C0
41C1C080
41C0E080
21C0E100
31C07300
11C07600
0C000C00
06001800
01C0E000
007F8000
ENDCHAR
STARTCHAR 00AF
ENCODING 175
SWIDTH 500 0
DWIDTH 16 0
BBX 8 2 4 20
BITMAP
FF
FF
ENDCHAR
STARTCHAR 00B0
ENCODING 176
SWIDTH 343 0
DWIDTH 11 0
BBX 7 8 2 19
BITMAP
78
CC
86
86
86
86
CC
38
ENDCHAR
STARTCHAR 00B1
ENCODING 177
SWIDTH 687 0
DWIDTH 22 0
BBX 18 18 2 2
BITMAP
00C000
00C000
00C000
00C000
00C000
00C000
FFFFC0
FFFFC0
00C000
00C000
00C000
00C000
00C000
00C000
00C000
000000
FFFFC0
FFFFC0
ENDCHAR
STARTCHAR 00B2
ENCODING 178
SWIDTH 406 0
DWIDTH 13 0
BBX 9 12 2 11
BITMAP
3E00
7F00
E380
4180
0380
0700
1E00
3800
6000
C000
FF80
FF80
ENDCHAR
STARTCHAR 00B3
ENCODING 179
SWIDTH 406 0
DWIDTH 13 0
BBX 9 12 2 11
BITMAP
3E00
7F00
C300
0300
0300
1C00
0F00
0380
0180
C380
FF00
3E00
ENDCHAR
STARTCHAR 00B4
ENCODING 180
SWIDTH 500 0
DWIDTH 16 0
BBX 4 4 7 19
BITMAP
70
70
E0
C0
ENDCHAR
STARTCHAR 00B6
ENCODING 182
SWIDTH 1000 0
DWIDTH 32 0
BBX 13 29 8 -3
BITMAP
1FF8
3FF8
7E18
FE18
FE18
FE18
FE18
FE18
7E18
7E18
3E18
0E18
0218
0218
0218
0218
0218
0218
0218
0218
0218
0218
0218
0218
0218
0218
0218
0218
0218
ENDCHAR
STARTCHAR 00B7
ENCODING 183
SWIDTH 250 0
DWIDTH 8 0
BBX 4 4 2 8
BITMAP
F0
F0
F0
F0
ENDCHAR
STARTCHAR 00B8
ENCODING 184
SWIDTH 500 0
DWIDTH 16 0
BBX 6 7 5 -7
BITMAP
30
70
7C
0C
0C
FC
F8
ENDCHAR
STARTCHAR 00B9
ENCODING 185
SWIDTH 406 0
DWIDTH 13 0
BBX 5 13 3 11
BITMAP
18
78
F8
98
18
18
18
18
18
18
18
18
18
ENDCHAR
STARTCHAR 00BA
ENCODING 186
SWIDTH 437 0
DWIDTH 14 0
BBX 11 14 2 9
BITMAP
1F00
7F80
E1C0
E0C0
C0E0
C0E0
C0C0
E1C0
7F80
1F00
0000
0000
FFC0
FFC0
ENDCHAR
STARTCHAR 00BB
ENCODING 187
SWIDTH 593 0
DWIDTH 19 0
BBX 13 14 3 3
BITMAP
4100
E380
61C0
30C0
38E0
1C70
0C38
0E38
1C70
3860
30C0
71C0
6180
4100
ENDCHAR
STARTCHAR 00BC
ENCODING 188
SWIDTH 843 0
DWIDTH 27 0
BBX 22 24 3 0
BITMAP
180020
780060
F80060
9800C0
180180
180380
180300
180600
180C00
180C00
181800
183070
0060F0
0061F0
00C1B0
018330
030630
030630
060C30
0C1FFC
181FFC
180030
300030
200000
ENDCHAR
STARTCHAR 00BD
ENCODING 189
SWIDTH 843 0
DWIDTH 27 0
BBX 23 25 2 -1
BITMAP
000010
3C0030
FC0030
4C0060
0C00C0
0C00C0
0C0180
0C0300
0C0600
0C0600
0C0C00
0C1800
0C1878
0031FE
006186
00C006
00C006
01801C
030078
0700E0
060180
0C0380
1803FE
1803FE
100000
ENDCHAR
STARTCHAR 00BE
ENCODING 190
SWIDTH 843 0
DWIDTH 27 0
BBX 23 24 2 0
BITMAP
000010
3E0038
FF0030
C30060
0300C0
0701C0
1C0180
070300
018600
018E00
C38C00
FF1838
3E3078
0030F8
0060D8
00C198
018318
018318
030618
060FFE
0C0FFE
0C0018
180018
100000
ENDCHAR
STARTCHAR 00BF
ENCODING 191
SWIDTH 562 0
DWIDTH 18 0
BBX 14 23 2 0
BITMAP
0380
0380
0380
0000
0000
0300
0300
0300
0300
0700
0E00
1E00
3C00
7800
F000
E000
E008
E00C
E01C
E038
7878
3FF0
0FC0
ENDCHAR
STARTCHAR 00C0
ENCODING 192
SWIDTH 625 0
DWIDTH 20 0
BBX 20 29 0 0
BITMAP
01C000
00C000
00E000
006000
000000
000000
007000
00F000
00F000
00F800
01F800
019C00
039C00
039C00
030E00
070E00
070700
0E0700
0E0700
0E0380
1FFF80
1FFF80
1801C0
3801C0
3800E0
7000E0
7000E0
700070
E00070
ENDCHAR
STARTCHAR 00C1
ENCODING 193
SWIDTH 625 0
DWIDTH 20 0
BBX 20 29 0 0
BITMAP
001C00
003800
003000
007000
000000
000000
007000
00F000
00F000
00F800
01F800
019C00
039C00
039C00
030E00
070E00
070700
0E0700
0E0700
0E0380
1FFF80
1FFF80
1801C0
3801C0
3800E0
7000E0
7000E0
700070
E00070
ENDCHAR
STARTCHAR 00C2
ENCODING 194
SWIDTH 625 0
DWIDTH 20 0
BBX 20 29 0 0
BITMAP
007000
00F000
00D800
018C00
030400
000000
007000
00F000
00F000
00F800
01F800
019800
039C00
039C00
030E00
070E00
070600
060700
0E0700
0E0380
1FFF80
1FFF80
1801C0
3801C0
3800E0
7000E0
7000E0
700070
E00070
ENDCHAR
STARTCHAR 00C3
ENCODING 195
SWIDTH 625 0
DWIDTH 20 0
BBX 20 28 0 0
BITMAP
03C300
07FF00
063E00
000000
000000
007000
00F000
00F000
00F800
01F800
019800
039C00
039C00
030E00
070E00
070600
060700
0E0700
0E0380
1FFF80
1FFF80
1801C0
3801C0
3800E0
7000E0
7000E0
700070
E00070
ENDCHAR
STARTCHAR 00C4
ENCODING 196
SWIDTH 625 0
DWIDTH 20 0
BBX 20 28 0 0
BITMAP
030E00
030E00
030E00
000000
000000
007000
00F000
00F000
00F800
01F800
019800
039C00
039C00
030E00
070E00
070600
060700
0E0700
0E0380
1FFF80
1FFF80
1801C0
3801C0
3800E0
7000E0
7000E0
700070
E00070
ENDCHAR
STARTCHAR 00C5
ENCODING 197
SWIDTH 625 0
DWIDTH 20 0
BBX 20 30 0 0
BITMAP
007000
008800
008800
008800
008800
007000
000000
007000
00F000
00F000
00F800
01F800
019C00
039C00
039C00
030E00
070E00
070700
0E0700
0E0700
0E0380
1FFF80
1FFF80
1801C0
3801C0
3800E0
7000E0
7000E0
700070
E00070
ENDCHAR
STARTCHAR 00C6
ENCODING 198
SWIDTH 875 0
DWIDTH 28 0
BBX 27 23 0 0
BITMAP
003FFFC0
007FFFC0
006E0000
00EE0000
00EE0000
00CE0000
01C60000
01860000
03870000
03870000
0707FF80
0707FF80
06030000
0FFF0000
0FFF8000
1C038000
1C038000
38038000
38038000
70018000
70018000
7001FFE0
E001FFE0
ENDCHAR
STARTCHAR 00C7
ENCODING 199
SWIDTH 718 0
DWIDTH 23 0
BBX 20 31 2 -8
BITMAP
01FC00
07FF80
0F07C0
1C01E0
3800E0
700040
700000
F00000
E00000
E00000
E00000
E00000
E00000
E00000
E00000
F00000
700040
7800F0
3C01E0
1F03C0
0FFFC0
07FF00
01FC00
007000
006000
00FC00
001E00
000E00
001C00
00FC00
00E000
ENDCHAR
STARTCHAR 00C8
ENCODING 200
SWIDTH 593 0
DWIDTH 19 0
BBX 15 29 3 0
BITMAP
0E00
0600
0700
0300
0000
0000
FFFC
FFFC
E000
E000
E000
E000
E000
E000
E000
E000
FFF8
FFF8
E000
E000
E000
E000
E000
E000
E000
E000
E000
FFFE
FFFE
ENDCHAR
STARTCHAR 00C9
ENCODING 201
SWIDTH 593 0
DWIDTH 19 0
BBX 15 29 3 0
BITMAP
00E0
01C0
0180
0380
0000
0000
FFFC
FFFC
E000
E000
E000
E000
E000
E000
E000
E000
FFF8
FFF8
E000
E000
E000
E000
E000
E000
E000
E000
E000
FFFE
FFFE
ENDCHAR
STARTCHAR 00CA
ENCODING 202
SWIDTH 593 0
DWIDTH 19 0
BBX 15 29 3 0
BITMAP
0380
0780
0EC0
0C60
1820
0000
FFFC
FFFC
E000
E000
E000
E000
E000
E000
E000
E000
FFF8
FFF8
E000
E000
E000
E000
E000
E000
E000
E000
E000
FFFE
FFFE
ENDCHAR
STARTCHAR 00CB
ENCODING 203
SWIDTH 593 0
DWIDTH 19 0
BBX 15 28 3 0
BITMAP
1870
1870
1870
0000
0000
FFFC
FFFC
E000
E000
E000
E000
E000
E000
E000
E000
FFF8
FFF8
E000
E000
E000
E000
E000
E000
E000
E000
E000
FFFE
FFFE
ENDCHAR
STARTCHAR 00CC
ENCODING 204
SWIDTH 281 0
DWIDTH 9 0
BBX 5 29 1 0
BITMAP
E0
70
30
38
00
00
38
38
38
38
38
38
38
38
38
38
38
38
38
38
38
38
38
38
38
38
38
38
38
ENDCHAR
STARTCHAR 00CD
ENCODING 205
SWIDTH 281 0
DWIDTH 9 0
BBX 5 29 3 0
BITMAP
38
70
70
E0
00
00
E0
E0
E0
E0
E0
E0
E0
E0
E0
E0
E0
E0
E0
E0
E0
E0
E0
E0
E0
E0
E0
E0
E0
ENDCHAR
STARTCHAR 00CE
ENCODING 206
SWIDTH 281 0
DWIDTH 9 0
BBX 9 29 0 0
BITMAP
1C00
1E00
3600
6300
C180
0000
1C00
1C00
1C00
1C00
1C00
1C00
1C00
1C00
1C00
1C00
1C00
1C00
1C00
1C00
1C00
1C00
1C00
1C00
1C00
1C00
1C00
1C00
1C00
ENDCHAR
STARTCHAR 00CF
ENCODING 207
SWIDTH 281 0
DWIDTH 9 0
BBX 9 28 0 0
BITMAP
E380
E380
E380
0000
0000
1C00
1C00
1C00
1C00
1C00
1C00
1C00
1C00
1C00
1C00
1C00
1C00
1C00
1C00
1C00
1C00
1C00
1C00
1C00
1C00
1C00
1C00
1C00
ENDCHAR
STARTCHAR 00D0
ENCODING 208
SWIDTH 750 0
DWIDTH 24 0
BBX 21 23 1 0
BITMAP
3FF800
3FFF00
380F80
3801C0
3800E0
380070
380070
380038
380038
380038
FFC038
FFC038
380038
380038
380038
380038
380070
380070
3800E0
3801E0
380F80
3FFF00
3FF800
ENDCHAR
STARTCHAR 00D1
ENCODING 209
SWIDTH 750 0
DWIDTH 24 0
BBX 18 28 3 0
BITMAP
078600
0FFE00
0C7800
000000
000000
F001C0
F801C0
FC01C0
FC01C0
EE01C0
EE01C0
E701C0
E381C0
E381C0
E1C1C0
E0E1C0
E0E1C0
E071C0
E039C0
E038C0
E01CC0
E01CC0
E00EC0
E007C0
E007C0
E003C0
E001C0
E001C0
ENDCHAR
STARTCHAR 00D2
ENCODING 210
SWIDTH 812 0
DWIDTH 26 0
BBX 22 29 2 0
BITMAP
01C000
00E000
006000
007000
000000
000000
01FC00
07FF00
0F07C0
1C01E0
3800F0
780070
700078
F00038
E00038
E00038
E00038
E0003C
E00038
E00038
E00038
F00038
700078
780070
3800F0
1C01E0
0F07C0
07FF00
01FC00
ENDCHAR
STARTCHAR 00D3
ENCODING 211
SWIDTH 812 0
DWIDTH 26 0
BBX 22 29 2 0
BITMAP
001C00
001800
003800
003000
000000
000000
01FC00
07FF00
0F07C0
1C01E0
3800F0
780070
700078
F00038
E00038
E00038
E00038
E0003C
E00038
E00038
E00038
F00038
700078
780070
3800F0
1C01E0
0F07C0
07FF00
01FC00
ENDCHAR
STARTCHAR 00D4
ENCODING 212
SWIDTH 812 0
DWIDTH 26 0
BBX 22 29 2 0
BITMAP
007000
007800
00DC00
018C00
030600
000000
01FC00
07FF00
0F07C0
1C01E0
3800F0
780070
700078
F00038
E00038
E00038
E00038
E0003C
E00038
E00038
E00038
F00038
700078
780070
3800F0
1C01E0
0F07C0
07FF00
01FC00
ENDCHAR
STARTCHAR 00D5
ENCODING 213
SWIDTH 812 0
DWIDTH 26 0
BBX 22 28 2 0
BITMAP
01E100
03FF00
021E00
000000
000000
01FC00
07FF00
0F07C0
1C01E0
3800F0
780070
700078
F00038
E00038
E00038
E00038
E0003C
E00038
E00038
E00038
F00038
700078
780070
3800F0
1C01E0
0F07C0
07FF00
01FC00
ENDCHAR
STARTCHAR 00D6
ENCODING 214
SWIDTH 812 0
DWIDTH 26 0
BBX 22 28 2 0
BITMAP
038E00
038E00
038E00
000000
000000
01FC00
07FF00
0F07C0
1C01E0
3800F0
780070
700078
F00038
E00038
E00038
E00038
E0003C
E00038
E00038
E00038
F00038
700078
780070
3800F0
1C01E0
0F07C0
07FF00
01FC00
ENDCHAR
STARTCHAR 00D7
ENCODING 215
SWIDTH 687 0
DWIDTH 22 0
BBX 13 13 4 4
BITMAP
4008
E018
7030
3860
1CC0
0F80
0700
0780
0DC0
18E0
3070
6038
C018
ENDCHAR
STARTCHAR 00D8
ENCODING 216
SWIDTH 812 0
DWIDTH 26 0
BBX 22 23 2 0
BITMAP
01FC30
07FFE0
0F07C0
1C01E0
3801F0
780370
700638
F00E38
E00C38
E01838
E03038
E0603C
E06038
E0C038
E18038
E30038
770078
760070
3C00F0
3C01E0
3F03C0
37FF00
61FC00
ENDCHAR
STARTCHAR 00D9
ENCODING 217
SWIDTH 750 0
DWIDTH 24 0
BBX 18 29 3 0
BITMAP
070000
038000
01C000
00C000
000000
000000
E001C0
E001C0
E001C0
E001C0
E001C0
E001C0
E001C0
E001C0
E001C0
E001C0
E001C0
E001C0
E001C0
E001C0
E001C0
E001C0
E001C0
E001C0
F00380
780780
3C0F00
1FFE00
07F800
ENDCHAR
STARTCHAR 00DA
ENCODING 218
SWIDTH 750 0
DWIDTH 24 0
BBX 18 29 3 0
BITMAP
007000
007000
00E000
00C000
000000
000000
E001C0
E001C0
E001C0
E001C0
E001C0
E001C0
E001C0
E001C0
E001C0
E001C0
E001C0
E001C0
E001C0
E001C0
E001C0
E001C0
E001C0
E001C0
F00380
780780
3C0F00
1FFE00
07F800
ENDCHAR
STARTCHAR 00DB
ENCODING 219
SWIDTH 750 0
DWIDTH 24 0
BBX 18 29 3 0
BITMAP
00C000
01E000
03F000
073000
061800
000000
E001C0
E001C0
E001C0
E001C0
E001C0
E001C0
E001C0
E001C0
E001C0
E001C0
E001C0
E001C0
E001C0
E001C0
E001C0
E001C0
E001C0
E001C0
F00380
700780
3C0F00
1FFE00
07F800
ENDCHAR
STARTCHAR 00DC
ENCODING 220
SWIDTH 750 0
DWIDTH 24 0
BBX 18 28 3 0
BITMAP
0E1C00
0E1C00
0E1C00
000000
000000
E001C0
E001C0
E001C0
E001C0
E001C0
E001C0
E001C0
E001C0
E001C0
E001C0
E001C0
E001C0
E001C0
E001C0
E001C0
E001C0
E001C0
E001C0
F00380
700780
3C0F00
1FFE00
07F800
ENDCHAR
STARTCHAR 00DD
ENCODING 221
SWIDTH 625 0
DWIDTH 20 0
BBX 19 29 0 0
BITMAP
003800
003800
007000
006000
000000
000000
F000E0
7001E0
3801C0
3C0380
1C0780
0E0700
0F0E00
071E00
039C00
01F800
01F000
00F000
00E000
00E000
00E000
00E000
00E000
00E000
00E000
00E000
00E000
00E000
00E000
ENDCHAR
STARTCHAR 00DE
ENCODING 222
SWIDTH 625 0
DWIDTH 20 0
BBX 15 22 3 1
BITMAP
E000
E000
E000
E000
FFE0
FFF8
E03C
E01E
E00E
E00E
E00E
E00E
E00E
E01E
E03C
FFF8
FFE0
E000
E000
E000
E000
E000
ENDCHAR
STARTCHAR 00DF
ENCODING 223
SWIDTH 562 0
DWIDTH 18 0
BBX 13 23 3 0
BITMAP
1FC0
3FE0
70F0
E070
E070
E070
C070
C070
C0E0
C3C0
C700
C7C0
C0E0
C070
C038
C038
C038
C038
C038
C038
C070
CFE0
CFC0
ENDCHAR
STARTCHAR 00E0
ENCODING 224
SWIDTH 562 0
DWIDTH 18 0
BBX 14 23 2 0
BITMAP
1C00
0E00
0600
0300
0000
0000
0000
0FC0
3FE0
7870
6038
0038
0038
03F8
3FF8
7C38
E038
E038
E038
E078
F0F8
7FD8
1F1C
ENDCHAR
STARTCHAR 00E1
ENCODING 225
SWIDTH 562 0
DWIDTH 18 0
BBX 14 23 2 0
BITMAP
01C0
01C0
0380
0300
0000
0000
0000
0FC0
3FE0
7870
6038
0038
0038
03F8
3FF8
7C38
E038
E038
E038
E078
F0F8
7FD8
1F1C
ENDCHAR
STARTCHAR 00E2
ENCODING 226
SWIDTH 562 0
DWIDTH 18 0
BBX 14 23 2 0
BITMAP
0700
0780
0DC0
18C0
0020
0000
0000
0FC0
3FE0
7870
6038
0038
0038
03F8
3FF8
7C38
E038
E038
E038
E078
F0F8
7FD8
1F1C
ENDCHAR
STARTCHAR 00E3
ENCODING 227
SWIDTH 562 0
DWIDTH 18 0
BBX 14 23 2 0
BITMAP
1C00
3F30
33F0
21E0
0000
0000
0000
0FC0
3FE0
7870
6038
0038
0038
03F8
3FF8
7C38
E038
E038
E038
E078
F0F8
7FD8
1F1C
ENDCHAR
STARTCHAR 00E4
ENCODING 228
SWIDTH 562 0
DWIDTH 18 0
BBX 14 22 2 0
BITMAP
38E0
38E0
38E0
0000
0000
0000
0FC0
3FE0
7870
6038
0038
0038
03F8
3FF8
7C38
E038
E038
E038
E078
F0F8
7FD8
1F1C
ENDCHAR
STARTCHAR 00E5
ENCODING 229
SWIDTH 562 0
DWIDTH 18 0
BBX 14 23 2 0
BITMAP
0780
04C0
0C40
0480
0380
0000
0000
0FC0
3FE0
7870
6038
0038
0038
03F8
3FF8
7C38
E038
E038
E038
E078
F0F8
7FD8
1F1C
ENDCHAR
STARTCHAR 00E6
ENCODING 230
SWIDTH 906 0
DWIDTH 29 0
BBX 25 16 2 0
BITMAP
0FC1F000
3FE7FC00
787E0E00
603C0700
00380300
00380380
0FFFFF80
3FFFFF80
78380000
E0380000
E0380000
E03C0000
E07C0380
F0EF0700
7FC7FE00
1F01F800
ENDCHAR
STARTCHAR 00E7
ENCODING 231
SWIDTH 531 0
DWIDTH 17 0
BBX 14 23 2 -7
BITMAP
0FC0
1FF0
3838
701C
E000
E000
E000
C000
C000
E000
E000
E008
701C
783C
3FF8
0FE0
0300
0300
03C0
00E0
0060
01E0
07C0
ENDCHAR
STARTCHAR 00E8
ENCODING 232
SWIDTH 562 0
DWIDTH 18 0
BBX 15 23 2 0
BITMAP
0C00
0E00
0700
0300
0000
0000
0000
0FC0
1FF0
7878
701C
E01C
E00C
FFFC
FFFE
C000
E000
E000
E000
700C
3C3C
1FF8
07E0
ENDCHAR
STARTCHAR 00E9
ENCODING 233
SWIDTH 562 0
DWIDTH 18 0
BBX 15 23 2 0
BITMAP
00E0
01C0
0180
0300
0000
0000
0000
0FC0
1FF0
7878
701C
E01C
E00C
FFFC
FFFE
C000
E000
E000
E000
700C
3C3C
1FF8
07E0
ENDCHAR
STARTCHAR 00EA
ENCODING 234
SWIDTH 562 0
DWIDTH 18 0
BBX 15 23 2 0
BITMAP
0380
0780
0EC0
1C60
0000
0000
0000
0FC0
1FF0
7878
701C
E01C
E00C
FFFC
FFFE
C000
E000
E000
E000
700C
3C3C
1FF8
07E0
ENDCHAR
STARTCHAR 00EB
ENCODING 235
SWIDTH 562 0
DWIDTH 18 0
BBX 15 22 2 0
BITMAP
3870
3870
3870
0000
0000
0000
0FC0
1FF0
7878
701C
E01C
E00C
FFFC
FFFE
C000
E000
E000
E000
700C
3C3C
1FF8
07E0
ENDCHAR
STARTCHAR 00EC
ENCODING 236
SWIDTH 281 0
DWIDTH 9 0
BBX 5 23 1 0
BITMAP
E0
60
70
30
00
00
00
38
38
38
38
38
38
38
38
38
38
38
38
38
38
38
38
ENDCHAR
STARTCHAR 00ED
ENCODING 237
SWIDTH 281 0
DWIDTH 9 0
BBX 5 23 3 0
BITMAP
38
70
60
E0
00
00
00
E0
E0
E0
E0
E0
E0
E0
E0
E0
E0
E0
E0
E0
E0
E0
E0
ENDCHAR
STARTCHAR 00EE
ENCODING 238
SWIDTH 281 0
DWIDTH 9 0
BBX 9 23 0 0
BITMAP
1C00
3E00
7600
6300
C180
0000
0000
1C00
1C00
1C00
1C00
1C00
1C00
1C00
1C00
1C00
1C00
1C00
1C00
1C00
1C00
1C00
1C00
ENDCHAR
STARTCHAR 00EF
ENCODING 239
SWIDTH 281 0
DWIDTH 9 0
BBX 9 22 0 0
BITMAP
E380
E380
E380
0000
0000
0000
1C00
1C00
1C00
1C00
1C00
1C00
1C00
1C00
1C00
1C00
1C00
1C00
1C00
1C00
1C00
1C00
ENDCHAR
STARTCHAR 00F0
ENCODING 240
SWIDTH 593 0
DWIDTH 19 0
BBX 16 24 2 0
BITMAP
0810
1F70
07E0
07C0
1EE0
7870
2038
001C
0FCC
3FFE
783E
700E
E00E
E007
E007
C007
C007
E006
E00E
E00E
701C
3838
1FF0
07E0
ENDCHAR
STARTCHAR 00F1
ENCODING 241
SWIDTH 593 0
DWIDTH 19 0
BBX 14 23 3 0
BITMAP
1C00
3F30
33F0
01E0
0000
0000
0000
C7E0
CFF0
D878
F038
E01C
E01C
E01C
E01C
E01C
E01C
E01C
E01C
E01C
E01C
E01C
E01C
ENDCHAR
STARTCHAR 00F2
ENCODING 242
SWIDTH 593 0
DWIDTH 19 0
BBX 16 23 2 0
BITMAP
0E00
0700
0300
0180
0000
0000
0000
07E0
1FF0
383C
701C
E00E
E00E
E007
C007
C007
E007
E00E
E00E
701C
783C
3FF8
0FE0
ENDCHAR
STARTCHAR 00F3
ENCODING 243
SWIDTH 593 0
DWIDTH 19 0
BBX 16 23 2 0
BITMAP
00E0
00C0
01C0
0180
0000
0000
0000
07E0
1FF0
383C
701C
E00E
E00E
E007
C007
C007
E007
E00E
E00E
701C
783C
3FF8
0FE0
ENDCHAR
STARTCHAR 00F4
ENCODING 244
SWIDTH 593 0
DWIDTH 19 0
BBX 16 23 2 0
BITMAP
0380
07C0
06E0
0C60
0010
0000
0000
07E0
1FF0
383C
701C
E00E
E00E
E007
C007
C007
E007
E00E
E00E
701C
783C
3FF8
0FE0
ENDCHAR
STARTCHAR 00F5
ENCODING 245
SWIDTH 593 0
DWIDTH 19 0
BBX 16 23 2 0
BITMAP
0E00
1F98
19F8
10F0
0000
0000
0000
07E0
1FF0
383C
701C
E00E
E00E
E007
C007
C007
E007
E00E
E00E
701C
783C
3FF8
0FE0
ENDCHAR
STARTCHAR 00F6
ENCODING 246
SWIDTH 593 0
DWIDTH 19 0
BBX 16 22 2 0
BITMAP
1C70
1C70
1C70
0000
0000
0000
07E0
1FF0
383C
701C
E00E
E00E
E007
C007
C007
E007
E00E
E00E
701C
783C
3FF8
0FE0
ENDCHAR
STARTCHAR 00F7
ENCODING 247
SWIDTH 687 0
DWIDTH 22 0
BBX 18 16 2 2
BITMAP
01C000
01E000
01E000
01C000
000000
000000
000000
FFFFC0
FFFFC0
000000
000000
000000
01C000
01E000
01E000
00C000
ENDCHAR
STARTCHAR 00F8
ENCODING 248
SWIDTH 593 0
DWIDTH 19 0
BBX 16 17 2 -1
BITMAP
0004
07E6
1FFC
383C
703E
E07E
E066
E0C7
C187
C307
C607
EE0E
EC0E
781C
783C
7FF8
CFE0
ENDCHAR
STARTCHAR 00F9
ENCODING 249
SWIDTH 593 0
DWIDTH 19 0
BBX 13 23 3 0
BITMAP
1C00
0C00
0600
0700
0000
0000
0000
C018
C018
C018
C018
C018
C018
C018
C018
C018
C018
C038
E038
E078
F0F8
7F98
3F18
ENDCHAR
STARTCHAR 00FA
ENCODING 250
SWIDTH 593 0
DWIDTH 19 0
BBX 13 23 3 0
BITMAP
01C0
0180
0380
0700
0000
0000
0000
C018
C018
C018
C018
C018
C018
C018
C018
C018
C018
C038
E038
E078
F0F8
7F98
3F18
ENDCHAR
STARTCHAR 00FB
ENCODING 251
SWIDTH 593 0
DWIDTH 19 0
BBX 13 23 3 0
BITMAP
0700
0F80
0D80
18C0
3060
0000
0000
C018
C018
C018
C018
C018
C018
C018
C018
C018
C018
C038
E038
E078
F0F8
7F98
3F18
ENDCHAR
STARTCHAR 00FC
ENCODING 252
SWIDTH 593 0
DWIDTH 19 0
BBX 13 22 3 0
BITMAP
38E0
38E0
38E0
0000
0000
0000
C018
C018
C018
C018
C018
C018
C018
C018
C018
C018
C038
E038
E078
F0F8
7F98
3F18
ENDCHAR
STARTCHAR 00FD
ENCODING 253
SWIDTH 500 0
DWIDTH 16 0
BBX 15 29 0 -6
BITMAP
00E0
00E0
01C0
0180
0000
0000
0000
F00E
700E
700E
381C
381C
1818
1C38
1C38
0E70
0E70
0660
07E0
03C0
03C0
01C0
0180
0380
0300
0700
0F00
3E00
3C00
ENDCHAR
STARTCHAR 00FE
ENCODING 254
SWIDTH 625 0
DWIDTH 20 0
BBX 15 30 3 -6
BITMAP
E000
E000
E000
E000
E000
E000
E000
E000
E3E0
EFF8
FC3C
F01C
F00E
E00E
E00E
E006
E006
E00E
E00E
E00E
F01C
F83C
EFF8
E7E0
E000
E000
E000
E000
E000
E000
ENDCHAR
STARTCHAR 00FF
ENCODING 255
SWIDTH 500 0
DWIDTH 16 0
BBX 15 28 0 -6
BITMAP
1C70
1C70
1C70
0000
0000
0000
F00E
700E
700E
381C
381C
1818
1C38
1C38
0E70
0E70
0660
07E0
03C0
03C0
01C0
0180
0380
0300
0700
0F00
3E00
3C00
ENDCHAR
STARTCHAR 0100
ENCODING 256
SWIDTH 625 0
DWIDTH 20 0
BBX 20 28 0 0
BITMAP
03FC00
03FC00
000000
000000
000000
007000
00F000
00F000
00F800
01D800
019C00
039C00
038C00
030E00
070E00
070600
0E0700
0E0700
0E0380
1FFF80
1FFF80
3801C0
3801C0
3800E0
7000E0
7000E0
700070
E00070
ENDCHAR
STARTCHAR 0101
ENCODING 257
SWIDTH 562 0
DWIDTH 18 0
BBX 14 22 2 0
BITMAP
1FE0
1FE0
0000
0000
0000
0000
0FC0
3FE0
7870
6038
0038
0038
03F8
3FF8
7C38
E038
E038
E038
E078
F0F8
7FD8
1F1C
ENDCHAR
STARTCHAR 0102
ENCODING 258
SWIDTH 625 0
DWIDTH 20 0
BBX 20 28 0 0
BITMAP
030E00
03FC00
01F800
000000
000000
007000
00F000
00F000
00F800
01F800
019800
039C00
039C00
030E00
070E00
070600
0E0700
0E0700
0E0380
1FFF80
1FFF80
1801C0
3801C0
3800E0
7000E0
7000E0
700070
E00070
ENDCHAR
STARTCHAR 0103
ENCODING 259
SWIDTH 562 0
DWIDTH 18 0
BBX 14 22 2 0
BITMAP
1860
1FE0
0FC0
0000
0000
0000
0FC0
3FE0
7870
6038
0038
0038
03F8
3FF8
7C38
E038
E038
E038
E078
F0F8
7FD8
1F1C
ENDCHAR
STARTCHAR 0104
ENCODING 260
SWIDTH 625 0
DWIDTH 20 0
BBX 21 31 0 -8
BITMAP
007000
00F000
00F000
00F800
01F800
019800
039C00
039C00
030E00
070E00
070600
0E0700
0E0700
0E0380
1FFF80
1FFF80
1801C0
3801C0
3800E0
7000E0
7000E0
700070
E00070
000070
0000E0
000180
000380
000300
000308
0003F8
0001E0
ENDCHAR
STARTCHAR 0105
ENCODING 261
SWIDTH 562 0
DWIDTH 18 0
BBX 14 24 2 -8
BITMAP
0FC0
3FE0
7870
6038
0038
0038
03F8
3FF8
7C38
E038
E038
E038
E078
F0F8
7FD8
1F1C
0038
0070
00E0
00C0
01C0
01C4
01FC
00F8
ENDCHAR
STARTCHAR 0106
ENCODING 262
SWIDTH 718 0
DWIDTH 23 0
BBX 19 29 2 0
BITMAP
001C00
001800
003800
007000
000000
000000
01FC00
07FF80
0F07C0
1C01E0
3800E0
780040
700000
F00000
E00000
E00000
E00000
E00000
E00000
E00000
E00000
F00000
700000
780060
3800E0
1C01E0
0F07C0
07FF00
01FC00
ENDCHAR
STARTCHAR 0107
ENCODING 263
SWIDTH 531 0
DWIDTH 17 0
BBX 14 23 2 0
BITMAP
00E0
00C0
0180
0380
0000
0000
0000
0FC0
1FF0
3838
701C
E000
E000
E000
C000
C000
E000
E000
E008
701C
783C
3FF8
0FE0
ENDCHAR
STARTCHAR 0108
ENCODING 264
SWIDTH 718 0
DWIDTH 23 0
BBX 19 29 2 0
BITMAP
007000
007800
00DC00
018C00
030600
000000
01FC00
07FF80
0F07C0
1C01E0
3800E0
780040
700000
F00000
E00000
E00000
E00000
E00000
E00000
E00000
E00000
F00000
700000
780060
3800E0
1C01E0
0F07C0
07FF00
01FC00
ENDCHAR
STARTCHAR 0109
ENCODING 265
SWIDTH 531 0
DWIDTH 17 0
BBX 14 23 2 0
BITMAP
0380
07C0
06E0
0C60
0000
0000
0000
0FC0
1FF0
3838
701C
E000
E000
E000
C000
C000
E000
E000
E008
701C
783C
3FF8
0FE0
ENDCHAR
STARTCHAR 010C
ENCODING 268
SWIDTH 718 0
DWIDTH 23 0
BBX 19 29 2 0
BITMAP
018600
01CC00
00DC00
007800
007000
000000
01FC00
07FF80
0F07C0
1C01E0
3800E0
780040
700000
F00000
E00000
E00000
E00000
E00000
E00000
E00000
E00000
F00000
700000
780060
3800E0
1C01E0
0F07C0
07FF00
01FC00
ENDCHAR
STARTCHAR 010D
ENCODING 269
SWIDTH 531 0
DWIDTH 17 0
BBX 14 23 2 0
BITMAP
1830
0C60
06C0
0380
0000
0000
0000
0FC0
1FF0
3838
701C
E000
E000
E000
C000
C000
E000
E000
E008
701C
783C
3FF8
0FE0
ENDCHAR
STARTCHAR 010E
ENCODING 270
SWIDTH 750 0
DWIDTH 24 0
BBX 19 29 3 0
BITMAP
0C1800
063000
036000
03C000
01C000
000000
FFE000
FFFC00
E03E00
E00700
E00380
E001C0
E001C0
E000E0
E000E0
E000E0
E000E0
E000E0
E000E0
E000E0
E000E0
E000E0
E001C0
E001C0
E00380
E00700
E03E00
FFFC00
FFE000
ENDCHAR
STARTCHAR 010F
ENCODING 271
SWIDTH 656 0
DWIDTH 21 0
BBX 20 24 2 0
BITMAP
000E30
000E70
000E60
000E60
000E60
000EC0
000EC0
000E00
0FCE00
3FEE00
783E00
701E00
E00E00
E00E00
E00E00
C00E00
C00E00
E00E00
E00E00
E01E00
701E00
787E00
3FEE00
0F8E00
ENDCHAR
STARTCHAR 0111
ENCODING 273
SWIDTH 625 0
DWIDTH 20 0
BBX 17 24 2 0
BITMAP
000E00
000E00
000E00
01FF80
01FF80
000E00
000E00
000E00
0FCE00
3FEE00
783E00
701E00
E00E00
E00E00
E00E00
C00E00
C00E00
E00E00
E00E00
E01E00
701E00
787E00
3FEE00
0F8E00
ENDCHAR
STARTCHAR 0112
ENCODING 274
SWIDTH 593 0
DWIDTH 19 0
BBX 15 28 3 0
BITMAP
1FE0
1FE0
0000
0000
0000
FFFC
FFFC
E000
E000
E000
E000
E000
E000
E000
E000
FFF8
FFF8
E000
E000
E000
E000
E000
E000
E000
E000
E000
FFFE
FFFE
ENDCHAR
STARTCHAR 0113
ENCODING 275
SWIDTH 562 0
DWIDTH 18 0
BBX 15 22 2 0
BITMAP
1FE0
1FE0
0000
0000
0000
0000
0FC0
1FF0
7878
701C
E01C
E00C
FFFC
FFFE
C000
E000
E000
E000
700C
3C3C
1FF8
07E0
ENDCHAR
STARTCHAR 0118
ENCODING 280
SWIDTH 593 0
DWIDTH 19 0
BBX 15 31 3 -8
BITMAP
FFFC
FFFC
E000
E000
E000
E000
E000
E000
E000
E000
FFF8
FFF8
E000
E000
E000
E000
E000
E000
E000
E000
E000
FFFE
FFFE
0380
0700
0E00
1C00
1C00
1C40
1FC0
0F00
ENDCHAR
STARTCHAR 0119
ENCODING 281
SWIDTH 562 0
DWIDTH 18 0
BBX 15 23 2 -7
BITMAP
0FC0
1FF0
3878
701C
E01C
E00C
FFFC
FFFE
C000
E000
E000
E008
700C
7C3C
3FF8
0FE0
0380
0700
0E00
1C00
1C00
1FC0
0F80
ENDCHAR
STARTCHAR 011A
ENCODING 282
SWIDTH 593 0
DWIDTH 19 0
BBX 15 29 3 0
BITMAP
0830
0C60
06C0
03C0
0380
0000
FFFC
FFFC
E000
E000
E000
E000
E000
E000
E000
E000
FFF8
FFF8
E000
E000
E000
E000
E000
E000
E000
E000
E000
FFFE
FFFE
ENDCHAR
STARTCHAR 011B
ENCODING 283
SWIDTH 562 0
DWIDTH 18 0
BBX 15 23 2 0
BITMAP
1860
0CE0
07C0
0780
0000
0000
0000
0FC0
1FF0
7878
701C
E01C
E00C
FFFC
FFFE
C000
E000
E000
E000
700C
3C3C
1FF8
07E0
ENDCHAR
STARTCHAR 011C
ENCODING 284
SWIDTH 750 0
DWIDTH 24 0
BBX 20 29 2 0
BITMAP
007000
007800
00DC00
018C00
030600
000000
01FC00
07FF80
0F07C0
1C01E0
3800E0
780040
700000
700000
E00000
E00000
E00000
E00000
E00FF0
E00FF0
E00070
F00070
700070
780070
380070
3C00F0
1F03E0
07FF80
01FE00
ENDCHAR
STARTCHAR 011D
ENCODING 285
SWIDTH 562 0
DWIDTH 18 0
BBX 14 29 2 -6
BITMAP
0700
0780
0DC0
18E0
0000
0000
001C
0FFC
3FF0
7070
6038
E038
E018
E038
7038
7870
3FE0
3FC0
6000
7000
7FC0
3FF8
3FFC
F01C
E00C
E00C
F03C
7FF8
1FE0
ENDCHAR
STARTCHAR 0124
ENCODING 292
SWIDTH 750 0
DWIDTH 24 0
BBX 18 29 3 0
BITMAP
00C000
01E000
03F000
033000
061800
000000
E001C0
E001C0
E001C0
E001C0
E001C0
E001C0
E001C0
E001C0
E001C0
E001C0
FFFFC0
FFFFC0
E001C0
E001C0
E001C0
E001C0
E001C0
E001C0
E001C0
E001C0
E001C0
E001C0
E001C0
ENDCHAR
STARTCHAR 0125
ENCODING 293
SWIDTH 593 0
DWIDTH 19 0
BBX 16 29 1 0
BITMAP
3800
7C00
EE00
C600
0000
3800
3800
3800
3800
3800
3800
3800
3800
39F8
3BFC
3E0E
3C0E
3807
3807
3807
3807
3807
3807
3807
3807
3807
3807
3807
3807
ENDCHAR
STARTCHAR 0127
ENCODING 295
SWIDTH 593 0
DWIDTH 19 0
BBX 16 24 1 0
BITMAP
3800
3800
3800
FF80
FF80
3800
3800
3800
39F8
3BFC
3E0E
3C0E
3807
3807
3807
3807
3807
3807
3807
3807
3807
3807
3807
3807
ENDCHAR
STARTCHAR 012A
ENCODING 298
SWIDTH 281 0
DWIDTH 9 0
BBX 9 28 0 0
BITMAP
FF80
FF80
0000
0000
0000
1C00
1C00
1C00
1C00
1C00
1C00
1C00
1C00
1C00
1C00
1C00
1C00
1C00
1C00
1C00
1C00
1C00
1C00
1C00
1C00
1C00
1C00
1C00
ENDCHAR
STARTCHAR 012B
ENCODING 299
SWIDTH 281 0
DWIDTH 9 0
BBX 8 22 0 0
BITMAP
FF
FF
00
00
00
00
1C
1C
1C
1C
1C
1C
1C
1C
1C
1C
1C
1C
1C
1C
1C
1C
ENDCHAR
STARTCHAR 0134
ENCODING 308
SWIDTH 375 0
DWIDTH 12 0
BBX 12 29 0 0
BITMAP
0380
03C0
06C0
0C60
1830
0000
0380
0380
0380
0380
0380
0380
0380
0380
0380
0380
0380
0380
0380
0380
0380
0380
0380
0380
0380
0380
8700
FF00
FC00
ENDCHAR
STARTCHAR 0135
ENCODING 309
SWIDTH 281 0
DWIDTH 9 0
BBX 9 29 -1 -6
BITMAP
1E00
1F00
3300
7180
0000
0000
0000
0E00
0E00
0E00
0E00
0E00
0E00
0E00
0E00
0E00
0E00
0E00
0E00
0E00
0E00
0E00
0E00
0E00
0C00
1C00
7C00
F800
6000
ENDCHAR
STARTCHAR 0139
ENCODING 313
SWIDTH 531 0
DWIDTH 17 0
BBX 14 29 3 0
BITMAP
0700
0E00
1C00
1800
0000
0000
E000
E000
E000
E000
E000
E000
E000
E000
E000
E000
E000
E000
E000
E000
E000
E000
E000
E000
E000
E000
FFFC
FFFC
FFFC
ENDCHAR
STARTCHAR 013A
ENCODING 314
SWIDTH 281 0
DWIDTH 9 0
BBX 5 29 3 0
BITMAP
38
70
60
C0
00
E0
E0
E0
E0
E0
E0
E0
E0
E0
E0
E0
E0
E0
E0
E0
E0
E0
E0
E0
E0
E0
E0
E0
E0
ENDCHAR
STARTCHAR 013D
ENCODING 317
SWIDTH 531 0
DWIDTH 17 0
BBX 14 23 3 0
BITMAP
E0E0
E0C0
E0C0
E180
E180
E180
E000
E000
E000
E000
E000
E000
E000
E000
E000
E000
E000
E000
E000
E000
FFFC
FFFC
FFFC
ENDCHAR
STARTCHAR 013E
ENCODING 318
SWIDTH 281 0
DWIDTH 9 0
BBX 8 24 3 0
BITMAP
E7
E6
E6
EC
EC
EC
E0
E0
E0
E0
E0
E0
E0
E0
E0
E0
E0
E0
E0
E0
E0
E0
E0
E0
ENDCHAR
STARTCHAR 0141
ENCODING 321
SWIDTH 531 0
DWIDTH 17 0
BBX 17 23 0 0
BITMAP
1C0000
1C0000
1C0000
1C0000
1C0000
1C2000
1CE000
1DE000
1F8000
1F0000
3C0000
7C0000
FC0000
1C0000
1C0000
1C0000
1C0000
1C0000
1C0000
1C0000
1FFF80
1FFF80
1FFF80
ENDCHAR
STARTCHAR 0142
ENCODING 322
SWIDTH 281 0
DWIDTH 9 0
BBX 9 24 0 0
BITMAP
1C00
1C00
1C00
1C00
1C00
1C00
1C00
1D00
1F80
1E00
1C00
7C00
FC00
5C00
1C00
1C00
1C00
1C00
1C00
1C00
1C00
1C00
1C00
1C00
ENDCHAR
STARTCHAR 0143
ENCODING 323
SWIDTH 750 0
DWIDTH 24 0
BBX 18 29 3 0
BITMAP
003800
003000
007000
00E000
000000
000000
F001C0
F801C0
FC01C0
FC01C0
EE01C0
EE01C0
E701C0
E381C0
E381C0
E1C1C0
E0E1C0
E0E1C0
E071C0
E039C0
E038C0
E01CC0
E01CC0
E00EC0
E007C0
E007C0
E003C0
E001C0
E001C0
ENDCHAR
STARTCHAR 0144
ENCODING 324
SWIDTH 593 0
DWIDTH 19 0
BBX 14 23 3 0
BITMAP
00E0
01C0
0180
0300
0000
0000
0000
C7E0
CFF0
D878
F038
E01C
E01C
E01C
E01C
E01C
E01C
E01C
E01C
E01C
E01C
E01C
E01C
ENDCHAR
STARTCHAR 0147
ENCODING 327
SWIDTH 750 0
DWIDTH 24 0
BBX 18 29 3 0
BITMAP
060800
031800
01B000
01E000
00E000
000000
F001C0
F801C0
FC01C0
FC01C0
EE01C0
EE01C0
E701C0
E381C0
E381C0
E1C1C0
E0E1C0
E0E1C0
E071C0
E039C0
E038C0
E01CC0
E01CC0
E00EC0
E007C0
E007C0
E003C0
E001C0
E001C0
ENDCHAR
STARTCHAR 0148
ENCODING 328
SWIDTH 593 0
DWIDTH 19 0
BBX 14 23 3 0
BITMAP
1860
0CC0
0FC0
0780
0000
0000
0000
C7E0
CFF0
D878
F038
E01C
E01C
E01C
E01C
E01C
E01C
E01C
E01C
E01C
E01C
E01C
E01C
ENDCHAR
STARTCHAR 014B
ENCODING 331
SWIDTH 593 0
DWIDTH 19 0
BBX 14 22 3 -6
BITMAP
C7E0
CFF0
D878
F038
E01C
E01C
E01C
E01C
E01C
E01C
E01C
E01C
E01C
E01C
E01C
E01C
001C
0018
0038
0078
01F0
01C0
ENDCHAR
STARTCHAR 014C
ENCODING 332
SWIDTH 812 0
DWIDTH 26 0
BBX 22 28 2 0
BITMAP
03FE00
03FE00
000000
000000
000000
01FC00
07FF00
0F07C0
1C01E0
3800F0
780070
700078
F00038
E00038
E00038
E00038
E0003C
E00038
E00038
E00038
F00038
700078
780070
3800F0
1C01E0
0F07C0
07FF00
01FC00
ENDCHAR
STARTCHAR 014D
ENCODING 333
SWIDTH 593 0
DWIDTH 19 0
BBX 16 22 2 0
BITMAP
0FF0
0FF0
0000
0000
0000
0000
07E0
1FF0
383C
701C
E00E
E00E
E007
C007
C007
E007
E00E
E00E
701C
783C
3FF8
0FE0
ENDCHAR
STARTCHAR 0150
ENCODING 336
SWIDTH 812 0
DWIDTH 26 0
BBX 22 29 2 0
BITMAP
007380
006300
006600
00CE00
00CC00
000000
01FC00
07FF00
0F07C0
1C01E0
3800F0
780070
700078
F00038
E00038
E00038
E00038
E0003C
E00038
E00038
E00038
F00038
700078
780070
3800F0
1C01E0
0F07C0
07FF00
01FC00
ENDCHAR
STARTCHAR 0151
ENCODING 337
SWIDTH 593 0
DWIDTH 19 0
BBX 16 23 2 0
BITMAP
0318
0338
0670
0660
0000
0000
0000
07E0
1FF0
383C
701C
E00E
E00E
E007
C007
C007
E007
E00E
E00E
701C
783C
3FF8
0FE0
ENDCHAR
STARTCHAR 0152
ENCODING 338
SWIDTH 1000 0
DWIDTH 32 0
BBX 28 23 2 0
BITMAP
01FFFFF0
07FFFFF0
1F038000
1C038000
38038000
78038000
70038000
F0038000
E0038000
E0038000
E003FFE0
E003FFE0
E0038000
E0038000
E0038000
F0038000
70038000
78038000
38038000
1C038000
0F038000
07FFFFF0
01FFFFF0
ENDCHAR
STARTCHAR 0153
ENCODING 339
SWIDTH 968 0
DWIDTH 31 0
BBX 27 16 2 0
BITMAP
07E07E00
1FF9FF80
383FC3C0
701F01C0
E00F00E0
E00E00E0
E007FFE0
C007FFE0
C0060000
E00E0000
E00F0000
E00F0040
701F80E0
383FC1E0
1FF9FF80
07E07F00
ENDCHAR
STARTCHAR 0154
ENCODING 340
SWIDTH 656 0
DWIDTH 21 0
BBX 17 29 3 0
BITMAP
00E000
01C000
038000
030000
000000
000000
FFE000
FFF800
E03C00
E01E00
E00E00
E00E00
E00600
E00E00
E00E00
E01E00
E03C00
FFF000
FFC000
E1F000
E07000
E03800
E01C00
E01C00
E00E00
E00F00
E00700
E00780
E00380
ENDCHAR
STARTCHAR 0155
ENCODING 341
SWIDTH 375 0
DWIDTH 12 0
BBX 8 23 3 0
BITMAP
0E
0E
1C
18
00
00
00
C3
CF
DF
D8
F0
E0
E0
E0
E0
E0
E0
E0
E0
E0
E0
E0
ENDCHAR
STARTCHAR 0158
ENCODING 344
SWIDTH 656 0
DWIDTH 21 0
BBX 17 29 3 0
BITMAP
186000
0C6000
06C000
078000
038000
000000
FFE000
FFF800
E03C00
E01E00
E00E00
E00E00
E00600
E00E00
E00E00
E01E00
E03C00
FFF000
FFC000
E1F000
E07000
E03800
E01C00
E01C00
E00E00
E00F00
E00700
E00780
E00380
ENDCHAR
STARTCHAR 0159
ENCODING 345
SWIDTH 375 0
DWIDTH 12 0
BBX 9 23 2 0
BITMAP
C300
6700
3E00
3C00
0000
0000
0000
6180
6780
6F80
6C00
7800
7000
7000
7000
7000
7000
7000
7000
7000
7000
7000
7000
ENDCHAR
STARTCHAR 015A
ENCODING 346
SWIDTH 593 0
DWIDTH 19 0
BBX 15 29 2 0
BITMAP
00E0
00E0
01C0
0180
0000
0000
0FE0
1FF8
783C
701E
E008
E000
E000
F000
7800
3E00
1FC0
0FF0
01F8
007C
001E
000E
000E
000E
400E
E01E
F83C
3FF8
0FE0
ENDCHAR
STARTCHAR 015B
ENCODING 347
SWIDTH 468 0
DWIDTH 15 0
BBX 11 23 2 0
BITMAP
0380
0300
0700
0600
0000
0000
0000
1F00
7FC0
E0E0
E000
C000
E000
7800
3F00
0FC0
01E0
00E0
0060
0060
E0E0
FFC0
3F00
ENDCHAR
STARTCHAR 015C
ENCODING 348
SWIDTH 593 0
DWIDTH 19 0
BBX 15 29 2 0
BITMAP
0380
07C0
06E0
0C60
1830
0000
0FE0
1FF8
783C
701E
E008
E000
E000
F000
7800
3E00
1FC0
0FF0
01F8
007C
001E
000E
000E
000E
400E
E01E
F83C
3FF8
0FE0
ENDCHAR
STARTCHAR 015D
ENCODING 349
SWIDTH 468 0
DWIDTH 15 0
BBX 11 23 2 0
BITMAP
0E00
1F00
1B80
3180
0000
0000
0000
1F00
7FC0
E0E0
E000
C000
E000
7800
3F00
0FC0
01E0
00E0
0060
0060
E0E0
FFC0
3F00
ENDCHAR
STARTCHAR 015E
ENCODING 350
SWIDTH 593 0
DWIDTH 19 0
BBX 15 31 2 -8
BITMAP
0FE0
1FF8
783C
701E
E008
E000
E000
F000
7800
3E00
1FC0
0FF0
01F8
007C
001E
000E
000E
000E
400E
E01E
F83C
3FF8
0FE0
0000
0000
0300
0300
0300
0600
0600
0600
ENDCHAR
STARTCHAR 015F
ENCODING 351
SWIDTH 468 0
DWIDTH 15 0
BBX 11 24 2 -8
BITMAP
1F00
7FC0
E0E0
E000
C000
E000
7800
3F00
0FC0
01E0
00E0
0060
0060
E0E0
FFC0
3F00
0000
0000
1C00
1800
1800
1800
3000
3000
ENDCHAR
STARTCHAR 0160
ENCODING 352
SWIDTH 593 0
DWIDTH 19 0
BBX 15 29 2 0
BITMAP
1860
0CE0
06C0
0780
0380
0000
0FE0
1FF8
783C
701E
E008
E000
E000
F000
7800
3E00
1FC0
0FF0
01F8
007C
001E
000E
000E
000E
400E
E01E
F83C
3FF8
0FE0
ENDCHAR
STARTCHAR 0161
ENCODING 353
SWIDTH 468 0
DWIDTH 15 0
BBX 11 23 2 0
BITMAP
6180
3380
1F00
1E00
0000
0000
0000
1F00
7FC0
E0E0
E000
C000
E000
7800
3F00
0FC0
01E0
00E0
0060
0060
E0E0
FFC0
3F00
ENDCHAR
STARTCHAR 0162
ENCODING 354
SWIDTH 593 0
DWIDTH 19 0
BBX 19 30 0 -7
BITMAP
FFFFE0
FFFFE0
00E000
00E000
00E000
00E000
00E000
00E000
00E000
00E000
00E000
00E000
00E000
00E000
00E000
00E000
00E000
00E000
00E000
00E000
00E000
00E000
000000
000000
00E000
00C000
00C000
018000
018000
018000
ENDCHAR
STARTCHAR 0163
ENCODING 355
SWIDTH 343 0
DWIDTH 11 0
BBX 9 29 1 -8
BITMAP
0800
3800
3800
3800
3800
FF80
FF80
3800
3800
3800
3800
3800
3800
3800
3800
3800
3800
3800
3880
1F80
0F80
0000
0000
0E00
0C00
0C00
1800
1800
1800
ENDCHAR
STARTCHAR 0164
ENCODING 356
SWIDTH 593 0
DWIDTH 19 0
BBX 19 28 0 1
BITMAP
060C00
031800
01B000
00F000
00E000
000000
FFFFE0
FFFFE0
00E000
00E000
00E000
00E000
00E000
00E000
00E000
00E000
00E000
00E000
00E000
00E000
00E000
00E000
00E000
00E000
00E000
00E000
00E000
00E000
ENDCHAR
STARTCHAR 0165
ENCODING 357
SWIDTH 343 0
DWIDTH 11 0
BBX 11 24 1 0
BITMAP
0060
0060
00C0
08C0
38C0
3880
3800
3800
FF80
FF80
3800
3800
3800
3800
3800
3800
3800
3800
3800
3800
3800
3880
1F80
0F80
ENDCHAR
STARTCHAR 016A
ENCODING 362
SWIDTH 750 0
DWIDTH 24 0
BBX 18 28 3 0
BITMAP
07F800
07F800
000000
000000
000000
E001C0
E001C0
E001C0
E001C0
E001C0
E001C0
E001C0
E001C0
E001C0
E001C0
E001C0
E001C0
E001C0
E001C0
E001C0
E001C0
E001C0
E001C0
F00380
780780
3C0F00
1FFE00
07F800
ENDCHAR
STARTCHAR 016B
ENCODING 363
SWIDTH 593 0
DWIDTH 19 0
BBX 13 22 3 0
BITMAP
1FE0
1FE0
0000
0000
0000
0000
C018
C018
C018
C018
C018
C018
C018
C018
C018
C018
C038
E038
E078
F0F8
7F98
3F18
ENDCHAR
STARTCHAR 016C
ENCODING 364
SWIDTH 750 0
DWIDTH 24 0
BBX 18 28 3 0
BITMAP
061800
07F800
03F000
000000
000000
E001C0
E001C0
E001C0
E001C0
E001C0
E001C0
E001C0
E001C0
E001C0
E001C0
E001C0
E001C0
E001C0
E001C0
E001C0
E001C0
E001C0
E001C0
F00380
700780
3C0F00
1FFE00
07F800
ENDCHAR
STARTCHAR 016D
ENCODING 365
SWIDTH 593 0
DWIDTH 19 0
BBX 13 22 3 0
BITMAP
3860
1FC0
0F80
0000
0000
0000
C018
C018
C018
C018
C018
C018
C018
C018
C018
C018
C038
E038
E078
F0F8
7F98
3F18
ENDCHAR
STARTCHAR 016E
ENCODING 366
SWIDTH 750 0
DWIDTH 24 0
BBX 18 30 3 0
BITMAP
01C000
032000
021000
021000
032000
01E000
000000
E001C0
E001C0
E001C0
E001C0
E001C0
E001C0
E001C0
E001C0
E001C0
E001C0
E001C0
E001C0
E001C0
E001C0
E001C0
E001C0
E001C0
E001C0
F00380
700780
3C0F00
1FFE00
07F800
ENDCHAR
STARTCHAR 016F
ENCODING 367
SWIDTH 593 0
DWIDTH 19 0
BBX 13 23 3 0
BITMAP
0700
0C80
0880
0C80
0700
0000
0000
C018
C018
C018
C018
C018
C018
C018
C018
C018
C018
C038
E038
E078
F0F8
7F98
3F18
ENDCHAR
STARTCHAR 0170
ENCODING 368
SWIDTH 750 0
DWIDTH 24 0
BBX 18 29 3 0
BITMAP
00CE00
01CC00
019C00
031800
033000
000000
E001C0
E001C0
E001C0
E001C0
E001C0
E001C0
E001C0
E001C0
E001C0
E001C0
E001C0
E001C0
E001C0
E001C0
E001C0
E001C0
E001C0
E001C0
F00380
700780
3C0F00
1FFE00
07F800
ENDCHAR
STARTCHAR 0171
ENCODING 369
SWIDTH 593 0
DWIDTH 19 0
BBX 13 23 3 0
BITMAP
0738
0670
0660
0CC0
0CC0
0000
0000
C018
C018
C018
C018
C018
C018
C018
C018
C018
C018
C038
E038
E078
F0F8
7F98
3F18
ENDCHAR
STARTCHAR 0179
ENCODING 377
SWIDTH 656 0
DWIDTH 21 0
BBX 18 29 1 0
BITMAP
003800
007000
006000
00E000
000000
000000
7FFFC0
7FFFC0
000380
000700
000F00
001E00
001C00
003800
007800
00F000
00E000
01C000
03C000
078000
070000
0E0000
1E0000
3C0000
380000
700000
FFFFC0
FFFFC0
FFFFC0
ENDCHAR
STARTCHAR 017A
ENCODING 378
SWIDTH 468 0
DWIDTH 15 0
BBX 13 23 1 0
BITMAP
01C0
0180
0300
0700
0000
0000
0000
7FF8
7FF8
0070
00E0
01C0
01C0
0380
0700
0700
0E00
1C00
3800
3800
7000
FFF8
FFF8
ENDCHAR
STARTCHAR 017B
ENCODING 379
SWIDTH 656 0
DWIDTH 21 0
BBX 18 29 1 0
BITMAP
00E000
00E000
00E000
000000
000000
000000
7FFFC0
7FFFC0
000380
000700
000F00
001E00
001C00
003800
007800
00F000
00E000
01C000
03C000
078000
070000
0E0000
1E0000
3C0000
380000
700000
FFFFC0
FFFFC0
FFFFC0
ENDCHAR
STARTCHAR 017C
ENCODING 380
SWIDTH 468 0
DWIDTH 15 0
BBX 13 23 1 0
BITMAP
0700
0700
0700
0000
0000
0000
0000
7FF8
7FF8
0070
00E0
01C0
01C0
0380
0700
0700
0E00
1C00
3800
3800
7000
FFF8
FFF8
ENDCHAR
STARTCHAR 017D
ENCODING 381
SWIDTH 656 0
DWIDTH 21 0
BBX 18 29 1 0
BITMAP
061800
033800
03F000
01E000
00C000
000000
7FFFC0
7FFFC0
000380
000700
000F00
001E00
001C00
003800
007800
00F000
00E000
01C000
03C000
078000
070000
0E0000
1E0000
3C0000
380000
700000
FFFFC0
FFFFC0
FFFFC0
ENDCHAR
STARTCHAR 017E
ENCODING 382
SWIDTH 468 0
DWIDTH 15 0
BBX 13 23 1 0
BITMAP
1860
1CC0
0F80
0780
0000
0000
0000
7FF8
7FF8
0070
00E0
00E0
01C0
0380
0700
0700
0E00
1C00
3800
3800
7000
FFF8
FFF8
ENDCHAR
STARTCHAR 0193
ENCODING 403
SWIDTH 750 0
DWIDTH 24 0
BBX 23 26 2 0
BITMAP
00003E
00007E
000072
01FC70
07FF70
0F03F0
1C01F0
3800F0
780040
700000
700000
E00000
E00000
E00000
E00000
E00FF0
E00FF0
E00070
F00070
700070
780070
380070
3C00F0
1F03E0
07FF80
01FE00
ENDCHAR
STARTCHAR 01C2
ENCODING 450
SWIDTH 500 0
DWIDTH 16 0
BBX 13 23 2 0
BITMAP
0600
0600
0600
0600
0600
0600
0600
FFF8
FFF8
0600
0600
0600
FFF8
FFF8
0600
0600
0600
0600
0600
0600
0600
0600
0600
ENDCHAR
STARTCHAR 01CD
ENCODING 461
SWIDTH 625 0
DWIDTH 20 0
BBX 20 29 0 0
BITMAP
030C00
018C00
01D800
00F000
007000
000000
007000
00F000
00F000
00F800
01F800
019800
039C00
039C00
030E00
070E00
070600
0E0700
0E0700
0E0380
1FFF80
1FFF80
1801C0
3801C0
3800E0
7000E0
7000E0
700070
E00070
ENDCHAR
STARTCHAR 01CE
ENCODING 462
SWIDTH 562 0
DWIDTH 18 0
BBX 14 23 2 0
BITMAP
1860
0CC0
0FC0
0780
0000
0000
0000
0FC0
3FE0
7870
6038
0038
0038
03F8
3FF8
7C38
E038
E038
E038
E078
F0F8
7FD8
1F1C
ENDCHAR
STARTCHAR 01D0
ENCODING 464
SWIDTH 281 0
DWIDTH 9 0
BBX 8 23 0 0
BITMAP
E3
77
3E
1C
00
00
00
1C
1C
1C
1C
1C
1C
1C
1C
1C
1C
1C
1C
1C
1C
1C
1C
ENDCHAR
STARTCHAR 01D1
ENCODING 465
SWIDTH 812 0
DWIDTH 26 0
BBX 22 29 2 0
BITMAP
010600
018C00
00D800
007800
007000
000000
01FC00
07FF00
0F07C0
1C01E0
3800F0
780070
700078
F00038
E00038
E00038
E00038
E0003C
E0003C
E00038
E00038
F00038
700078
700070
3800F0
1C01E0
0F07C0
07FF00
01FC00
ENDCHAR
STARTCHAR 01D2
ENCODING 466
SWIDTH 593 0
DWIDTH 19 0
BBX 16 23 2 0
BITMAP
0C30
0E60
07C0
03C0
0000
0000
0000
07E0
1FF0
383C
701C
E00E
E00E
E007
C007
C007
E007
E00E
E00E
701C
383C
1FF8
07E0
ENDCHAR
STARTCHAR 01D4
ENCODING 468
SWIDTH 593 0
DWIDTH 19 0
BBX 13 23 3 0
BITMAP
3060
18C0
0D80
0F00
0000
0000
0000
C018
C018
C018
C018
C018
C018
C018
C018
C018
C018
C038
C038
E078
F0F8
7F98
1F18
ENDCHAR
STARTCHAR 01D6
ENCODING 470
SWIDTH 593 0
DWIDTH 19 0
BBX 13 26 3 0
BITMAP
3FE0
3FE0
0000
0000
38E0
38E0
38E0
0000
0000
0000
C018
C018
C018
C018
C018
C018
C018
C018
C018
C018
C038
C038
E078
F0F8
7FD8
3F18
ENDCHAR
STARTCHAR 01D8
ENCODING 472
SWIDTH 593 0
DWIDTH 19 0
BBX 13 28 3 0
BITMAP
01C0
0180
0380
0300
0600
0000
38E0
38E0
38E0
0000
0000
0000
C018
C018
C018
C018
C018
C018
C018
C018
C018
C018
C038
E038
E078
F0F8
7F98
3F18
ENDCHAR
STARTCHAR 01DA
ENCODING 474
SWIDTH 593 0
DWIDTH 19 0
BBX 13 28 3 0
BITMAP
3060
18C0
0D80
0F80
0700
0000
38E0
38E0
38E0
0000
0000
0000
C018
C018
C018
C018
C018
C018
C018
C018
C018
C018
C038
E038
E078
F0F8
7F98
3F18
ENDCHAR
STARTCHAR 01DC
ENCODING 476
SWIDTH 593 0
DWIDTH 19 0
BBX 13 28 3 0
BITMAP
1C00
0C00
0E00
0600
0300
0000
38E0
38E0
38E0
0000
0000
0000
C018
C018
C018
C018
C018
C018
C018
C018
C018
C018
C038
E038
E078
F0F8
7F98
3F18
ENDCHAR
STARTCHAR 01F8
ENCODING 504
SWIDTH 750 0
DWIDTH 24 0
BBX 18 29 3 0
BITMAP
038000
038000
01C000
00C000
000000
000000
F001C0
F801C0
FC01C0
FC01C0
EE01C0
EE01C0
E701C0
E381C0
E381C0
E1C1C0
E0E1C0
E0E1C0
E071C0
E039C0
E038C0
E01CC0
E01CC0
E00EC0
E007C0
E007C0
E003C0
E001C0
E001C0
ENDCHAR
STARTCHAR 01F9
ENCODING 505
SWIDTH 593 0
DWIDTH 19 0
BBX 14 23 3 0
BITMAP
1C00
0C00
0E00
0600
0000
0000
0000
C7E0
CFF0
D878
F038
E01C
E01C
E01C
E01C
E01C
E01C
E01C
E01C
E01C
E01C
E01C
E01C
ENDCHAR
STARTCHAR 01FD
ENCODING 509
SWIDTH 906 0
DWIDTH 29 0
BBX 25 23 2 0
BITMAP
00070000
00060000
000E0000
000C0000
00000000
00000000
00000000
0FC1F000
3FE7FC00
787E0E00
603C0700
00380300
00380380
0FFFFF80
3FFFFF80
78380000
E0380000
E0380000
E03C0000
E07C0380
F0EF0700
7FC7FE00
1F01F800
ENDCHAR
STARTCHAR 0250
ENCODING 592
SWIDTH 562 0
DWIDTH 18 0
BBX 14 16 2 0
BITMAP
C3E0
EFF0
FC38
701C
701C
601C
6038
60F8
7FE0
7E00
6000
6000
7038
7070
3FE0
0FC0
ENDCHAR
STARTCHAR 0251
ENCODING 593
SWIDTH 625 0
DWIDTH 20 0
BBX 16 16 2 0
BITMAP
0FC6
3FF6
783E
701E
E00E
E00E
E00E
C00E
C00E
E00E
E00E
E01E
701E
7876
3FE6
0FC7
ENDCHAR
STARTCHAR 0252
ENCODING 594
SWIDTH 625 0
DWIDTH 20 0
BBX 16 16 2 0
BITMAP
E3F0
67FC
6E1E
780E
7007
7007
7007
7007
7007
7007
7007
7007
780E
7C1E
6FFC
63F0
ENDCHAR
STARTCHAR 0253
ENCODING 595
SWIDTH 625 0
DWIDTH 20 0
BBX 15 23 3 0
BITMAP
0FC0
3FF0
7878
7018
E000
E000
E000
E7E0
EFF8
F83C
F01C
E00E
E00E
E00E
E00E
E00E
E00E
E00E
E00E
F01C
F83C
DFF8
C7E0
ENDCHAR
STARTCHAR 0254
ENCODING 596
SWIDTH 531 0
DWIDTH 17 0
BBX 15 16 1 0
BITMAP
0FC0
3FF0
7878
E03C
201C
000C
000E
000E
000E
000E
000C
201C
E03C
7078
3FF0
0FC0
ENDCHAR
STARTCHAR 0255
ENCODING 597
SWIDTH 562 0
DWIDTH 18 0
BBX 15 19 2 -3
BITMAP
0FC0
1FF0
3838
701C
E000
E000
E000
C000
C000
C07C
E0FE
E1C6
7386
7B0E
3FFC
0FF0
0E00
0C00
0C00
ENDCHAR
STARTCHAR 0256
ENCODING 598
SWIDTH 625 0
DWIDTH 20 0
BBX 20 30 2 -6
BITMAP
000E00
000E00
000E00
000E00
000E00
000E00
000E00
000E00
0FCE00
3FEE00
787E00
701E00
E00E00
E00E00
E00E00
C00E00
C00E00
E00E00
E00E00
E01E00
701E00
787E00
3FEE00
0FCE00
000E00
000E00
000E00
000620
0007F0
0003C0
ENDCHAR
STARTCHAR 0257
ENCODING 599
SWIDTH 625 0
DWIDTH 20 0
BBX 19 24 2 0
BITMAP
0003C0
0007E0
000E00
000E00
000E00
000E00
000E00
000E00
0FCE00
3FEE00
783E00
701E00
E00E00
E00E00
E00E00
C00E00
C00E00
E00E00
E00E00
E00E00
701E00
787E00
3FEE00
0F8E00
ENDCHAR
STARTCHAR 0258
ENCODING 600
SWIDTH 562 0
DWIDTH 18 0
BBX 15 16 2 0
BITMAP
0FC0
3FF0
7878
E038
E01C
E00C
FFFC
FFFE
000E
000C
001C
401C
C038
F078
7FE0
1FC0
ENDCHAR
STARTCHAR 0259
ENCODING 601
SWIDTH 562 0
DWIDTH 18 0
BBX 14 16 2 0
BITMAP
1FC0
7FF0
F078
4038
001C
000C
000C
FFFC
FFFC
C01C
E01C
E01C
7038
7878
3FF0
0FC0
ENDCHAR
STARTCHAR 025A
ENCODING 602
SWIDTH 812 0
DWIDTH 26 0
BBX 24 16 2 0
BITMAP
0FC000
3FF000
787840
601DE0
E00FE0
C01E70
C03F30
00F73B
03C71E
07870C
1E0700
780600
380E00
1E1C00
0FF800
03E000
ENDCHAR
STARTCHAR 025C
ENCODING 604
SWIDTH 500 0
DWIDTH 16 0
BBX 13 16 1 0
BITMAP
7FC0
7FF0
4070
0038
0038
0070
1FE0
1F80
1FF0
0038
0038
0018
0038
C078
FFF0
7FC0
ENDCHAR
STARTCHAR 025E
ENCODING 606
SWIDTH 593 0
DWIDTH 19 0
BBX 15 16 2 0
BITMAP
07F0
1FF8
3C1C
700C
E00E
E01C
C1F8
C3E0
C3FC
C00E
E00E
E00E
700E
381E
1FFC
07F0
ENDCHAR
STARTCHAR 025F
ENCODING 607
SWIDTH 281 0
DWIDTH 9 0
BBX 9 22 -1 -6
BITMAP
0E00
0E00
0E00
0E00
0E00
0E00
0E00
0E00
0E00
0E00
0E00
0E00
0E00
0E00
7F80
7F80
0E00
0C00
1C00
7C00
F800
6000
ENDCHAR
STARTCHAR 0260
ENCODING 608
SWIDTH 625 0
DWIDTH 20 0
BBX 19 30 2 -6
BITMAP
0003C0
0007E0
000E00
000E00
000E00
000E00
000E00
000E00
0FCE00
3FFE00
783E00
701E00
E00E00
E00E00
E00E00
C00E00
C00E00
E00E00
E00E00
E00E00
701E00
783E00
3FEE00
0FCE00
000E00
000E00
E01C00
783C00
3FF800
0FE000
ENDCHAR
STARTCHAR 0261
ENCODING 609
SWIDTH 625 0
DWIDTH 20 0
BBX 15 22 2 -6
BITMAP
0FC6
3FF6
783E
701E
E00E
E00E
E00E
C00E
C00E
E00E
E00E
E00E
701E
783E
3FEE
0FCE
000E
000E
E01C
783C
3FF8
0FE0
ENDCHAR
STARTCHAR 0264
ENCODING 612
SWIDTH 593 0
DWIDTH 19 0
BBX 18 16 0 0
BITMAP
F003C0
7C0FC0
0F1E40
07B800
03F000
01E000
01F000
03B800
073800
071C00
061C00
061C00
061C00
071C00
03F800
01F000
ENDCHAR
STARTCHAR 0265
ENCODING 613
SWIDTH 593 0
DWIDTH 19 0
BBX 13 22 3 -6
BITMAP
C018
C018
C018
C018
C018
C018
C018
C018
C018
C018
C038
E038
E078
F0F8
7F98
3F18
0018
0018
0018
0018
0018
0018
ENDCHAR
STARTCHAR 0266
ENCODING 614
SWIDTH 593 0
DWIDTH 19 0
BBX 14 23 3 0
BITMAP
0FC0
3FF0
7878
7018
E000
E000
E000
E7E0
EFF0
F838
F038
E01C
E01C
E01C
E01C
E01C
E01C
E01C
E01C
E01C
E01C
E01C
E01C
ENDCHAR
STARTCHAR 0267
ENCODING 615
SWIDTH 593 0
DWIDTH 19 0
BBX 14 29 3 -6
BITMAP
0FC0
3FF0
7878
7018
E000
E000
E000
E7E0
EFF0
F838
F038
E01C
E01C
E01C
E01C
E01C
E01C
E01C
E01C
E01C
E01C
E01C
E01C
001C
001C
0038
00F8
03F0
01C0
ENDCHAR
STARTCHAR 0268
ENCODING 616
SWIDTH 281 0
DWIDTH 9 0
BBX 8 22 1 1
BITMAP
38
38
38
00
00
00
38
38
38
38
38
38
FF
FF
38
38
38
38
38
38
38
38
ENDCHAR
STARTCHAR 026C
ENCODING 620
SWIDTH 343 0
DWIDTH 11 0
BBX 11 24 -1 0
BITMAP
0380
0380
0380
0380
0380
0380
3B80
7F80
C780
C380
6380
7F80
1FE0
03A0
0380
0380
0380
0380
0380
0380
0380
0380
0380
0380
ENDCHAR
STARTCHAR 026D
ENCODING 621
SWIDTH 312 0
DWIDTH 10 0
BBX 7 30 3 -6
BITMAP
E0
E0
E0
E0
E0
E0
E0
E0
E0
E0
E0
E0
E0
E0
E0
E0
E0
E0
E0
E0
E0
E0
E0
E0
E0
E0
E0
E4
7E
38
ENDCHAR
STARTCHAR 026E
ENCODING 622
SWIDTH 656 0
DWIDTH 21 0
BBX 16 30 3 -6
BITMAP
E000
E000
E000
E000
E000
E000
E000
E000
FFFE
FFFE
E01E
E03C
E070
E0E0
E1C0
E380
E7F8
EFFC
E61E
E00E
E007
E007
E007
E007
0007
1806
380E
1E1C
0FFC
03F0
ENDCHAR
STARTCHAR 026F
ENCODING 623
SWIDTH 875 0
DWIDTH 28 0
BBX 22 16 3 0
BITMAP
E0301C
E0301C
E0301C
E0301C
E0301C
E0301C
E0301C
E0301C
E0301C
E0301C
E0701C
E0701C
E0F83C
F1FC7C
7F9FFC
1E0F9C
ENDCHAR
STARTCHAR 0270
ENCODING 624
SWIDTH 875 0
DWIDTH 28 0
BBX 22 22 3 -6
BITMAP
E0301C
E0301C
E0301C
E0301C
E0301C
E0301C
E0301C
E0301C
E0301C
E0301C
E0301C
E0701C
E0783C
71FC6C
7F9FEC
1F0F8C
00000C
00000C
00000C
00000C
00000C
00000C
ENDCHAR
STARTCHAR 0271
ENCODING 625
SWIDTH 875 0
DWIDTH 28 0
BBX 22 22 3 -6
BITMAP
C7C3E0
DFE7F8
F8FE38
F0781C
E0781C
E0301C
E0301C
E0301C
E0301C
E0301C
E0301C
E0301C
E0301C
E0301C
E0301C
E0301C
00001C
00001C
00003C
000078
0001F0
0001E0
ENDCHAR
STARTCHAR 0272
ENCODING 626
SWIDTH 593 0
DWIDTH 19 0
BBX 19 22 -2 -6
BITMAP
063F00
067F80
06C3C0
0781C0
0700E0
0700E0
0700E0
0700E0
0700E0
0700E0
0700E0
0700E0
0700E0
0700E0
0700E0
0700E0
070000
060000
0E0000
3E0000
FC0000
700000
ENDCHAR
STARTCHAR 0273
ENCODING 627
SWIDTH 593 0
DWIDTH 19 0
BBX 18 22 3 -6
BITMAP
C7E000
CFF000
D87800
F03800
E01C00
E01C00
E01C00
E01C00
E01C00
E01C00
E01C00
E01C00
E01C00
E01C00
E01C00
E01C00
001C00
001C00
001C00
001C40
000FC0
000780
ENDCHAR
STARTCHAR 0275
ENCODING 629
SWIDTH 593 0
DWIDTH 19 0
BBX 16 16 2 0
BITMAP
0FE0
3FF0
783C
701C
E00E
E00E
E007
FFFF
FFFF
E007
E00E
E00E
701C
383C
1FF8
07E0
ENDCHAR
STARTCHAR 0279
ENCODING 633
SWIDTH 375 0
DWIDTH 12 0
BBX 9 16 0 0
BITMAP
0380
0380
0380
0380
0380
0380
0380
0380
0380
0380
0780
0F80
1F80
7B80
F380
E380
ENDCHAR
STARTCHAR 027A
ENCODING 634
SWIDTH 375 0
DWIDTH 12 0
BBX 9 22 0 0
BITMAP
0380
0380
0380
0380
0380
0380
0380
0380
0380
0380
0380
0380
0380
0380
0380
0380
0780
0F80
1F80
7B80
F380
E380
ENDCHAR
STARTCHAR 027B
ENCODING 635
SWIDTH 406 0
DWIDTH 13 0
BBX 13 22 0 -6
BITMAP
0380
0380
0380
0380
0380
0380
0380
0380
0380
0380
0780
0F80
1F80
7B80
F380
E380
0380
0380
0380
0390
01F8
00F0
ENDCHAR
STARTCHAR 027D
ENCODING 637
SWIDTH 375 0
DWIDTH 12 0
BBX 8 22 3 -6
BITMAP
C3
CF
DF
D8
F0
E0
E0
E0
E0
E0
E0
E0
E0
E0
E0
E0
E0
E0
E0
E2
7E
3C
ENDCHAR
STARTCHAR 027E
ENCODING 638
SWIDTH 375 0
DWIDTH 12 0
BBX 8 16 3 0
BITMAP
1F
7F
F0
E0
E0
E0
E0
E0
E0
E0
E0
E0
E0
E0
E0
E0
ENDCHAR
STARTCHAR 0281
ENCODING 641
SWIDTH 531 0
DWIDTH 17 0
BBX 13 16 3 0
BITMAP
E038
E038
E070
E070
E0E0
E1C0
E780
FF80
FFE0
E0E0
E070
E070
E070
E1F0
FFE0
FF80
ENDCHAR
STARTCHAR 0282
ENCODING 642
SWIDTH 468 0
DWIDTH 15 0
BBX 12 22 1 -6
BITMAP
0F80
3FE0
7070
7000
6000
7000
3C00
1F80
07E0
00F0
0070
0030
E030
F070
FFE0
FF80
E000
E000
E000
6600
7E00
3C00
ENDCHAR
STARTCHAR 0283
ENCODING 643
SWIDTH 312 0
DWIDTH 10 0
BBX 9 31 0 -8
BITMAP
0380
0780
0E00
1C00
1C00
1C00
1C00
1C00
1C00
1C00
1C00
1C00
1C00
1C00
1C00
1C00
1C00
1C00
1C00
1C00
1C00
1C00
1C00
1C00
1C00
1C00
1C00
1C00
1C00
F800
F000
ENDCHAR
STARTCHAR 0284
ENCODING 644
SWIDTH 312 0
DWIDTH 10 0
BBX 13 30 -1 -6
BITMAP
01F0
03F8
0700
0E00
0E00
0E00
0E00
0E00
0E00
0E00
0E00
0E00
0E00
0E00
0E00
0E00
0E00
0E00
0E00
0E00
0E00
0E00
7FE0
7FE0
0E00
0E00
1C00
3C00
F800
7000
ENDCHAR
STARTCHAR 0288
ENCODING 648
SWIDTH 343 0
DWIDTH 11 0
BBX 10 27 1 -6
BITMAP
0800
3800
3800
3800
3800
FF80
FF80
3800
3800
3800
3800
3800
3800
3800
3800
3800
3800
3800
3800
3800
3800
3800
3800
3800
3880
1FC0
0F00
ENDCHAR
STARTCHAR 0289
ENCODING 649
SWIDTH 593 0
DWIDTH 19 0
BBX 18 16 1 0
BITMAP
300600
300600
300600
300600
300600
300600
FFFFC0
FFFFC0
300600
300600
300E00
300E00
381E00
3C3E00
1FF600
0FC600
ENDCHAR
STARTCHAR 028A
ENCODING 650
SWIDTH 593 0
DWIDTH 19 0
BBX 17 16 1 0
BITMAP
FE3F80
FE3F80
0E3800
1C1C00
380E00
380600
700700
700700
700700
700700
700700
380700
380E00
1E1C00
0FF800
03E000
ENDCHAR
STARTCHAR 028B
ENCODING 651
SWIDTH 593 0
DWIDTH 19 0
BBX 13 16 3 0
BITMAP
C0C0
C1F0
C078
C038
C038
C018
C018
C018
C018
C038
C038
E038
E070
F0E0
7FC0
1F00
ENDCHAR
STARTCHAR 028C
ENCODING 652
SWIDTH 500 0
DWIDTH 16 0
BBX 15 16 0 0
BITMAP
0180
0380
03C0
07C0
06E0
0EE0
0E70
0C70
1C30
1838
3838
381C
301C
701C
700E
E00E
ENDCHAR
STARTCHAR 028D
ENCODING 653
SWIDTH 750 0
DWIDTH 24 0
BBX 24 16 0 0
BITMAP
0300E0
0700E0
0781E0
0F81F0
0D81F0
0DC3B0
1CC338
1CC338
18E718
38661C
38661C
307E0C
703C0E
703C0E
603C06
E01807
ENDCHAR
STARTCHAR 028E
ENCODING 654
SWIDTH 500 0
DWIDTH 16 0
BBX 15 22 0 0
BITMAP
003C
007C
00F0
00E0
01C0
01C0
0180
0380
03C0
07C0
06E0
06E0
0E60
0C70
1C30
1C38
3838
381C
301C
700E
700E
E00E
ENDCHAR
STARTCHAR 0290
ENCODING 656
SWIDTH 468 0
DWIDTH 15 0
BBX 17 22 1 -6
BITMAP
7FF800
7FF800
007000
00E000
01C000
01C000
038000
070000
070000
0E0000
1C0000
380000
380000
700000
FFF000
FFF000
003000
003000
003800
003900
001F80
000E00
ENDCHAR
STARTCHAR 0291
ENCODING 657
SWIDTH 500 0
DWIDTH 16 0
BBX 15 19 1 -3
BITMAP
7FF8
7FF8
0070
00E0
01C0
01C0
0380
0700
0E00
0C3C
1CFE
39C6
7182
6306
FFFE
FFF8
0E00
0C00
0C00
ENDCHAR
STARTCHAR 0292
ENCODING 658
SWIDTH 500 0
DWIDTH 16 0
BBX 14 22 1 -6
BITMAP
7FF8
7FF8
0070
00E0
01C0
0380
0700
0E00
1FC0
3FF0
3078
0038
0018
001C
001C
001C
0018
4018
E038
7070
3FE0
0F80
ENDCHAR
STARTCHAR 0294
ENCODING 660
SWIDTH 468 0
DWIDTH 15 0
BBX 13 23 1 0
BITMAP
1FC0
3FE0
7070
E038
C038
0018
0018
0038
0038
00F0
07E0
0780
0700
0700
0700
0700
0700
0700
0700
0700
0700
0700
0700
ENDCHAR
STARTCHAR 0295
ENCODING 661
SWIDTH 468 0
DWIDTH 15 0
BBX 14 23 1 0
BITMAP
0FC0
3FF0
7878
701C
E018
E000
E000
E000
7000
7C00
3F00
0700
0700
0700
0700
0700
0700
0700
0700
0700
0700
0700
0700
ENDCHAR
STARTCHAR 0298
ENCODING 664
SWIDTH 625 0
DWIDTH 20 0
BBX 16 16 2 0
BITMAP
07E0
1FF8
381C
700E
E007
C003
C3C3
87C1
87E1
C3C3
C1C3
E007
700E
381C
1FF8
07E0
ENDCHAR
STARTCHAR 029D
ENCODING 669
SWIDTH 375 0
DWIDTH 12 0
BBX 13 29 -1 -6
BITMAP
03C0
03C0
03C0
0000
0000
0000
0180
0180
0180
0180
0180
0180
0180
0180
0180
0180
0180
0180
0180
0180
0180
0180
0180
7F80
FFE0
C3F8
C380
7F80
3E00
ENDCHAR
STARTCHAR 02A1
ENCODING 673
SWIDTH 468 0
DWIDTH 15 0
BBX 13 23 1 0
BITMAP
1FC0
3FE0
7070
E038
C038
0018
0018
0038
0038
00F0
07E0
0780
0700
1FE0
1FE0
0700
0700
0700
0700
0700
0700
0700
0700
ENDCHAR
STARTCHAR 02A2
ENCODING 674
SWIDTH 468 0
DWIDTH 15 0
BBX 14 23 1 0
BITMAP
0FC0
3FF0
7878
701C
E018
E000
E000
E000
7000
7C00
3F00
0700
0700
1FE0
1FE0
0700
0700
0700
0700
0700
0700
0700
0700
ENDCHAR
STARTCHAR 02BB
ENCODING 699
SWIDTH 1000 0
DWIDTH 32 0
BBX 4 9 26 18
BITMAP
30
60
60
C0
C0
F0
F0
F0
F0
ENDCHAR
STARTCHAR 02BC
ENCODING 700
SWIDTH 1000 0
DWIDTH 32 0
BBX 5 9 2 18
BITMAP
F8
F8
F8
F0
30
30
60
60
C0
ENDCHAR
STARTCHAR 02C6
ENCODING 710
SWIDTH 500 0
DWIDTH 16 0
BBX 8 4 4 19
BITMAP
3C
3C
66
C3
ENDCHAR
STARTCHAR 02C7
ENCODING 711
SWIDTH 500 0
DWIDTH 16 0
BBX 8 4 4 19
BITMAP
C3
66
3E
3C
ENDCHAR
STARTCHAR 02C8
ENCODING 712
SWIDTH 187 0
DWIDTH 6 0
BBX 2 12 2 12
BITMAP
C0
C0
C0
C0
C0
C0
C0
C0
C0
C0
C0
C0
ENDCHAR
STARTCHAR 02CC
ENCODING 716
SWIDTH 187 0
DWIDTH 6 0
BBX 2 12 2 -5
BITMAP
C0
C0
C0
C0
C0
C0
C0
C0
C0
C0
C0
C0
ENDCHAR
STARTCHAR 02D0
ENCODING 720
SWIDTH 312 0
DWIDTH 10 0
BBX 4 16 3 0
BITMAP
F0
F0
60
40
00
00
00
00
00
00
00
00
40
60
F0
F0
ENDCHAR
STARTCHAR 02D1
ENCODING 721
SWIDTH 312 0
DWIDTH 10 0
BBX 4 4 3 11
BITMAP
F0
F0
60
40
ENDCHAR
STARTCHAR 02D8
ENCODING 728
SWIDTH 500 0
DWIDTH 16 0
BBX 8 4 4 19
BITMAP
81
C3
FF
7E
ENDCHAR
STARTCHAR 02D9
ENCODING 729
SWIDTH 500 0
DWIDTH 16 0
BBX 4 3 6 20
BITMAP
F0
F0
F0
ENDCHAR
STARTCHAR 02DB
ENCODING 731
SWIDTH 500 0
DWIDTH 16 0
BBX 7 7 5 -7
BITMAP
3C
70
E0
C0
E0
FE
7C
ENDCHAR
STARTCHAR 02DC
ENCODING 732
SWIDTH 500 0
DWIDTH 16 0
BBX 11 4 3 19
BITMAP
7000
FC60
CFC0
0380
ENDCHAR
STARTCHAR 02DD
ENCODING 733
SWIDTH 500 0
DWIDTH 16 0
BBX 9 4 5 19
BITMAP
7380
6700
E600
CC00
ENDCHAR
STARTCHAR 02DE
ENCODING 734
SWIDTH 500 0
DWIDTH 16 0
BBX 8 8 5 0
BITMAP
F8
F8
38
30
31
3B
3E
1C
ENDCHAR
STARTCHAR 02E5
ENCODING 741
SWIDTH 500 0
DWIDTH 16 0
BBX 7 23 2 1
BITMAP
FE
FE
06
06
06
06
06
06
06
06
06
06
06
06
06
06
06
06
06
06
06
06
06
ENDCHAR
STARTCHAR 02E6
ENCODING 742
SWIDTH 500 0
DWIDTH 16 0
BBX 7 23 2 0
BITMAP
06
06
06
06
06
FE
FE
06
06
06
06
06
06
06
06
06
06
06
06
06
06
06
06
ENDCHAR
STARTCHAR 02E7
ENCODING 743
SWIDTH 500 0
DWIDTH 16 0
BBX 7 24 2 0
BITMAP
06
06
06
06
06
06
06
06
06
06
06
FE
FE
06
06
06
06
06
06
06
06
06
06
06
ENDCHAR
STARTCHAR 02E8
ENCODING 744
SWIDTH 500 0
DWIDTH 16 0
BBX 7 23 2 1
BITMAP
06
06
06
06
06
06
06
06
06
06
06
06
06
06
06
06
FE
FE
06
06
06
06
06
ENDCHAR
STARTCHAR 02E9
ENCODING 745
SWIDTH 500 0
DWIDTH 16 0
BBX 7 23 2 0
BITMAP
06
06
06
06
06
06
06
06
06
06
06
06
06
06
06
06
06
06
06
06
06
FE
FE
ENDCHAR
STARTCHAR 0300
ENCODING 768
SWIDTH 500 0
DWIDTH 16 0
BBX 4 4 5 19
BITMAP
E0
60
70
30
ENDCHAR
STARTCHAR 0301
ENCODING 769
SWIDTH 500 0
DWIDTH 16 0
BBX 4 4 7 19
BITMAP
70
70
E0
C0
ENDCHAR
STARTCHAR 0302
ENCODING 770
SWIDTH 500 0
DWIDTH 16 0
BBX 8 4 4 19
BITMAP
3C
3C
66
C3
ENDCHAR
STARTCHAR 0303
ENCODING 771
SWIDTH 500 0
DWIDTH 16 0
BBX 11 4 3 19
BITMAP
7000
FC60
CFC0
0380
ENDCHAR
STARTCHAR 0304
ENCODING 772
SWIDTH 500 0
DWIDTH 16 0
BBX 8 2 4 20
BITMAP
FF
FF
ENDCHAR
STARTCHAR 0305
ENCODING 773
SWIDTH 500 0
DWIDTH 16 0
BBX 8 2 4 20
BITMAP
FF
FF
ENDCHAR
STARTCHAR 0306
ENCODING 774
SWIDTH 500 0
DWIDTH 16 0
BBX 8 4 4 19
BITMAP
81
C3
FF
7E
ENDCHAR
STARTCHAR 0308
ENCODING 776
SWIDTH 500 0
DWIDTH 16 0
BBX 10 3 3 20
BITMAP
E1C0
E1C0
E1C0
ENDCHAR
STARTCHAR 030B
ENCODING 779
SWIDTH 500 0
DWIDTH 16 0
BBX 9 4 5 19
BITMAP
7380
6700
E600
CC00
ENDCHAR
STARTCHAR 030C
ENCODING 780
SWIDTH 500 0
DWIDTH 16 0
BBX 8 4 4 19
BITMAP
C3
66
3E
3C
ENDCHAR
STARTCHAR 030F
ENCODING 783
SWIDTH 500 0
DWIDTH 16 0
BBX 9 4 2 19
BITMAP
E700
7300
3380
1980
ENDCHAR
STARTCHAR 0318
ENCODING 792
SWIDTH 500 0
DWIDTH 16 0
BBX 5 8 5 -9
BITMAP
18
18
18
F8
F8
18
18
18
ENDCHAR
STARTCHAR 0319
ENCODING 793
SWIDTH 500 0
DWIDTH 16 0
BBX 5 8 6 -9
BITMAP
C0
C0
C0
F8
F8
C0
C0
C0
ENDCHAR
STARTCHAR 031A
ENCODING 794
SWIDTH 500 0
DWIDTH 16 0
BBX 7 9 2 14
BITMAP
FE
FE
06
06
06
06
06
06
06
ENDCHAR
STARTCHAR 031C
ENCODING 796
SWIDTH 500 0
DWIDTH 16 0
BBX 4 7 6 -8
BITMAP
30
70
C0
80
80
C0
70
ENDCHAR
STARTCHAR 031D
ENCODING 797
SWIDTH 500 0
DWIDTH 16 0
BBX 8 5 4 -6
BITMAP
18
18
18
FF
FF
ENDCHAR
STARTCHAR 031E
ENCODING 798
SWIDTH 500 0
DWIDTH 16 0
BBX 8 5 4 -7
BITMAP
FF
FF
18
18
18
ENDCHAR
STARTCHAR 031F
ENCODING 799
SWIDTH 500 0
DWIDTH 16 0
BBX 8 8 4 -9
BITMAP
18
18
18
FF
FF
18
18
18
ENDCHAR
STARTCHAR 0320
ENCODING 800
SWIDTH 500 0
DWIDTH 16 0
BBX 8 2 4 -4
BITMAP
FF
FF
ENDCHAR
STARTCHAR 0324
ENCODING 804
SWIDTH 500 0
DWIDTH 16 0
BBX 10 3 3 -5
BITMAP
E1C0
E1C0
E1C0
ENDCHAR
STARTCHAR 0325
ENCODING 805
SWIDTH 500 0
DWIDTH 16 0
BBX 6 5 5 -6
BITMAP
78
48
84
48
78
ENDCHAR
STARTCHAR 0327
ENCODING 807
SWIDTH 500 0
DWIDTH 16 0
BBX 6 7 5 -7
BITMAP
30
70
7C
0C
0C
FC
F8
ENDCHAR
STARTCHAR 0329
ENCODING 809
SWIDTH 500 0
DWIDTH 16 0
BBX 2 8 7 -9
BITMAP
C0
C0
C0
C0
C0
C0
C0
C0
ENDCHAR
STARTCHAR 032A
ENCODING 810
SWIDTH 500 0
DWIDTH 16 0
BBX 8 5 4 -7
BITMAP
FF
FF
C3
C3
C3
ENDCHAR
STARTCHAR 032C
ENCODING 812
SWIDTH 500 0
DWIDTH 16 0
BBX 8 4 4 -5
BITMAP
C3
66
7E
3C
ENDCHAR
STARTCHAR 032F
ENCODING 815
SWIDTH 500 0
DWIDTH 16 0
BBX 8 3 4 -5
BITMAP
7E
FF
C3
ENDCHAR
STARTCHAR 0330
ENCODING 816
SWIDTH 500 0
DWIDTH 16 0
BBX 11 4 3 -5
BITMAP
7000
FCE0
CFC0
0380
ENDCHAR
STARTCHAR 0332
ENCODING 818
SWIDTH 500 0
DWIDTH 16 0
BBX 16 2 0 -4
BITMAP
FFFF
FFFF
ENDCHAR
STARTCHAR 0334
ENCODING 820
SWIDTH 500 0
DWIDTH 16 0
BBX 10 3 3 8
BITMAP
7840
FFC0
C780
ENDCHAR
STARTCHAR 0336
ENCODING 822
SWIDTH 968 0
DWIDTH 31 0
BBX 27 2 2 11
BITMAP
FFFFFFE0
FFFFFFE0
ENDCHAR
STARTCHAR 0339
ENCODING 825
SWIDTH 500 0
DWIDTH 16 0
BBX 4 7 6 -8
BITMAP
C0
E0
30
10
10
30
E0
ENDCHAR
STARTCHAR 033A
ENCODING 826
SWIDTH 500 0
DWIDTH 16 0
BBX 8 5 4 -7
BITMAP
C3
C3
C3
FF
FF
ENDCHAR
STARTCHAR 033B
ENCODING 827
SWIDTH 500 0
DWIDTH 16 0
BBX 8 5 4 -7
BITMAP
FF
FF
C3
FF
FF
ENDCHAR
STARTCHAR 033C
ENCODING 828
SWIDTH 500 0
DWIDTH 16 0
BBX 8 3 4 -5
BITMAP
FF
FF
81
ENDCHAR
STARTCHAR 033D
ENCODING 829
SWIDTH 500 0
DWIDTH 16 0
BBX 6 7 5 17
BITMAP
84
CC
78
30
78
CC
84
ENDCHAR
STARTCHAR 0361
ENCODING 865
SWIDTH 0 0
DWIDTH 0 0
BBX 16 4 -8 25
BITMAP
0FF0
7FFE
F00F
8001
ENDCHAR
STARTCHAR 0391
ENCODING 913
SWIDTH 1000 0
DWIDTH 32 0
BBX 20 22 6 2
BITMAP
00F000
01F800
01F800
019800
039C00
039C00
070C00
070E00
070E00
0E0700
0E0700
0E0700
1C0380
1FFF80
3FFFC0
3801C0
3801C0
7000E0
7000E0
F000F0
E00070
E00070
ENDCHAR
STARTCHAR 0392
ENCODING 914
SWIDTH 1000 0
DWIDTH 32 0
BBX 18 22 8 2
BITMAP
FFF800
FFFE00
FFFF00
E00F00
E00380
E00380
E00380
E00300
E00E00
FFFC00
FFFC00
E00F00
E00380
E00180
E001C0
E001C0
E001C0
E003C0
E00780
FFFF00
FFFE00
FFF800
ENDCHAR
STARTCHAR 0393
ENCODING 915
SWIDTH 1000 0
DWIDTH 32 0
BBX 17 22 8 2
BITMAP
FFFF80
FFFF80
FFFF80
E00000
E00000
E00000
E00000
E00000
E00000
E00000
E00000
E00000
E00000
E00000
E00000
E00000
E00000
E00000
E00000
E00000
E00000
E00000
ENDCHAR
STARTCHAR 0394
ENCODING 916
SWIDTH 1000 0
DWIDTH 32 0
BBX 22 22 5 2
BITMAP
007800
007800
00FC00
00FC00
01CE00
01CE00
038700
038700
030300
070380
070380
0E01C0
0E01C0
1C00E0
1C00E0
380070
380070
300030
700038
7FFFF8
FFFFFC
FFFFFC
ENDCHAR
STARTCHAR 0395
ENCODING 917
SWIDTH 1000 0
DWIDTH 32 0
BBX 17 22 8 2
BITMAP
FFFF00
FFFF00
FFFF00
E00000
E00000
E00000
E00000
E00000
E00000
FFFE00
FFFE00
FFFE00
E00000
E00000
E00000
E00000
E00000
E00000
E00000
FFFF80
FFFF80
FFFF80
ENDCHAR
STARTCHAR 0396
ENCODING 918
SWIDTH 1000 0
DWIDTH 32 0
BBX 18 22 7 2
BITMAP
7FFF80
7FFF80
7FFF80
000780
000700
000E00
001C00
003800
007000
00F000
01E000
03C000
078000
070000
0E0000
1C0000
380000
780000
F00000
FFFFC0
FFFFC0
FFFFC0
ENDCHAR
STARTCHAR 0397
ENCODING 919
SWIDTH 1000 0
DWIDTH 32 0
BBX 18 22 7 2
BITMAP
E001C0
E001C0
E001C0
E001C0
E001C0
E001C0
E001C0
E001C0
E001C0
FFFFC0
FFFFC0
FFFFC0
E001C0
E001C0
E001C0
E001C0
E001C0
E001C0
E001C0
E001C0
E001C0
E001C0
ENDCHAR
STARTCHAR 0398
ENCODING 920
SWIDTH 1000 0
DWIDTH 32 0
BBX 20 24 6 0
BITMAP
01F800
07FE00
1F0F00
1C0380
3801C0
7000E0
7000E0
E00070
E00070
E00070
EFFF70
EFFF70
EFFF70
E00070
E00070
E00070
E00070
7000E0
7000E0
3801C0
1C03C0
1E0780
07FE00
01F800
ENDCHAR
STARTCHAR 0399
ENCODING 921
SWIDTH 1000 0
DWIDTH 32 0
BBX 4 22 14 2
BITMAP
F0
F0
F0
F0
F0
F0
F0
F0
F0
F0
F0
F0
F0
F0
F0
F0
F0
F0
F0
F0
F0
F0
ENDCHAR
STARTCHAR 039A
ENCODING 922
SWIDTH 1000 0
DWIDTH 32 0
BBX 20 22 7 2
BITMAP
E003C0
E00780
E00E00
E01C00
E03800
E07000
E0E000
E3C000
E78000
EFC000
FFC000
FCE000
F87000
F07800
E03C00
E01E00
E00E00
E00700
E00780
E003C0
E001E0
E000F0
ENDCHAR
STARTCHAR 039B
ENCODING 923
SWIDTH 1000 0
DWIDTH 32 0
BBX 20 22 6 2
BITMAP
00F000
00F000
01F800
01F800
019800
039C00
039C00
070E00
070E00
070E00
0E0700
0E0700
1C0380
1C0380
1C0380
3801C0
3801C0
7000E0
7000E0
7000E0
E00070
E00070
ENDCHAR
STARTCHAR 039C
ENCODING 924
SWIDTH 1000 0
DWIDTH 32 0
BBX 22 22 5 2
BITMAP
F0003C
F0007C
F8007C
D8006C
DC00EC
DC00EC
CC00CC
CE01CC
C601CC
C6018C
C7038C
C3030C
C3870C
C3870C
C1860C
C1CE0C
C1CE0C
C0CC0C
C0FC0C
C07C0C
C0780C
C0780C
ENDCHAR
STARTCHAR 039D
ENCODING 925
SWIDTH 1000 0
DWIDTH 32 0
BBX 18 22 7 2
BITMAP
F001C0
F801C0
FC01C0
FC01C0
EE01C0
E601C0
E701C0
E381C0
E381C0
E1C1C0
E0E1C0
E0E1C0
E071C0
E031C0
E039C0
E01DC0
E01DC0
E00FC0
E007C0
E007C0
E003C0
E001C0
ENDCHAR
STARTCHAR 039E
ENCODING 926
SWIDTH 1000 0
DWIDTH 32 0
BBX 18 22 7 2
BITMAP
FFFFC0
FFFFC0
FFFFC0
000000
000000
000000
000000
000000
000000
3FFF00
3FFF00
3FFF00
000000
000000
000000
000000
000000
000000
000000
FFFFC0
FFFFC0
FFFFC0
ENDCHAR
STARTCHAR 039F
ENCODING 927
SWIDTH 1000 0
DWIDTH 32 0
BBX 20 24 6 0
BITMAP
01F800
07FE00
1F0F00
1C0380
3801C0
7000E0
7000E0
E00070
E00070
E00070
E00070
E00070
E00070
E00070
E00070
E00070
E00070
7000E0
7000E0
3801C0
1C03C0
1E0780
07FE00
01F800
ENDCHAR
STARTCHAR 03A0
ENCODING 928
SWIDTH 1000 0
DWIDTH 32 0
BBX 18 23 7 1
BITMAP
FFFFC0
FFFFC0
FFFFC0
E001C0
E001C0
E001C0
E001C0
E001C0
E001C0
E001C0
E001C0
E001C0
E001C0
E001C0
E001C0
E001C0
E001C0
E001C0
E001C0
E001C0
E001C0
E001C0
E001C0
ENDCHAR
STARTCHAR 03A1
ENCODING 929
SWIDTH 1000 0
DWIDTH 32 0
BBX 18 23 8 1
BITMAP
FFF800
FFFE00
FFFF00
E00780
E00380
E00180
E001C0
E00380
E00380
E00780
FFFF00
FFFE00
FFF800
E00000
E00000
E00000
E00000
E00000
E00000
E00000
E00000
E00000
E00000
ENDCHAR
STARTCHAR 03A3
ENCODING 931
SWIDTH 1000 0
DWIDTH 32 0
BBX 20 22 6 2
BITMAP
FFFFE0
FFFFE0
FFFFE0
780000
3C0000
1E0000
070000
038000
01E000
00F000
003800
007000
00E000
03C000
078000
0F0000
1E0000
380000
700000
FFFFF0
FFFFF0
FFFFF0
ENDCHAR
STARTCHAR 03A4
ENCODING 932
SWIDTH 1000 0
DWIDTH 32 0
BBX 20 22 6 2
BITMAP
FFFFF0
FFFFF0
FFFFF0
007000
007000
007000
007000
007000
007000
007000
007000
007000
007000
007000
007000
007000
007000
007000
007000
007000
007000
007000
ENDCHAR
STARTCHAR 03A5
ENCODING 933
SWIDTH 1000 0
DWIDTH 32 0
BBX 20 23 6 1
BITMAP
E00070
7000F0
7801E0
3801C0
1C0380
1E0780
0E0700
070E00
079E00
039C00
01F800
01F800
00F000
006000
006000
006000
006000
006000
006000
006000
006000
006000
006000
ENDCHAR
STARTCHAR 03A6
ENCODING 934
SWIDTH 1000 0
DWIDTH 32 0
BBX 22 22 5 2
BITMAP
003000
003000
003000
01FE00
0FFFC0
1FB7E0
3C30F0
703038
E03038
E0301C
E0301C
E0301C
E0301C
E0301C
703038
783078
3E31F0
0FFFC0
03FF00
003000
003000
003000
ENDCHAR
STARTCHAR 03A7
ENCODING 935
SWIDTH 1000 0
DWIDTH 32 0
BBX 22 22 5 2
BITMAP
380070
1C00E0
1E01E0
0F03C0
070380
038700
03CF00
01CE00
00FC00
007800
007800
00F800
00FC00
01CE00
03CF00
078780
0F03C0
0E01C0
1E01E0
3C00F0
780078
F0003C
ENDCHAR
STARTCHAR 03A8
ENCODING 936
SWIDTH 1000 0
DWIDTH 32 0
BBX 18 22 7 2
BITMAP
C0C0C0
C0C0C0
C0C0C0
C0C0C0
C0C0C0
C0C0C0
C0C0C0
C0C0C0
C0C0C0
C0C0C0
E0C1C0
E0C1C0
E0C3C0
78C780
3FFF00
1FFE00
07F800
00C000
00C000
00C000
00C000
00C000
ENDCHAR
STARTCHAR 03A9
ENCODING 937
SWIDTH 1000 0
DWIDTH 32 0
BBX 22 22 5 2
BITMAP
00FC00
07FF80
0F03C0
1C00E0
380070
780078
700038
700038
700038
700038
700038
700038
700038
380070
3C00F0
1E01E0
0F07C0
038700
018600
FF87FC
FF87FC
FF87FC
ENDCHAR
STARTCHAR 03B1
ENCODING 945
SWIDTH 1000 0
DWIDTH 32 0
BBX 20 17 6 0
BITMAP
01F0E0
07F8E0
0E39C0
1C19C0
181B80
381F00
701F00
701E00
601E00
E01C00
E03C00
E07C70
E0EC60
F1EEE0
7FCFE0
7F07C0
1E0380
ENDCHAR
STARTCHAR 03B2
ENCODING 946
SWIDTH 1000 0
DWIDTH 32 0
BBX 18 27 6 -3
BITMAP
003E00
007F80
01E380
0181C0
0380C0
0700C0
0600C0
0601C0
0E01C0
0C0780
1DFF00
1CFC00
180E00
180700
380300
380380
300380
300380
700380
780380
7C0700
670F00
63FE00
60F800
600000
E00000
E00000
ENDCHAR
STARTCHAR 03B3
ENCODING 947
SWIDTH 1000 0
DWIDTH 32 0
BBX 18 20 7 -3
BITMAP
1E0080
7F01C0
FF83C0
E38780
01C700
01CE00
00DC00
00F800
00F000
00E000
00E000
00C000
01C000
01C000
038000
038000
038000
078000
030000
030000
ENDCHAR
STARTCHAR 03B4
ENCODING 948
SWIDTH 1000 0
DWIDTH 32 0
BBX 16 24 8 0
BITMAP
03E0
0FF8
0E3E
0C0F
0E07
0602
0700
01C0
00E0
07F0
1E38
3818
380C
700C
700C
600C
E01C
E01C
E01C
6038
7070
38F0
3FE0
0F80
ENDCHAR
STARTCHAR 03B5
ENCODING 949
SWIDTH 1000 0
DWIDTH 32 0
BBX 14 17 9 0
BITMAP
0FE0
3FF8
383C
7008
7000
3000
1FC0
3FE0
7BC0
E000
E000
C010
C018
E078
F0F0
7FE0
1F00
ENDCHAR
STARTCHAR 03B6
ENCODING 950
SWIDTH 1000 0
DWIDTH 32 0
BBX 16 27 9 -3
BITMAP
0E07
1C1F
187E
18FC
1FF0
0F80
0700
0E00
0C00
1C00
3800
3000
7000
6000
6000
E000
C000
E000
FE00
7FE0
03F0
0070
0030
0030
3870
3FE0
0FC0
ENDCHAR
STARTCHAR 03B7
ENCODING 951
SWIDTH 1000 0
DWIDTH 32 0
BBX 18 20 6 -3
BITMAP
0E0F00
3F3F80
7361C0
E1C1C0
23C1C0
0381C0
038180
030180
070380
070380
060380
0E0300
0E0700
0C0700
1C0700
1C0700
000E00
000E00
000E00
000E00
ENDCHAR
STARTCHAR 03B8
ENCODING 952
SWIDTH 1000 0
DWIDTH 32 0
BBX 16 24 8 0
BITMAP
01F0
03FC
070C
0C0E
1C06
3807
3807
7007
7007
6007
FFFF
FFFF
E007
E00E
E00E
E00E
E01C
E01C
E01C
6038
7070
70E0
3FC0
0F00
ENDCHAR
STARTCHAR 03B9
ENCODING 953
SWIDTH 1000 0
DWIDTH 32 0
BBX 11 17 10 0
BITMAP
0700
0E00
0E00
1C00
1C00
3800
3800
3000
7000
7000
6040
E0E0
E0E0
E1C0
6380
7F00
1E00
ENDCHAR
STARTCHAR 03BA
ENCODING 954
SWIDTH 1000 0
DWIDTH 32 0
BBX 16 17 8 0
BITMAP
0E03
0C0F
1C1F
1C7C
1DF0
1BC0
3F00
3F00
3B80
3180
71C0
71C3
61C3
E0C7
E0CE
E0FC
0078
ENDCHAR
STARTCHAR 03BB
ENCODING 955
SWIDTH 1000 0
DWIDTH 32 0
BBX 17 22 7 2
BITMAP
03C000
1FF000
3C7000
183800
003800
003800
003800
003800
007800
007800
00F800
01D800
039800
039800
071C00
0E1C00
1E0C00
1C0E00
380E00
700700
F00700
E00380
ENDCHAR
STARTCHAR 03BC
ENCODING 956
SWIDTH 1000 0
DWIDTH 32 0
BBX 21 20 6 -3
BITMAP
070180
060380
0E0380
0E0380
0E0300
0C0300
1C0700
1C0700
1C0700
1C0600
3C0E00
3C0E18
3C1E38
363E38
77F7F0
73E3E0
71C1C0
600000
E00000
E00000
ENDCHAR
STARTCHAR 03BD
ENCODING 957
SWIDTH 1000 0
DWIDTH 32 0
BBX 15 17 9 1
BITMAP
2000
E00E
700E
700E
300E
380C
381C
381C
3838
3838
3870
30E0
31C0
7780
7F00
7C00
C000
ENDCHAR
STARTCHAR 03BE
ENCODING 958
SWIDTH 1000 0
DWIDTH 32 0
BBX 14 28 8 -3
BITMAP
0200
0F7C
03FC
0780
0E00
1C00
1800
1800
1800
1C00
0FFC
03FC
0F7C
3C00
7000
7000
E000
E000
7000
7C00
3FE0
07F8
007C
001C
001C
3838
3FF8
0FE0
ENDCHAR
STARTCHAR 03BF
ENCODING 959
SWIDTH 1000 0
DWIDTH 32 0
BBX 14 17 9 0
BITMAP
03E0
0FF8
1C38
381C
701C
601C
E00C
E01C
C01C
C01C
C01C
C038
E038
E070
70E0
3FC0
1F80
ENDCHAR
STARTCHAR 03C0
ENCODING 960
SWIDTH 1000 0
DWIDTH 32 0
BBX 18 18 8 0
BITMAP
000180
3FFFC0
FFFF00
EE3800
8C3000
0C3000
1C7000
186000
186000
386000
30E000
70E080
70C1C0
60C380
E0E780
E0FF00
00FE00
007800
ENDCHAR
STARTCHAR 03C1
ENCODING 961
SWIDTH 1000 0
DWIDTH 32 0
BBX 16 20 7 -3
BITMAP
00F8
03FC
070E
0E07
1C07
1807
1807
3807
3807
3807
7807
780E
7C1E
6E3C
67F8
63E0
E000
E000
E000
E000
ENDCHAR
STARTCHAR 03C2
ENCODING 962
SWIDTH 593 0
DWIDTH 19 0
BBX 15 23 2 -6
BITMAP
07C0
1FF0
3C78
701C
701C
600E
600E
6000
7000
7000
7800
3C00
1E00
0F80
07C0
01C0
01E0
00E0
00E0
40E0
E1C0
FFC0
3F00
ENDCHAR
STARTCHAR 03C3
ENCODING 963
SWIDTH 1000 0
DWIDTH 32 0
BBX 17 17 9 0
BITMAP
03FF80
0FFF00
1C3800
381800
701C00
601C00
E00C00
E01C00
C01C00
C01C00
C01C00
C03800
E03800
E07000
70E000
3FC000
1F0000
ENDCHAR
STARTCHAR 03C4
ENCODING 964
SWIDTH 1000 0
DWIDTH 32 0
BBX 17 18 8 0
BITMAP
000100
3FFF80
FFFF00
FD8000
438000
038000
030000
070000
060000
060000
0E0000
0E0000
0C0800
0C1C00
0C1C00
0E7800
07F000
03C000
ENDCHAR
STARTCHAR 03C5
ENCODING 965
SWIDTH 1000 0
DWIDTH 32 0
BBX 17 18 7 0
BITMAP
000200
1E0E00
7F0700
E70700
C70300
060380
0E0380
0E0380
1C0380
1C0380
380300
380700
300700
300E00
381C00
383800
1FF000
07C000
ENDCHAR
STARTCHAR 03C6
ENCODING 966
SWIDTH 1000 0
DWIDTH 32 0
BBX 18 26 7 -3
BITMAP
001800
001800
003800
003800
003000
003000
07FC00
1FFF00
3C6780
786380
70E1C0
E0C1C0
E0C1C0
E0C1C0
E1C1C0
E181C0
E18380
718780
7B8F00
3FFE00
0FF800
070000
070000
070000
060000
0E0000
ENDCHAR
STARTCHAR 03C7
ENCODING 967
SWIDTH 1000 0
DWIDTH 32 0
BBX 17 20 7 -3
BITMAP
0E0380
3F0700
738E00
238E00
019C00
01B800
01F800
01F000
00E000
01C000
01C000
03C000
07C000
0EE000
0E6000
1C6100
386380
787380
703F00
E01C00
ENDCHAR
STARTCHAR 03C8
ENCODING 968
SWIDTH 1000 0
DWIDTH 32 0
BBX 19 26 6 -3
BITMAP
000C00
000C00
001C00
001C00
001800
023800
063880
1F31C0
3C31C0
3870E0
7070E0
706060
606060
E0E060
E0E0E0
60C0E0
70C1C0
71C3C0
3DCF80
1FFE00
07F800
038000
038000
030000
070000
070000
ENDCHAR
STARTCHAR 03C9
ENCODING 969
SWIDTH 1000 0
DWIDTH 32 0
BBX 21 17 5 0
BITMAP
030060
0780E0
0F0070
1E0070
1C1838
383838
703838
703838
603038
E03038
E07038
E07038
E0F070
71F8F0
7F9FE0
3F0FC0
1E0780
ENDCHAR
STARTCHAR 0401
ENCODING 1025
SWIDTH 1000 0
DWIDTH 32 0
BBX 17 26 8 2
BITMAP
1C3800
1C3800
1C3800
000000
FFFF00
FFFF00
FFFF00
E00000
E00000
E00000
E00000
E00000
E00000
FFFE00
FFFE00
FFFE00
E00000
E00000
E00000
E00000
E00000
E00000
E00000
FFFF80
FFFF80
FFFF80
ENDCHAR
STARTCHAR 0410
ENCODING 1040
SWIDTH 1000 0
DWIDTH 32 0
BBX 20 22 6 2
BITMAP
00F000
01F800
01F800
019800
039C00
039C00
070C00
070E00
070E00
0E0700
0E0700
0E0700
1C0380
1FFF80
3FFFC0
3801C0
3801C0
7000E0
7000E0
F000F0
E00070
E00070
ENDCHAR
STARTCHAR 0411
ENCODING 1041
SWIDTH 1000 0
DWIDTH 32 0
BBX 18 22 8 2
BITMAP
FFFF80
FFFF80
FFFF80
E00000
E00000
E00000
E00000
E00000
E00000
FFF800
FFFE00
FFFF00
E00780
E003C0
E001C0
E001C0
E001C0
E003C0
E00780
FFFF00
FFFE00
FFF800
ENDCHAR
STARTCHAR 0412
ENCODING 1042
SWIDTH 1000 0
DWIDTH 32 0
BBX 18 22 8 2
BITMAP
FFF800
FFFE00
FFFF00
E00F00
E00380
E00380
E00380
E00300
E00E00
FFFC00
FFFC00
E00F00
E00380
E00180
E001C0
E001C0
E001C0
E003C0
E00780
FFFF00
FFFE00
FFF800
ENDCHAR
STARTCHAR 0413
ENCODING 1043
SWIDTH 1000 0
DWIDTH 32 0
BBX 17 22 8 2
BITMAP
FFFF80
FFFF80
FFFF80
E00000
E00000
E00000
E00000
E00000
E00000
E00000
E00000
E00000
E00000
E00000
E00000
E00000
E00000
E00000
E00000
E00000
E00000
E00000
ENDCHAR
STARTCHAR 0414
ENCODING 1044
SWIDTH 1000 0
DWIDTH 32 0
BBX 22 26 5 -2
BITMAP
03FFE0
03FFE0
03FFE0
0380E0
0380E0
0380E0
0380E0
0380E0
0300E0
0300E0
0700E0
0700E0
0700E0
0600E0
0E00E0
0E00E0
1C00E0
1C00E0
3C00E0
FFFFFC
FFFFFC
FFFFFC
E0001C
E0001C
E0001C
E0001C
ENDCHAR
STARTCHAR 0415
ENCODING 1045
SWIDTH 1000 0
DWIDTH 32 0
BBX 17 22 8 2
BITMAP
FFFF00
FFFF00
FFFF00
E00000
E00000
E00000
E00000
E00000
E00000
FFFE00
FFFE00
FFFE00
E00000
E00000
E00000
E00000
E00000
E00000
E00000
FFFF80
FFFF80
FFFF80
ENDCHAR
STARTCHAR 0416
ENCODING 1046
SWIDTH 1000 0
DWIDTH 32 0
BBX 26 22 3 2
BITMAP
380C0700
380C0700
380C0700
180C0600
1C0C0E00
1C0C0E00
0E0C1C00
0F0C3C00
07EDF800
03FFF000
01FFE000
038C7000
038C7000
070C3800
070C3800
0E0C1C00
1C0C0E00
1C0C0E00
380C0700
780C0780
700C0380
F00C03C0
ENDCHAR
STARTCHAR 0417
ENCODING 1047
SWIDTH 1000 0
DWIDTH 32 0
BBX 19 24 6 0
BITMAP
03F800
0FFE00
1E0780
380380
7801C0
0001C0
0001C0
000380
000780
00FF00
00FC00
00FF00
000380
0001C0
0001C0
0000E0
0000E0
F000E0
7000E0
7001C0
3803C0
1E0780
0FFF00
03F800
ENDCHAR
STARTCHAR 0418
ENCODING 1048
SWIDTH 1000 0
DWIDTH 32 0
BBX 18 22 7 2
BITMAP
E001C0
E001C0
E001C0
E001C0
E003C0
E007C0
E00FC0
E01DC0
E039C0
E071C0
E0E1C0
E1C1C0
E381C0
E701C0
EE01C0
FC01C0
F801C0
F001C0
E001C0
E001C0
E001C0
E001C0
ENDCHAR
STARTCHAR 0419
ENCODING 1049
SWIDTH 1000 0
DWIDTH 32 0
BBX 18 26 7 2
BITMAP
1C0C00
0E1C00
0FF800
03F000
E001C0
E001C0
E001C0
E001C0
E003C0
E007C0
E00FC0
E01DC0
E039C0
E071C0
E0E1C0
E1C1C0
E381C0
E701C0
EE01C0
FC01C0
F801C0
F001C0
E001C0
E001C0
E001C0
E001C0
ENDCHAR
STARTCHAR 041A
ENCODING 1050
SWIDTH 1000 0
DWIDTH 32 0
BBX 19 22 7 2
BITMAP
E001C0
E00380
E00380
E00380
E00700
E00F00
E01E00
E03C00
E0F800
FFF000
FFE000
F87000
E03800
E03C00
E01C00
E00E00
E00F00
E00700
E00380
E003C0
E001E0
E000E0
ENDCHAR
STARTCHAR 041B
ENCODING 1051
SWIDTH 1000 0
DWIDTH 32 0
BBX 22 24 3 0
BITMAP
007FFC
007FFC
007FFC
00701C
00701C
00701C
00701C
00701C
00701C
00701C
00701C
00701C
00701C
00701C
00701C
00601C
00E01C
60E01C
E0E01C
71C01C
71C01C
3F801C
3F801C
1E0000
ENDCHAR
STARTCHAR 041C
ENCODING 1052
SWIDTH 1000 0
DWIDTH 32 0
BBX 22 22 5 2
BITMAP
F0003C
F0007C
F8007C
D8006C
DC00EC
DC00EC
CC00CC
CE01CC
C601CC
C6018C
C7038C
C3030C
C3870C
C3870C
C1860C
C1CE0C
C1CE0C
C0CC0C
C0FC0C
C07C0C
C0780C
C0780C
ENDCHAR
STARTCHAR 041D
ENCODING 1053
SWIDTH 1000 0
DWIDTH 32 0
BBX 18 22 7 2
BITMAP
E001C0
E001C0
E001C0
E001C0
E001C0
E001C0
E001C0
E001C0
E001C0
FFFFC0
FFFFC0
FFFFC0
E001C0
E001C0
E001C0
E001C0
E001C0
E001C0
E001C0
E001C0
E001C0
E001C0
ENDCHAR
STARTCHAR 041E
ENCODING 1054
SWIDTH 1000 0
DWIDTH 32 0
BBX 20 24 6 0
BITMAP
01F800
07FE00
1F0F00
1C0380
3801C0
7000E0
7000E0
E00070
E00070
E00070
E00070
E00070
E00070
E00070
E00070
E00070
E00070
7000E0
7000E0
3801C0
1C03C0
1E0780
07FE00
01F800
ENDCHAR
STARTCHAR 041F
ENCODING 1055
SWIDTH 1000 0
DWIDTH 32 0
BBX 18 23 7 1
BITMAP
FFFFC0
FFFFC0
FFFFC0
E001C0
E001C0
E001C0
E001C0
E001C0
E001C0
E001C0
E001C0
E001C0
E001C0
E001C0
E001C0
E001C0
E001C0
E001C0
E001C0
E001C0
E001C0
E001C0
E001C0
ENDCHAR
STARTCHAR 0420
ENCODING 1056
SWIDTH 1000 0
DWIDTH 32 0
BBX 18 23 8 1
BITMAP
FFF800
FFFE00
FFFF00
E00780
E00380
E00180
E001C0
E00380
E00380
E00780
FFFF00
FFFE00
FFF800
E00000
E00000
E00000
E00000
E00000
E00000
E00000
E00000
E00000
E00000
ENDCHAR
STARTCHAR 0421
ENCODING 1057
SWIDTH 1000 0
DWIDTH 32 0
BBX 21 24 5 0
BITMAP
00FC00
03FF80
0FFFC0
1F03E0
1C00F0
380070
700078
700000
700000
600000
E00000
E00000
E00000
E00000
F00000
700038
700038
780070
3800F0
3C01E0
1F03E0
0FFFC0
07FF00
01FC00
ENDCHAR
STARTCHAR 0422
ENCODING 1058
SWIDTH 1000 0
DWIDTH 32 0
BBX 20 22 6 2
BITMAP
FFFFF0
FFFFF0
FFFFF0
007000
007000
007000
007000
007000
007000
007000
007000
007000
007000
007000
007000
007000
007000
007000
007000
007000
007000
007000
ENDCHAR
STARTCHAR 0423
ENCODING 1059
SWIDTH 1000 0
DWIDTH 32 0
BBX 19 23 7 1
BITMAP
F000E0
7001E0
7801C0
3801C0
1C0380
1C0380
0E0700
0E0700
070700
070E00
038E00
039C00
01DC00
01D800
00F800
00F800
007000
007000
00E000
01E000
7FC000
7F8000
7C0000
ENDCHAR
STARTCHAR 0424
ENCODING 1060
SWIDTH 1000 0
DWIDTH 32 0
BBX 22 22 5 2
BITMAP
003000
003000
003000
01FE00
0FFFC0
1FB7E0
3C30F0
703038
F03038
E0301C
E0301C
E0301C
E0301C
E0301C
703038
783078
3E33F0
0FFFC0
03FF00
003000
003000
003000
ENDCHAR
STARTCHAR 0425
ENCODING 1061
SWIDTH 1000 0
DWIDTH 32 0
BBX 22 22 5 2
BITMAP
380070
1C00E0
1E01E0
0F03C0
070380
038700
03CF00
01CE00
00FC00
007800
007800
00F800
00FC00
01CE00
03CF00
078780
0F03C0
0E01C0
1E01E0
3C00F0
780078
F0003C
ENDCHAR
STARTCHAR 0426
ENCODING 1062
SWIDTH 1000 0
DWIDTH 32 0
BBX 21 27 7 -2
BITMAP
E00380
E00380
E00380
E00380
E00380
E00380
E00380
E00380
E00380
E00380
E00380
E00380
E00380
E00380
E00380
E00380
E00380
E00380
E00380
E00380
FFFFF8
FFFFF8
FFFFF8
000038
000038
000038
000038
ENDCHAR
STARTCHAR 0427
ENCODING 1063
SWIDTH 1000 0
DWIDTH 32 0
BBX 16 22 8 2
BITMAP
E007
E007
E007
E007
E007
E007
E007
E007
E007
E007
E00F
F03F
7FFF
3FF7
1FC7
0007
0007
0007
0007
0007
0007
0007
ENDCHAR
STARTCHAR 0428
ENCODING 1064
SWIDTH 1000 0
DWIDTH 32 0
BBX 22 23 5 2
BITMAP
C0300C
C0300C
C0300C
C0300C
C0300C
C0300C
C0300C
C0300C
C0300C
C0300C
C0300C
C0300C
C0300C
C0300C
C0300C
C0300C
C0300C
C0300C
C0300C
C0300C
FFFFFC
FFFFFC
FFFFFC
ENDCHAR
STARTCHAR 0429
ENCODING 1065
SWIDTH 1000 0
DWIDTH 32 0
BBX 25 27 4 -2
BITMAP
E0380E00
E0380E00
E0380E00
E0380E00
E0380E00
E0380E00
E0380E00
E0380E00
E0380E00
E0380E00
E0380E00
E0380E00
E0380E00
E0380E00
E0380E00
E0380E00
E0380E00
E0380E00
E0380E00
E0380E00
FFFFFF80
FFFFFF80
FFFFFF80
00000180
00000180
00000180
00000180
ENDCHAR
STARTCHAR 042A
ENCODING 1066
SWIDTH 1000 0
DWIDTH 32 0
BBX 23 22 4 2
BITMAP
FF8000
FF8000
FF8000
038000
038000
038000
038000
038000
038000
03FFC0
03FFF0
03FFF8
03803C
03801C
03800E
03800E
03800E
03801C
03807C
03FFF8
03FFF0
03FF80
ENDCHAR
STARTCHAR 042B
ENCODING 1067
SWIDTH 1000 0
DWIDTH 32 0
BBX 20 22 6 2
BITMAP
C00030
C00030
C00030
C00030
C00030
C00030
C00030
C00030
C00030
FFC030
FFF030
FFFC30
C03C30
C01E30
C00E30
C00E30
C00E30
C01E30
C03C30
FFF830
FFF030
FFC030
ENDCHAR
STARTCHAR 042C
ENCODING 1068
SWIDTH 1000 0
DWIDTH 32 0
BBX 18 22 8 2
BITMAP
E00000
E00000
E00000
E00000
E00000
E00000
E00000
E00000
E00000
FFF800
FFFE00
FFFF00
E00780
E003C0
E001C0
E001C0
E001C0
E003C0
E00780
FFFF00
FFFE00
FFF800
ENDCHAR
STARTCHAR 042D
ENCODING 1069
SWIDTH 1000 0
DWIDTH 32 0
BBX 21 24 6 0
BITMAP
01F800
0FFE00
1FFF80
3E07C0
7803C0
F001E0
0000F0
000070
000070
0F8070
1FFE38
1FFE38
007E38
000038
000078
000070
E00070
F000F0
7000E0
3801E0
3E07C0
1FFF80
0FFF00
01F800
ENDCHAR
STARTCHAR 042E
ENCODING 1070
SWIDTH 1000 0
DWIDTH 32 0
BBX 24 24 5 0
BITMAP
E00FC0
E03FE0
E07FF8
E0F878
E1E01C
E1C01E
E1C00E
E3800E
E38006
FF8007
FF8007
FF8007
E38007
E38007
E38007
E3800E
E1800E
E1C00E
E1C01E
E0E03C
E0E038
E07878
E03FF0
000FC0
ENDCHAR
STARTCHAR 042F
ENCODING 1071
SWIDTH 1000 0
DWIDTH 32 0
BBX 17 22 7 2
BITMAP
07FF80
1FFF80
3FFF80
780180
700180
E00180
E00180
700180
780180
3FFF80
1FFF80
07FF80
038180
078180
070180
0E0180
0E0180
1C0180
3C0180
780180
700180
E00180
ENDCHAR
STARTCHAR 0430
ENCODING 1072
SWIDTH 1000 0
DWIDTH 32 0
BBX 16 17 8 0
BITMAP
07E0
1FF8
3C38
701C
700C
000C
07FC
1FFC
3E0C
700C
700C
E00C
601C
603C
70EF
1FCF
0F07
ENDCHAR
STARTCHAR 0431
ENCODING 1073
SWIDTH 1000 0
DWIDTH 32 0
BBX 14 24 9 0
BITMAP
003C
0078
03F0
0FC0
1E00
3800
7000
6000
E7C0
FFF0
F878
F038
E01C
E01C
E01C
E00C
C00C
E01C
E01C
E01C
7038
3878
1FF0
0FC0
ENDCHAR
STARTCHAR 0432
ENCODING 1074
SWIDTH 1000 0
DWIDTH 32 0
BBX 13 15 10 2
BITMAP
FF80
FFE0
C0F0
C070
C070
C0E0
FFC0
FFC0
C070
C030
C038
C038
C070
FFF0
FFC0
ENDCHAR
STARTCHAR 0433
ENCODING 1075
SWIDTH 1000 0
DWIDTH 32 0
BBX 13 16 10 1
BITMAP
FFF8
FFF8
FFF8
E000
E000
E000
E000
E000
E000
E000
E000
E000
E000
E000
E000
E000
ENDCHAR
STARTCHAR 0434
ENCODING 1076
SWIDTH 1000 0
DWIDTH 32 0
BBX 17 19 7 -2
BITMAP
07FE00
07FE00
070E00
070E00
070E00
060E00
060E00
0E0E00
0E0E00
0C0E00
1C0E00
180E00
380E00
FFFF80
FFFF80
C00380
C00380
C00380
C00380
ENDCHAR
STARTCHAR 0435
ENCODING 1077
SWIDTH 1000 0
DWIDTH 32 0
BBX 16 17 8 0
BITMAP
07E0
1FF8
3C3C
700C
600E
E006
FFFF
FFFF
E000
E000
E007
E006
700E
781E
3C3C
1FF8
07E0
ENDCHAR
STARTCHAR 0436
ENCODING 1078
SWIDTH 1000 0
DWIDTH 32 0
BBX 20 15 6 2
BITMAP
606060
7060E0
7060E0
3861C0
3C63C0
1E6780
0FFF00
0FFF00
1C6380
1C6380
3861C0
3861C0
7060E0
F060F0
E06070
ENDCHAR
STARTCHAR 0437
ENCODING 1079
SWIDTH 1000 0
DWIDTH 32 0
BBX 13 17 9 0
BITMAP
0FC0
3FE0
7070
E038
0038
0030
0FF0
0FC0
0FF0
0038
0038
0018
E018
F038
7878
3FF0
0FC0
ENDCHAR
STARTCHAR 0438
ENCODING 1080
SWIDTH 1000 0
DWIDTH 32 0
BBX 14 15 9 2
BITMAP
E01C
E01C
E01C
E07C
E0FC
E1FC
E3DC
E79C
EF1C
FE1C
FC1C
F81C
F01C
E01C
E01C
ENDCHAR
STARTCHAR 0439
ENCODING 1081
SWIDTH 1000 0
DWIDTH 32 0
BBX 14 20 9 2
BITMAP
3030
3870
1FE0
07C0
0000
E01C
E01C
E01C
E07C
E0FC
E1FC
E3DC
E79C
EF1C
FE1C
FC1C
F81C
F01C
E01C
E01C
ENDCHAR
STARTCHAR 043A
ENCODING 1082
SWIDTH 1000 0
DWIDTH 32 0
BBX 15 15 9 2
BITMAP
E038
E038
E038
E070
E0F0
E3E0
FFC0
FF80
E1C0
E0E0
E0F0
E070
E038
E01C
E01E
ENDCHAR
STARTCHAR 043B
ENCODING 1083
SWIDTH 1000 0
DWIDTH 32 0
BBX 18 17 5 0
BITMAP
01FFC0
01FFC0
01FFC0
01C1C0
01C1C0
01C1C0
01C1C0
01C1C0
01C1C0
01C1C0
01C1C0
E181C0
E381C0
7381C0
7F01C0
3F01C0
1E0000
ENDCHAR
STARTCHAR 043C
ENCODING 1084
SWIDTH 1000 0
DWIDTH 32 0
BBX 16 16 8 1
BITMAP
F00F
F81F
F81F
F81B
FC3B
EC3B
EC33
EE73
E673
E663
E663
E3E3
E3C3
E3C3
E3C3
E183
ENDCHAR
STARTCHAR 043D
ENCODING 1085
SWIDTH 1000 0
DWIDTH 32 0
BBX 14 16 9 1
BITMAP
E01C
E01C
E01C
E01C
E01C
E01C
FFFC
FFFC
FFFC
E01C
E01C
E01C
E01C
E01C
E01C
E01C
ENDCHAR
STARTCHAR 043E
ENCODING 1086
SWIDTH 1000 0
DWIDTH 32 0
BBX 16 17 8 0
BITMAP
07E0
1FF8
3C3C
781E
700E
E007
E007
E007
E007
E007
E007
6007
700E
301E
1C3C
0FF8
03E0
ENDCHAR
STARTCHAR 043F
ENCODING 1087
SWIDTH 1000 0
DWIDTH 32 0
BBX 14 16 9 1
BITMAP
FFFC
FFFC
FFFC
E01C
E01C
E01C
E01C
E01C
E01C
E01C
E01C
E01C
E01C
E01C
E01C
E01C
ENDCHAR
STARTCHAR 0440
ENCODING 1088
SWIDTH 1000 0
DWIDTH 32 0
BBX 16 20 9 -3
BITMAP
E3E0
EFF8
FC3C
F81C
F00E
E006
E007
E007
E007
E007
E00E
F00E
F81E
FC3C
EFF8
E3E0
E000
E000
E000
E000
ENDCHAR
STARTCHAR 0441
ENCODING 1089
SWIDTH 1000 0
DWIDTH 32 0
BBX 16 17 8 0
BITMAP
07E0
1FF8
3C3C
700E
700E
E000
E000
E000
E000
E000
E007
E00E
700E
701C
3C3C
1FF8
07E0
ENDCHAR
STARTCHAR 0442
ENCODING 1090
SWIDTH 1000 0
DWIDTH 32 0
BBX 14 16 9 1
BITMAP
FFFC
FFFC
FFFC
0300
0300
0300
0300
0300
0300
0300
0300
0300
0300
0300
0300
0300
ENDCHAR
STARTCHAR 0443
ENCODING 1091
SWIDTH 1000 0
DWIDTH 32 0
BBX 16 20 8 -3
BITMAP
E007
7007
7007
380E
380E
1C1C
1C1C
0E38
0E38
0630
0770
0360
03E0
01C0
01C0
01C0
0380
0780
7F00
7E00
ENDCHAR
STARTCHAR 0444
ENCODING 1092
SWIDTH 1000 0
DWIDTH 32 0
BBX 20 27 6 -3
BITMAP
006000
006000
006000
006000
006000
006000
006000
1F6F80
3FFFC0
71F8E0
E0F060
E06070
E06070
C06030
C06030
C06030
C06070
E06070
E06070
71F8E0
3FFFC0
1F6F80
006000
006000
006000
006000
006000
ENDCHAR
STARTCHAR 0445
ENCODING 1093
SWIDTH 1000 0
DWIDTH 32 0
BBX 18 15 7 2
BITMAP
780780
3C0F00
1E1E00
0E1C00
073800
03F000
01E000
01E000
03F000
073800
0F3C00
1E1E00
3C0F00
780780
F003C0
ENDCHAR
STARTCHAR 0446
ENCODING 1094
SWIDTH 1000 0
DWIDTH 32 0
BBX 16 20 9 -2
BITMAP
E018
E018
E018
E018
E018
E018
E018
E018
E018
E018
E018
E018
E018
FFFF
FFFF
FFFF
0003
0003
0003
0003
ENDCHAR
STARTCHAR 0447
ENCODING 1095
SWIDTH 1000 0
DWIDTH 32 0
BBX 14 15 9 2
BITMAP
C01C
C01C
C01C
C01C
C01C
E01C
E07C
FFFC
7FFC
3F1C
001C
001C
001C
001C
001C
ENDCHAR
STARTCHAR 0448
ENCODING 1096
SWIDTH 1000 0
DWIDTH 32 0
BBX 20 16 6 2
BITMAP
E06070
E06070
E06070
E06070
E06070
E06070
E06070
E06070
E06070
E06070
E06070
E06070
E06070
FFFFF0
FFFFF0
FFFFF0
ENDCHAR
STARTCHAR 0449
ENCODING 1097
SWIDTH 1000 0
DWIDTH 32 0
BBX 22 20 6 -2
BITMAP
E0E070
E0E070
E0E070
E0E070
E0E070
E0E070
E0E070
E0E070
E0E070
E0E070
E0E070
E0E070
E0E070
FFFFFC
FFFFFC
FFFFFC
00000C
00000C
00000C
00000C
ENDCHAR
STARTCHAR 044A
ENCODING 1098
SWIDTH 1000 0
DWIDTH 32 0
BBX 18 15 7 2
BITMAP
FC0000
FC0000
0C0000
0C0000
0C0000
0FFC00
0FFF00
0C0380
0C0180
0C01C0
0C01C0
0C0180
0C0380
0FFF00
0FFC00
ENDCHAR
STARTCHAR 044B
ENCODING 1099
SWIDTH 1000 0
DWIDTH 32 0
BBX 18 15 7 2
BITMAP
C000C0
C000C0
C000C0
C000C0
C000C0
FFC0C0
FFE0C0
C070C0
C038C0
C038C0
C038C0
C038C0
C070C0
FFE0C0
FFC0C0
ENDCHAR
STARTCHAR 044C
ENCODING 1100
SWIDTH 1000 0
DWIDTH 32 0
BBX 14 15 9 2
BITMAP
E000
E000
E000
E000
E000
FFE0
FFF8
E03C
E01C
E00C
E01C
E01C
E03C
FFF8
FFE0
ENDCHAR
STARTCHAR 044D
ENCODING 1101
SWIDTH 1000 0
DWIDTH 32 0
BBX 16 17 8 0
BITMAP
07E0
1FF8
3C3C
700E
0006
0007
1E27
1FE7
01E7
0007
E007
7007
700E
381C
3C3C
1FF8
07E0
ENDCHAR
STARTCHAR 044E
ENCODING 1102
SWIDTH 1000 0
DWIDTH 32 0
BBX 21 17 6 0
BITMAP
E01F00
E07FC0
E0E0E0
E1C070
E1C030
E38038
FF8038
FF8038
FF8038
E38038
E38038
E38038
E1C030
E1C070
E0F0E0
E07FC0
001F00
ENDCHAR
STARTCHAR 044F
ENCODING 1103
SWIDTH 1000 0
DWIDTH 32 0
BBX 14 15 8 2
BITMAP
0FFC
3FFC
380C
700C
700C
380C
3FFC
0FFC
0E0C
0E0C
1C0C
1C0C
380C
700C
F00C
ENDCHAR
STARTCHAR 0451
ENCODING 1105
SWIDTH 1000 0
DWIDTH 32 0
BBX 16 22 8 0
BITMAP
1C38
1C38
1C38
0000
0000
07E0
1FF8
3C3C
700C
600E
E006
FFFF
FFFF
E000
E000
E007
E006
700E
781E
3C3C
1FF8
07E0
ENDCHAR
STARTCHAR 1E3E
ENCODING 7742
SWIDTH 906 0
DWIDTH 29 0
BBX 23 29 3 0
BITMAP
000E00
001C00
001800
003000
000000
000000
F0003E
F8003E
F8003E
F8007E
FC006E
EC00EE
EE00EE
EE00CE
E701CE
E7018E
E3038E
E3838E
E3830E
E1C70E
E1C60E
E0CE0E
E0EE0E
E0EC0E
E07C0E
E0780E
E0380E
E0380E
E0000E
ENDCHAR
STARTCHAR 1E3F
ENCODING 7743
SWIDTH 875 0
DWIDTH 28 0
BBX 22 23 3 0
BITMAP
000E00
000C00
001800
003800
000000
000000
000000
C7C3E0
DFE7F8
D8FE38
F0781C
E0781C
E0301C
E0301C
E0301C
E0301C
E0301C
E0301C
E0301C
E0301C
E0301C
E0301C
E0301C
ENDCHAR
STARTCHAR 1F70
ENCODING 8048
SWIDTH 625 0
DWIDTH 20 0
BBX 16 23 2 0
BITMAP
0E00
0600
0700
0300
0000
0000
0000
0FC6
3FF6
783E
701E
E00E
E00E
E00E
C00E
C00E
E00E
E00E
E01E
701E
7876
3FE6
0FC7
ENDCHAR
STARTCHAR 1F71
ENCODING 8049
SWIDTH 625 0
DWIDTH 20 0
BBX 16 23 2 0
BITMAP
00E0
00C0
01C0
0180
0000
0000
0000
0FC6
3FF6
783E
701E
E00E
E00E
E00E
C00E
C00E
E00E
E00E
E01E
701E
7876
3FE6
0FC7
ENDCHAR
STARTCHAR 1F72
ENCODING 8050
SWIDTH 500 0
DWIDTH 16 0
BBX 13 23 2 0
BITMAP
1C00
0E00
0600
0300
0000
0000
0000
0FF8
3FF0
7010
E000
E000
7000
7FC0
0FC0
7FC0
F000
E000
E000
E000
F018
7FF8
1FF0
ENDCHAR
STARTCHAR 1F73
ENCODING 8051
SWIDTH 500 0
DWIDTH 16 0
BBX 13 23 2 0
BITMAP
00E0
01C0
0180
0300
0000
0000
0000
0FF8
3FF0
7010
E000
E000
7000
7FC0
0FC0
7FC0
F000
E000
E000
E000
F018
7FF8
1FF0
ENDCHAR
STARTCHAR 2002
ENCODING 8194
SWIDTH 500 0
DWIDTH 16 0
BBX 0 0 0 0
BITMAP
ENDCHAR
STARTCHAR 2003
ENCODING 8195
SWIDTH 1000 0
DWIDTH 32 0
BBX 0 0 0 0
BITMAP
ENDCHAR
STARTCHAR 2010
ENCODING 8208
SWIDTH 343 0
DWIDTH 11 0
BBX 8 2 2 9
BITMAP
FF
FF
ENDCHAR
STARTCHAR 2011
ENCODING 8209
SWIDTH 343 0
DWIDTH 11 0
BBX 8 2 2 9
BITMAP
FF
FF
ENDCHAR
STARTCHAR 2012
ENCODING 8210
SWIDTH 343 0
DWIDTH 11 0
BBX 8 2 2 9
BITMAP
FF
FF
ENDCHAR
STARTCHAR 2013
ENCODING 8211
SWIDTH 562 0
DWIDTH 18 0
BBX 14 2 2 9
BITMAP
FFFC
FFFC
ENDCHAR
STARTCHAR 2014
ENCODING 8212
SWIDTH 968 0
DWIDTH 31 0
BBX 27 2 2 11
BITMAP
FFFFFFE0
FFFFFFE0
ENDCHAR
STARTCHAR 2015
ENCODING 8213
SWIDTH 1000 0
DWIDTH 32 0
BBX 28 3 2 10
BITMAP
FFFFFFF0
FFFFFFF0
FFFFFFF0
ENDCHAR
STARTCHAR 2016
ENCODING 8214
SWIDTH 1000 0
DWIDTH 32 0
BBX 10 32 11 -4
BITMAP
E1C0
E1C0
E1C0
E1C0
E1C0
E1C0
E1C0
E1C0
E1C0
E1C0
E1C0
E1C0
E1C0
E1C0
E1C0
E1C0
E1C0
E1C0
E1C0
E1C0
E1C0
E1C0
E1C0
E1C0
E1C0
E1C0
E1C0
E1C0
E1C0
E1C0
E1C0
E1C0
ENDCHAR
STARTCHAR 2018
ENCODING 8216
SWIDTH 1000 0
DWIDTH 32 0
BBX 4 9 26 18
BITMAP
30
60
60
C0
C0
F0
F0
F0
F0
ENDCHAR
STARTCHAR 2019
ENCODING 8217
SWIDTH 1000 0
DWIDTH 32 0
BBX 5 9 2 18
BITMAP
F8
F8
F8
F0
30
30
60
60
C0
ENDCHAR
STARTCHAR 201C
ENCODING 8220
SWIDTH 1000 0
DWIDTH 32 0
BBX 11 9 19 18
BITMAP
1860
30C0
60C0
6180
C180
F1E0
F1E0
F1E0
F1E0
ENDCHAR
STARTCHAR 201D
ENCODING 8221
SWIDTH 1000 0
DWIDTH 32 0
BBX 11 9 2 18
BITMAP
F9E0
F9E0
F9E0
F1E0
3060
30C0
60C0
6180
C300
ENDCHAR
STARTCHAR 2020
ENCODING 8224
SWIDTH 1000 0
DWIDTH 32 0
BBX 14 28 9 -2
BITMAP
0780
0780
0780
0780
0300
F33C
FFFC
FFFC
F33C
0300
0300
0780
0780
0780
0300
0300
0300
0300
0300
0300
0300
0300
0300
0300
0300
0300
0300
0300
ENDCHAR
STARTCHAR 2021
ENCODING 8225
SWIDTH 1000 0
DWIDTH 32 0
BBX 14 30 9 -3
BITMAP
0300
0780
0780
0300
7338
FFFC
FFFC
7338
0300
0780
0300
0300
0300
0300
0300
0300
0300
0300
0300
0780
0780
0300
7338
FFFC
FB7C
0300
0300
0780
0780
0300
ENDCHAR
STARTCHAR 2022
ENCODING 8226
SWIDTH 343 0
DWIDTH 11 0
BBX 8 8 2 7
BITMAP
38
7E
FE
FE
FF
FE
7E
3C
ENDCHAR
STARTCHAR 2025
ENCODING 8229
SWIDTH 1000 0
DWIDTH 32 0
BBX 20 4 6 10
BITMAP
F000F0
F000F0
F000F0
F000F0
ENDCHAR
STARTCHAR 2026
ENCODING 8230
SWIDTH 1000 0
DWIDTH 32 0
BBX 24 4 4 10
BITMAP
E03C07
E03C07
E03C07
E03C07
ENDCHAR
STARTCHAR 2030
ENCODING 8240
SWIDTH 1000 0
DWIDTH 32 0
BBX 28 28 2 -2
BITMAP
0000E000
3C00C000
7E018000
E6018000
C7030000
C3070000
C3060000
C30C0000
C31C0000
C3180000
C7380000
E6300000
7E600000
3CE00000
00CF03C0
019F87E0
0199C670
0338CE30
0730CC30
0630CC30
0C30CC30
1C30CC30
1830CC30
3838CE30
3019C670
601F87E0
E00F03C0
C0000000
ENDCHAR
STARTCHAR 2032
ENCODING 8242
SWIDTH 281 0
DWIDTH 9 0
BBX 4 9 2 18
BITMAP
30
30
70
60
60
60
40
C0
80
ENDCHAR
STARTCHAR 2033
ENCODING 8243
SWIDTH 437 0
DWIDTH 14 0
BBX 9 9 2 18
BITMAP
3180
3180
7180
6300
6300
6300
4200
C600
8600
ENDCHAR
STARTCHAR 203B
ENCODING 8251
SWIDTH 1000 0
DWIDTH 32 0
BBX 26 26 3 -1
BITMAP
40000080
E00C01C0
701E0380
381E0700
1C1C0E00
0E001C00
07003800
03807000
01C0E000
00E1C000
00738000
703F0380
F81E07C0
F81E07C0
703F0380
00738000
00E1C000
01C0E000
03807000
07003800
0E001C00
1C0C0E00
381E0700
701E0380
E01C01C0
C00000C0
ENDCHAR
STARTCHAR 203C
ENCODING 8252
SWIDTH 500 0
DWIDTH 16 0
BBX 10 23 3 0
BITMAP
E1C0
E1C0
E1C0
E1C0
E1C0
E1C0
E1C0
E1C0
E180
E180
E180
6180
6180
6180
6180
6180
6180
0000
0000
0000
E3C0
E3C0
E3C0
ENDCHAR
STARTCHAR 203E
ENCODING 8254
SWIDTH 500 0
DWIDTH 16 0
BBX 8 2 4 20
BITMAP
FF
FF
ENDCHAR
STARTCHAR 203F
ENCODING 8255
SWIDTH 437 0
DWIDTH 14 0
BBX 14 4 0 -5
BITMAP
C004
F03C
3FF8
0FC0
ENDCHAR
STARTCHAR 2042
ENCODING 8258
SWIDTH 1000 0
DWIDTH 32 0
BBX 24 24 4 0
BITMAP
001800
001800
019980
01DB80
00F700
001800
007600
01DB80
019980
001800
001800
000000
000000
0C0030
0C0030
44C332
75C3AE
3F00FC
0C0030
3781EC
E5C3A7
4CC332
0C0030
0C0030
ENDCHAR
STARTCHAR 2047
ENCODING 8263
SWIDTH 1000 0
DWIDTH 32 0
BBX 30 23 1 0
BITMAP
07C00FC0
1FF03FE0
38787870
701CE038
601CE018
E01CC01C
E01DC01C
001C0038
001C0038
00380078
007000F0
00E001E0
01C003C0
03800300
03000700
03000700
03000600
03000600
00000000
00000000
07800700
07800700
07800700
ENDCHAR
STARTCHAR 2048
ENCODING 8264
SWIDTH 781 0
DWIDTH 25 0
BBX 20 23 1 0
BITMAP
07E070
1FF870
3C3C70
701C70
600E70
E00E70
600E70
000C70
001C30
003830
007830
00E030
01C030
018030
038030
038030
030030
030000
000000
000000
038070
038070
038070
ENDCHAR
STARTCHAR 2049
ENCODING 8265
SWIDTH 781 0
DWIDTH 25 0
BBX 20 23 3 0
BITMAP
E03F00
E0FFC0
E1E1E0
E380E0
E38070
E70070
E10070
E00070
E000E0
E001E0
E003C0
600780
600E00
600E00
601C00
601C00
601C00
001C00
000000
000000
E01C00
E01C00
E01C00
ENDCHAR
STARTCHAR 2051
ENCODING 8273
SWIDTH 1000 0
DWIDTH 32 0
BBX 10 24 11 0
BITMAP
0C00
0C00
CCC0
EB80
1E00
1E00
EBC0
CCC0
0C00
0C00
0000
0000
0000
0000
0C00
0C00
CCC0
EDC0
3B00
0C00
FB80
CCC0
0C00
0C00
ENDCHAR
STARTCHAR 205A
ENCODING 8282
SWIDTH 1000 0
DWIDTH 32 0
BBX 4 20 14 2
BITMAP
F0
F0
F0
F0
00
00
00
00
00
00
00
00
00
00
00
00
F0
F0
F0
F0
ENDCHAR
STARTCHAR 205D
ENCODING 8285
SWIDTH 1000 0
DWIDTH 32 0
BBX 4 25 14 0
BITMAP
F0
F0
F0
F0
00
00
00
00
00
00
00
F0
F0
F0
F0
00
00
00
00
00
00
F0
F0
F0
F0
ENDCHAR
STARTCHAR 20AC
ENCODING 8364
SWIDTH 625 0
DWIDTH 20 0
BBX 18 23 1 0
BITMAP
00FC00
03FF00
0783C0
0F0180
0E0000
1C0000
1C0000
380000
FFFF00
FFFF00
380000
380000
380000
FFFF00
FFFF00
380000
380000
1C0000
1C0000
0E0180
0783C0
03FF80
00FC00
ENDCHAR
STARTCHAR 2103
ENCODING 8451
SWIDTH 1000 0
DWIDTH 32 0
BBX 26 25 2 1
BITMAP
78000000
C4000000
8607F000
861FFC00
867FFE00
C4F81F00
78E00780
01C00380
01C001C0
03800000
03800000
03800000
03800000
03800000
03800000
03800000
03800000
038001C0
03C001C0
01C003C0
01E00780
00F81F00
007FFE00
001FFC00
0007F000
ENDCHAR
STARTCHAR 210F
ENCODING 8463
SWIDTH 593 0
DWIDTH 19 0
BBX 15 24 1 0
BITMAP
0600
0E00
0E00
0FE0
7FE0
7C00
1C00
1C00
1C78
19FC
1B8E
3A0E
3C0E
3C0E
380E
780E
700C
701C
701C
601C
E018
E018
E038
C038
ENDCHAR
STARTCHAR 2113
ENCODING 8467
SWIDTH 1000 0
DWIDTH 32 0
BBX 17 23 7 0
BITMAP
007800
00FC00
01CE00
038600
030600
070600
060600
0E0E00
0E0E00
0C0C00
0C0C00
0C1C00
0C1800
0C3800
0C7000
0CE000
0CE000
0FC100
0F8380
1E0700
FF0E00
73FC00
00F800
ENDCHAR
STARTCHAR 2116
ENCODING 8470
SWIDTH 1000 0
DWIDTH 32 0
BBX 28 23 2 1
BITMAP
F0380000
F0380000
F8380000
F8380000
F8380000
FC380000
EC383800
EE38FE00
E638C600
E639C300
E7398300
E3398300
E3B98380
E1BB8380
E1BB8380
E1FB8380
E0F98380
E0F98380
E0798300
E079C370
E038C770
E038FE70
00003C00
ENDCHAR
STARTCHAR 2121
ENCODING 8481
SWIDTH 1000 0
DWIDTH 32 0
BBX 28 22 2 2
BITMAP
FFE00000
FFE00000
0C000000
0C000000
0C000000
0C000000
0C3FCE00
0C3FCE00
0C300E00
0C300E00
0C300E00
0C300E00
0C300E00
0C3F8E00
0C3F8E00
0C300E00
0C300E00
0C300E00
0C300E00
0C300E00
0C3FCFF0
0C3FCFF0
ENDCHAR
STARTCHAR 2127
ENCODING 8487
SWIDTH 843 0
DWIDTH 27 0
BBX 21 23 3 0
BITMAP
FF07F8
FF07F8
030600
0F0780
1E0380
1C01C0
3800E0
3800E0
700070
700070
700070
700070
700070
700070
700070
700070
7000F0
3800E0
3C01E0
1C03C0
0F0780
07FF00
01FC00
ENDCHAR
STARTCHAR 212B
ENCODING 8491
SWIDTH 1000 0
DWIDTH 32 0
BBX 20 25 6 2
BITMAP
00F000
019800
010800
010800
011800
00F000
00F000
00F000
01F800
01F800
039C00
039C00
070E00
070E00
060600
0E0700
0C0300
1FFF80
1FFF80
3801C0
3000C0
7000E0
7000E0
E00070
E00070
ENDCHAR
STARTCHAR 2135
ENCODING 8501
SWIDTH 687 0
DWIDTH 22 0
BBX 19 23 1 0
BITMAP
080100
180300
300300
300380
7001C0
7003E0
380360
3E0660
1F0E00
07CC00
1FF800
38F800
387C00
381F00
380F80
3803C0
3801C0
1C01C0
1C00C0
1C00C0
1C01C0
F80180
700300
ENDCHAR
STARTCHAR 2153
ENCODING 8531
SWIDTH 843 0
DWIDTH 27 0
BBX 23 25 2 -1
BITMAP
000010
3C0030
FC0030
4C0060
0C00C0
0C00C0
0C0180
0C0300
0C0600
0C0600
0C0C00
0C1878
0C19FC
00318E
006186
00C006
00C00E
018078
03007C
070006
060006
0C0386
1801FE
1800F8
100000
ENDCHAR
STARTCHAR 2154
ENCODING 8532
SWIDTH 843 0
DWIDTH 27 0
BBX 23 25 2 -1
BITMAP
000010
3E0038
7F0030
E38060
4180C0
0380C0
070180
1E0300
780700
600600
C00C00
FF9800
FF987C
0031FE
006186
00C006
00C00E
018078
03007C
070006
060006
0C0386
1801FE
1800F8
100000
ENDCHAR
STARTCHAR 2155
ENCODING 8533
SWIDTH 843 0
DWIDTH 27 0
BBX 24 25 2 -1
BITMAP
000010
3C0030
FC0030
4C0060
0C00C0
0C00C0
0C0180
0C0300
0C0600
0C0600
0C0C00
0C1800
0C18FE
0030FE
006080
00C180
00C1B8
0181FE
030186
070007
060007
0C0086
1801FE
1800FC
100000
ENDCHAR
STARTCHAR 2160
ENCODING 8544
SWIDTH 1000 0
DWIDTH 32 0
BBX 4 22 14 2
BITMAP
F0
F0
F0
F0
F0
F0
F0
F0
F0
F0
F0
F0
F0
F0
F0
F0
F0
F0
F0
F0
F0
F0
ENDCHAR
STARTCHAR 2161
ENCODING 8545
SWIDTH 1000 0
DWIDTH 32 0
BBX 12 22 10 2
BITMAP
E070
E070
E070
E070
E070
E070
E070
E070
E070
E070
E070
E070
E070
E070
E070
E070
E070
E070
E070
E070
E070
E070
ENDCHAR
STARTCHAR 2162
ENCODING 8546
SWIDTH 1000 0
DWIDTH 32 0
BBX 20 22 6 2
BITMAP
E06070
E06070
E06070
E06070
E06070
E06070
E06070
E06070
E06070
E06070
E06070
E06070
E06070
E06070
E06070
E06070
E06070
E06070
E06070
E06070
E06070
E06070
ENDCHAR
STARTCHAR 2163
ENCODING 8547
SWIDTH 1000 0
DWIDTH 32 0
BBX 24 22 5 2
BITMAP
E70007
E7000F
E3800E
E3800E
E3C01E
E1C01C
E1C01C
E0E038
E0E038
E0E038
E07070
E07070
E07070
E038E0
E038E0
E018C0
E01DC0
E01DC0
E00F80
E00F80
E00F80
E00700
ENDCHAR
STARTCHAR 2164
ENCODING 8548
SWIDTH 1000 0
DWIDTH 32 0
BBX 20 22 6 2
BITMAP
E00070
E00070
7000E0
7000E0
7801E0
3801C0
3801C0
1C0380
1C0380
1C0380
0E0700
0E0700
070E00
070E00
070E00
039C00
039C00
01F800
01F800
01F800
00F000
00F000
ENDCHAR
STARTCHAR 2165
ENCODING 8549
SWIDTH 1000 0
DWIDTH 32 0
BBX 24 22 3 2
BITMAP
E000E7
E000E7
7001C7
7001C7
7803C7
380387
380387
1C0707
1C0707
1C0707
0E0E07
0E0E07
0E0E07
071C07
071C07
031807
03B807
03B807
01F007
01F007
01F007
00E007
ENDCHAR
STARTCHAR 2166
ENCODING 8550
SWIDTH 1000 0
DWIDTH 32 0
BBX 27 22 2 2
BITMAP
E00738E0
700738E0
700E38E0
700E38E0
300E38E0
380C38E0
381C38E0
381C38E0
1C1C38E0
1C3838E0
1C3838E0
0C3838E0
0E3038E0
0E7038E0
0E7038E0
067038E0
076038E0
07E038E0
03E038E0
03C038E0
03C038E0
03C038E0
ENDCHAR
STARTCHAR 2167
ENCODING 8551
SWIDTH 1000 0
DWIDTH 32 0
BBX 27 22 2 2
BITMAP
E01CCE60
E018CE60
E038CE60
6038CE60
7038CE60
7038CE60
7030CE60
3070CE60
3870CE60
3870CE60
3860CE60
18E0CE60
18E0CE60
1CE0CE60
1CC0CE60
0DC0CE60
0DC0CE60
0FC0CE60
0F80CE60
0780CE60
0780CE60
0780CE60
ENDCHAR
STARTCHAR 2168
ENCODING 8552
SWIDTH 1000 0
DWIDTH 32 0
BBX 24 22 5 2
BITMAP
E1C01E
E1E01C
E0E038
E07038
E07870
E038F0
E01CE0
E01DC0
E00FC0
E00F80
E00700
E00F80
E00FC0
E01DC0
E03CE0
E03870
E07078
E0F038
E0E03C
E1C01E
E3C00E
E3800F
ENDCHAR
STARTCHAR 2169
ENCODING 8553
SWIDTH 1000 0
DWIDTH 32 0
BBX 22 22 5 2
BITMAP
380070
1C00E0
1E01E0
0F03C0
070380
038700
03CF00
01CE00
00FC00
007800
007800
00F800
00FC00
01CE00
03CF00
078780
0F03C0
0E01C0
1E01E0
3C00F0
780078
F0003C
ENDCHAR
STARTCHAR 216A
ENCODING 8554
SWIDTH 1000 0
DWIDTH 32 0
BBX 24 22 3 2
BITMAP
780387
380707
1C0707
1C0E07
0E1E07
0F1C07
073807
03B807
03F007
01F007
01E007
01F007
03F007
07B807
073C07
0E1C07
1E0E07
1C0F07
3C0707
780387
7003C7
F001C7
ENDCHAR
STARTCHAR 216B
ENCODING 8555
SWIDTH 1000 0
DWIDTH 32 0
BBX 27 22 2 2
BITMAP
700E38E0
381C38E0
181C38E0
1C3838E0
0E3838E0
0E7038E0
077038E0
07E038E0
03C038E0
03C038E0
03C038E0
03C038E0
07E038E0
076038E0
0E7038E0
0E3838E0
1C3838E0
381C38E0
381C38E0
700E38E0
700E38E0
E00738E0
ENDCHAR
STARTCHAR 2170
ENCODING 8560
SWIDTH 1000 0
DWIDTH 32 0
BBX 4 22 14 2
BITMAP
F0
F0
F0
00
00
00
00
60
60
60
60
60
60
60
60
60
60
60
60
60
60
60
ENDCHAR
STARTCHAR 2171
ENCODING 8561
SWIDTH 1000 0
DWIDTH 32 0
BBX 12 22 10 2
BITMAP
E070
E070
E070
0000
0000
0000
0000
E070
E070
E070
E070
E070
E070
E070
E070
E070
E070
E070
E070
E070
E070
E070
ENDCHAR
STARTCHAR 2172
ENCODING 8562
SWIDTH 1000 0
DWIDTH 32 0
BBX 18 22 7 2
BITMAP
E1E1C0
E1E1C0
E1E1C0
000000
000000
000000
000000
60C180
60C180
60C180
60C180
60C180
60C180
60C180
60C180
60C180
60C180
60C180
60C180
60C180
60C180
60C180
ENDCHAR
STARTCHAR 2173
ENCODING 8563
SWIDTH 1000 0
DWIDTH 32 0
BBX 20 22 7 2
BITMAP
E00000
E00000
E00000
000000
000000
000000
000000
E70070
E38070
E380E0
E180E0
E1C0E0
E1C1C0
E0E1C0
E0E380
E07380
E07300
E03700
E03F00
E03E00
E01E00
E01C00
ENDCHAR
STARTCHAR 2174
ENCODING 8564
SWIDTH 1000 0
DWIDTH 32 0
BBX 16 15 8 2
BITMAP
E007
E007
700E
700E
381C
381C
381C
1C38
1C38
0E70
0E70
07E0
07E0
03C0
03C0
ENDCHAR
STARTCHAR 2175
ENCODING 8565
SWIDTH 1000 0
DWIDTH 32 0
BBX 20 22 5 2
BITMAP
000070
000070
000070
000000
000000
000000
000000
E00E70
E01C70
701C70
701870
703870
383870
387070
1C7070
1CE070
0CE070
0EC070
0FC070
07C070
078070
038070
ENDCHAR
STARTCHAR 2176
ENCODING 8566
SWIDTH 1000 0
DWIDTH 32 0
BBX 25 22 3 2
BITMAP
0000E380
0000E380
0000E380
00000000
00000000
00000000
00000000
E01CC300
6018C300
7038C300
7038C300
3030C300
3870C300
1870C300
1C60C300
1CE0C300
0CC0C300
0EC0C300
0FC0C300
0780C300
0780C300
0780C300
ENDCHAR
STARTCHAR 2177
ENCODING 8567
SWIDTH 1000 0
DWIDTH 32 0
BBX 27 22 2 2
BITMAP
0001CEE0
0001CEE0
0001CEE0
00000000
00000000
00000000
00000000
E01CCCE0
701CCCE0
7038CCE0
3038CCE0
3830CCE0
3870CCE0
1870CCE0
1C60CCE0
1CE0CCE0
0CE0CCE0
0EC0CCE0
07C0CCE0
0780CCE0
0780CCE0
0380CCE0
ENDCHAR
STARTCHAR 2178
ENCODING 8568
SWIDTH 1000 0
DWIDTH 32 0
BBX 22 22 6 2
BITMAP
E00000
E00000
E00000
000000
000000
000000
000000
E3C078
E1C0F0
E0E0E0
E071C0
E03B80
E03F80
E01F00
E01E00
E01F00
E03B80
E071C0
E0E0E0
E1E0F0
E3C078
E7803C
ENDCHAR
STARTCHAR 2179
ENCODING 8569
SWIDTH 1000 0
DWIDTH 32 0
BBX 18 15 7 2
BITMAP
780780
3C0F00
1E1E00
0E1C00
073800
03F000
01E000
01E000
03F000
073800
0F3C00
1E1E00
3C0F00
780780
F003C0
ENDCHAR
STARTCHAR 217A
ENCODING 8570
SWIDTH 1000 0
DWIDTH 32 0
BBX 22 22 4 2
BITMAP
00001C
00001C
00001C
000000
000000
000000
000000
780F1C
3C0E1C
1C1C1C
0E381C
07701C
07F01C
03E01C
01E01C
03E01C
07701C
0E381C
1C1C1C
3C1E1C
780F1C
F0079C
ENDCHAR
STARTCHAR 217B
ENCODING 8571
SWIDTH 1000 0
DWIDTH 32 0
BBX 25 22 3 2
BITMAP
0000E380
0000E380
0000E380
00000000
00000000
00000000
00000000
70386380
38386380
1C706380
1CE06380
0EE06380
07C06380
07806380
07806380
07C06380
0EE06380
1CE06380
1C706380
38386380
70386380
F01C6380
ENDCHAR
STARTCHAR 2190
ENCODING 8592
SWIDTH 1000 0
DWIDTH 32 0
BBX 28 12 2 6
BITMAP
03C00000
07800000
0E000000
1C000000
78000000
FFFFFFF0
FFFFFFF0
78000000
1C000000
0E000000
07800000
03C00000
ENDCHAR
STARTCHAR 2191
ENCODING 8593
SWIDTH 1000 0
DWIDTH 32 0
BBX 12 28 10 -1
BITMAP
0600
0F00
0F00
1F80
3FC0
76E0
E670
C630
C630
8610
0600
0600
0600
0600
0600
0600
0600
0600
0600
0600
0600
0600
0600
0600
0600
0600
0600
0600
ENDCHAR
STARTCHAR 2192
ENCODING 8594
SWIDTH 1000 0
DWIDTH 32 0
BBX 28 12 2 6
BITMAP
00003C00
00001E00
00000700
00000380
000001E0
FFFFFFF0
FFFFFFF0
000001E0
00000380
00000700
00001E00
00003C00
ENDCHAR
STARTCHAR 2193
ENCODING 8595
SWIDTH 1000 0
DWIDTH 32 0
BBX 12 28 10 -2
BITMAP
0600
0600
0600
0600
0600
0600
0600
0600
0600
0600
0600
0600
0600
0600
0600
0600
0600
0600
8610
C630
E670
6660
76E0
3FC0
1F80
0F00
0600
0600
ENDCHAR
STARTCHAR 2194
ENCODING 8596
SWIDTH 750 0
DWIDTH 24 0
BBX 20 14 2 3
BITMAP
040600
0E0600
1C0300
180180
3000C0
6000E0
FFFFF0
FFFFF0
600060
3000C0
180180
0C0300
0E0600
040400
ENDCHAR
STARTCHAR 2196
ENCODING 8598
SWIDTH 1000 0
DWIDTH 32 0
BBX 23 23 5 0
BITMAP
F80000
FFC000
FFE000
F80000
FC0000
6E0000
670000
638000
61C000
60E000
207000
003800
001C00
000E00
000700
000380
0001C0
0000E0
000070
000038
00001C
00000E
000004
ENDCHAR
STARTCHAR 2197
ENCODING 8599
SWIDTH 1000 0
DWIDTH 32 0
BBX 23 23 4 0
BITMAP
00003E
0007FE
000FFE
00003E
00007E
0000EC
0001CC
00038C
00070C
000E0C
001C08
003800
007000
00E000
01C000
038000
070000
0E0000
1C0000
380000
700000
E00000
400000
ENDCHAR
STARTCHAR 2198
ENCODING 8600
SWIDTH 1000 0
DWIDTH 32 0
BBX 23 23 4 1
BITMAP
400000
E00000
700000
380000
1C0000
0E0000
070000
038000
01C000
00E000
007000
003800
001C08
000E0C
00070C
00038C
0001CC
0000EC
00007E
00003E
000FFE
0007FE
00003E
ENDCHAR
STARTCHAR 2199
ENCODING 8601
SWIDTH 1000 0
DWIDTH 32 0
BBX 23 23 5 1
BITMAP
000004
00000E
00001C
000038
000070
0000E0
0001C0
000380
000700
000E00
001C00
003800
207000
60E000
61C000
638000
670000
6E0000
FC0000
F80000
FFE000
FFC000
F80000
ENDCHAR
STARTCHAR 21C4
ENCODING 8644
SWIDTH 1000 0
DWIDTH 32 0
BBX 28 24 2 0
BITMAP
00003C00
00000E00
00000780
000001C0
FFFFFFF0
FFFFFFF0
000001C0
00000380
00000F00
00001E00
00003C00
00000000
00000000
03C00000
07000000
1E000000
38000000
FFFFFFF0
FFFFFFF0
38000000
1C000000
0F000000
07800000
03C00000
ENDCHAR
STARTCHAR 21D2
ENCODING 8658
SWIDTH 750 0
DWIDTH 24 0
BBX 20 15 2 3
BITMAP
000400
000E00
000700
000380
FFFF80
FFFFC0
000060
000030
000060
FFFFC0
FFFF80
000380
000700
000E00
000400
ENDCHAR
STARTCHAR 21D4
ENCODING 8660
SWIDTH 750 0
DWIDTH 24 0
BBX 20 15 2 3
BITMAP
020400
060E00
0C0700
180380
3FFF80
7FFFC0
E00060
C00030
E00060
7FFFC0
3FFF80
180380
0C0700
060E00
020400
ENDCHAR
STARTCHAR 21E6
ENCODING 8678
SWIDTH 1000 0
DWIDTH 32 0
BBX 27 11 2 6
BITMAP
00800000
03800000
06800000
18FFFFE0
30FFFFE0
C0000020
30FFFFE0
18FFFFE0
06800000
03800000
00800000
ENDCHAR
STARTCHAR 21E7
ENCODING 8679
SWIDTH 1000 0
DWIDTH 32 0
BBX 10 27 11 -1
BITMAP
0800
0C00
1E00
1200
2100
6100
4080
C0C0
F3C0
1200
1200
1200
1200
1200
1200
1200
1200
1200
1200
1200
1200
1200
1200
1200
1200
1200
1E00
ENDCHAR
STARTCHAR 21E8
ENCODING 8680
SWIDTH 1000 0
DWIDTH 32 0
BBX 27 11 3 6
BITMAP
00002000
00003800
00002C00
FFFFE300
FFFFE180
80000060
FFFFE180
FFFFE300
00002C00
00003800
00002000
ENDCHAR
STARTCHAR 21E9
ENCODING 8681
SWIDTH 1000 0
DWIDTH 32 0
BBX 10 26 11 -2
BITMAP
1E00
1200
1200
1200
1200
1200
1200
1200
1200
1200
1200
1200
1200
1200
1200
1200
1200
1200
F3C0
C0C0
4080
2100
3300
1200
1E00
0C00
ENDCHAR
STARTCHAR 2200
ENCODING 8704
SWIDTH 750 0
DWIDTH 24 0
BBX 22 24 1 -1
BITMAP
400000
C0000C
E00018
600018
700030
300030
380060
180060
1FFFC0
0FFFC0
0C01C0
060180
060380
030300
030300
038600
018600
018C00
00CC00
00D800
007800
007000
003000
002000
ENDCHAR
STARTCHAR 2202
ENCODING 8706
SWIDTH 593 0
DWIDTH 19 0
BBX 15 26 2 -1
BITMAP
03C0
0FF0
1C38
1818
101C
000C
000C
000C
000E
000E
0FCE
1FEE
387E
703E
E01E
E01C
C01C
C01C
C01C
C018
C038
E030
E070
70E0
3FC0
1F00
ENDCHAR
STARTCHAR 2203
ENCODING 8707
SWIDTH 750 0
DWIDTH 24 0
BBX 16 23 3 0
BITMAP
FFFF
FFFF
0003
0003
0003
0003
0003
0003
0003
0003
FFFF
FFFF
0003
0003
0003
0003
0003
0003
0003
0003
0003
FFFF
FFFF
ENDCHAR
STARTCHAR 2205
ENCODING 8709
SWIDTH 781 0
DWIDTH 25 0
BBX 21 20 2 2
BITMAP
01FC10
07FF30
0E03E0
1800C0
3001E0
600330
600630
C00C18
C01818
C03018
C06018
C0C018
C18010
430030
660030
3C0060
3801C0
3E0780
6FFF00
41FC00
ENDCHAR
STARTCHAR 2207
ENCODING 8711
SWIDTH 750 0
DWIDTH 24 0
BBX 21 23 1 -1
BITMAP
FFFFF8
7FFFF8
700038
380030
380030
1C0060
1C0060
1C00C0
0E00C0
0E0180
070180
070300
038300
038300
01C600
01C600
01CC00
00EC00
00F800
007800
007000
003000
002000
ENDCHAR
STARTCHAR 2208
ENCODING 8712
SWIDTH 687 0
DWIDTH 22 0
BBX 18 16 2 2
BITMAP
03FFC0
1FFFC0
3C0000
700000
600000
C00000
C00000
FFFFC0
FFFFC0
C00000
C00000
600000
700000
380000
1FFFC0
07FFC0
ENDCHAR
STARTCHAR 2209
ENCODING 8713
SWIDTH 687 0
DWIDTH 22 0
BBX 18 20 2 0
BITMAP
000C00
000C00
03FFC0
1FFFC0
3C1800
703000
603000
C06000
C06000
FFFFC0
FFFFC0
C0C000
C18000
618000
718000
3B0000
1FFFC0
07FFC0
060000
060000
ENDCHAR
STARTCHAR 220B
ENCODING 8715
SWIDTH 687 0
DWIDTH 22 0
BBX 18 16 2 2
BITMAP
FFF000
FFFC00
000F00
000300
000180
000180
0000C0
FFFFC0
FFFFC0
0000C0
000080
000180
000380
000F00
FFFE00
FFF800
ENDCHAR
STARTCHAR 2212
ENCODING 8722
SWIDTH 687 0
DWIDTH 22 0
BBX 18 2 2 9
BITMAP
FFFFC0
FFFFC0
ENDCHAR
STARTCHAR 2213
ENCODING 8723
SWIDTH 687 0
DWIDTH 22 0
BBX 18 19 2 0
BITMAP
FFFFC0
FFFFC0
000000
000000
00C000
00C000
00C000
00C000
00C000
00C000
FFFFC0
FFFFC0
00C000
00C000
00C000
00C000
00C000
00C000
00C000
ENDCHAR
STARTCHAR 2219
ENCODING 8729
SWIDTH 250 0
DWIDTH 8 0
BBX 4 4 2 8
BITMAP
F0
F0
F0
F0
ENDCHAR
STARTCHAR 221A
ENCODING 8730
SWIDTH 625 0
DWIDTH 20 0
BBX 18 30 2 -2
BITMAP
0000C0
0000C0
000180
000180
000180
000300
000300
000700
000600
000600
000E00
000C00
000C00
001C00
101800
101800
183800
383000
3C3000
6C6000
6C6000
CE6000
C6C000
C7C000
83C000
838000
038000
018000
010000
010000
ENDCHAR
STARTCHAR 221D
ENCODING 8733
SWIDTH 687 0
DWIDTH 22 0
BBX 16 10 3 5
BITMAP
3E0F
7F1F
E3B0
C1E0
80C0
80E0
C1E0
E3B0
7F3F
3C0F
ENDCHAR
STARTCHAR 221E
ENCODING 8734
SWIDTH 687 0
DWIDTH 22 0
BBX 19 10 1 5
BITMAP
1E0780
3F9FC0
61B8E0
40F060
C0E020
C0E020
40F060
61B8E0
3F1FC0
1E0F80
ENDCHAR
STARTCHAR 221F
ENCODING 8735
SWIDTH 687 0
DWIDTH 22 0
BBX 17 20 3 2
BITMAP
C00000
C00000
C00000
C00000
C00000
C00000
C00000
C00000
C00000
C00000
C00000
C00000
C00000
C00000
C00000
C00000
C00000
C00000
FFFF80
FFFF80
ENDCHAR
STARTCHAR 2220
ENCODING 8736
SWIDTH 687 0
DWIDTH 22 0
BBX 20 20 1 2
BITMAP
001000
003000
007000
006000
00E000
00C000
018000
018000
030000
030000
060000
060000
0C0000
0C0000
180000
380000
300000
600000
7FFFF0
FFFFF0
ENDCHAR
STARTCHAR 2225
ENCODING 8741
SWIDTH 687 0
DWIDTH 22 0
BBX 18 28 2 -2
BITMAP
0031C0
006180
006180
00E380
00C300
00C300
01C700
018600
018600
038C00
030C00
031C00
071800
061800
063800
0C3000
0C3000
1C7000
186000
186000
38E000
30C000
30C000
71C000
618000
618000
E30000
410000
ENDCHAR
STARTCHAR 2226
ENCODING 8742
SWIDTH 687 0
DWIDTH 22 0
BBX 18 28 2 -2
BITMAP
002180
007180
006180
006380
00C300
00C300
01C700
C18600
F18600
3B8E00
1F0C00
0F0C00
079C00
07D800
06F800
0E7000
0C3800
0C7E00
186700
186380
38E1C0
30C080
30C000
71C000
618000
618000
E38000
C30000
ENDCHAR
STARTCHAR 2227
ENCODING 8743
SWIDTH 687 0
DWIDTH 22 0
BBX 17 18 2 1
BITMAP
00C000
00C000
01E000
01E000
033000
033000
061800
061800
0C0C00
0C0C00
180C00
180600
300600
300300
600300
600180
C00180
400080
ENDCHAR
STARTCHAR 2228
ENCODING 8744
SWIDTH 687 0
DWIDTH 22 0
BBX 17 18 2 1
BITMAP
400080
C00180
600180
600300
300300
300600
180600
180C00
0C0C00
0C0C00
061800
061800
033000
033000
01E000
01E000
00C000
00C000
ENDCHAR
STARTCHAR 2229
ENCODING 8745
SWIDTH 687 0
DWIDTH 22 0
BBX 16 19 3 1
BITMAP
07E0
1FF8
383C
700C
6006
C006
C006
C003
C003
C003
C003
C003
C003
C003
C003
C003
C003
C003
C003
ENDCHAR
STARTCHAR 222A
ENCODING 8746
SWIDTH 687 0
DWIDTH 22 0
BBX 16 19 3 0
BITMAP
C003
C003
C003
C003
C003
C003
C003
C003
C003
C003
C003
C002
C006
C006
6006
700C
383C
1FF8
07E0
ENDCHAR
STARTCHAR 222B
ENCODING 8747
SWIDTH 562 0
DWIDTH 18 0
BBX 16 29 1 -6
BITMAP
003C
007E
00E6
00C3
00C3
00C0
00C0
00C0
01C0
01C0
0180
0180
0180
0180
0180
0180
0180
0180
0180
0180
0380
0380
0300
0300
C300
E300
6700
7E00
3C00
ENDCHAR
STARTCHAR 222C
ENCODING 8748
SWIDTH 906 0
DWIDTH 29 0
BBX 27 29 1 -6
BITMAP
003C0780
007E0FC0
00E61CC0
00C318E0
00C31860
00C01800
00C01800
00C03800
01C03800
01C03000
01803000
01803000
01803000
01803000
01803000
01803000
01803000
01803000
01803000
01807000
03807000
03806000
03006000
03006000
C3186000
E3186000
670CC000
7E0FC000
3C078000
ENDCHAR
STARTCHAR 222E
ENCODING 8750
SWIDTH 562 0
DWIDTH 18 0
BBX 16 29 1 -6
BITMAP
003C
007E
00E6
00C3
00C3
00C0
00C0
00C0
01C0
01C0
07E0
0DB0
0998
1988
1188
1988
0990
0DB0
03C0
0380
0380
0380
0300
0300
C300
E300
6700
7E00
3C00
ENDCHAR
STARTCHAR 2234
ENCODING 8756
SWIDTH 687 0
DWIDTH 22 0
BBX 17 16 2 2
BITMAP
01C000
01E000
01E000
01C000
000000
000000
000000
000000
000000
000000
000000
000000
700380
F00780
F00780
700380
ENDCHAR
STARTCHAR 2235
ENCODING 8757
SWIDTH 687 0
DWIDTH 22 0
BBX 17 16 2 2
BITMAP
700380
F00780
F00780
700380
000000
000000
000000
000000
000000
000000
000000
000000
01C000
01E000
01E000
01C000
ENDCHAR
STARTCHAR 223C
ENCODING 8764
SWIDTH 500 0
DWIDTH 16 0
BBX 10 4 3 19
BITMAP
7000
FCC0
CFC0
0780
ENDCHAR
STARTCHAR 223D
ENCODING 8765
SWIDTH 687 0
DWIDTH 22 0
BBX 19 10 1 5
BITMAP
1C0F80
3C1FC0
6038E0
407060
C06020
C0E020
40C060
63C0E0
3F87C0
1E0780
ENDCHAR
STARTCHAR 2243
ENCODING 8771
SWIDTH 687 0
DWIDTH 22 0
BBX 18 9 2 5
BITMAP
3E00C0
7FE180
E1FF80
003E00
000000
000000
000000
FFFFC0
FFFFC0
ENDCHAR
STARTCHAR 2245
ENCODING 8773
SWIDTH 687 0
DWIDTH 22 0
BBX 18 12 2 4
BITMAP
3E0080
7FC1C0
E1FF80
803E00
000000
000000
FFFFC0
FFFFC0
000000
000000
FFFFC0
FFFFC0
ENDCHAR
STARTCHAR 2248
ENCODING 8776
SWIDTH 687 0
DWIDTH 22 0
BBX 18 10 2 5
BITMAP
3E0080
7F80C0
E3E180
C07F80
001E00
000000
3E0080
7FE1C0
E1FF80
C03E00
ENDCHAR
STARTCHAR 2252
ENCODING 8786
SWIDTH 687 0
DWIDTH 22 0
BBX 18 20 2 0
BITMAP
380000
3C0000
3C0000
380000
000000
000000
FFFFC0
FFFFC0
000000
000000
000000
000000
FFFFC0
FFFFC0
000000
000000
000600
000F00
000F00
000600
ENDCHAR
STARTCHAR 2260
ENCODING 8800
SWIDTH 687 0
DWIDTH 22 0
BBX 18 20 2 0
BITMAP
001000
001800
003000
003000
003000
006000
FFFFC0
FFFFC0
00C000
00C000
00C000
018000
FFFFC0
FFFFC0
030000
030000
030000
060000
060000
020000
ENDCHAR
STARTCHAR 2261
ENCODING 8801
SWIDTH 687 0
DWIDTH 22 0
BBX 18 12 2 4
BITMAP
FFFFC0
FFFFC0
000000
000000
000000
FFFFC0
FFFFC0
000000
000000
000000
FFFFC0
FFFFC0
ENDCHAR
STARTCHAR 2262
ENCODING 8802
SWIDTH 687 0
DWIDTH 22 0
BBX 18 20 2 0
BITMAP
001000
001800
003000
003000
FFFFC0
FFFFC0
006000
006000
00C000
FFFFC0
FFFFC0
018000
018000
018000
FFFFC0
FFFFC0
030000
060000
060000
020000
ENDCHAR
STARTCHAR 2266
ENCODING 8806
SWIDTH 687 0
DWIDTH 22 0
BBX 18 20 2 1
BITMAP
0000C0
000FC0
007E00
03F000
1F0000
F80000
E00000
7E0000
0FC000
01F800
001F80
0003C0
000000
000000
FFFFC0
FFFFC0
000000
000000
FFFFC0
FFFFC0
ENDCHAR
STARTCHAR 2267
ENCODING 8807
SWIDTH 687 0
DWIDTH 22 0
BBX 18 20 2 1
BITMAP
C00000
F80000
1F0000
03F000
007E00
0007C0
0003C0
001F80
00F800
0FC000
7E0000
F00000
800000
000000
FFFFC0
FFFFC0
000000
000000
FFFFC0
FFFFC0
ENDCHAR
STARTCHAR 226A
ENCODING 8810
SWIDTH 687 0
DWIDTH 22 0
BBX 18 18 2 1
BITMAP
002080
00E1C0
01C380
038E00
0E1C00
1C3800
38E000
61C000
C38000
E38000
70C000
387000
0E3800
071C00
038700
00E380
0061C0
002000
ENDCHAR
STARTCHAR 226B
ENCODING 8811
SWIDTH 687 0
DWIDTH 22 0
BBX 18 18 2 1
BITMAP
810000
E38000
70E000
387000
0E3800
070E00
038700
00E380
0070C0
0061C0
01C380
038E00
071C00
1C3800
38E000
71C000
C38000
010000
ENDCHAR
STARTCHAR 2276
ENCODING 8822
SWIDTH 687 0
DWIDTH 22 0
BBX 18 22 2 0
BITMAP
000040
0003C0
003F80
01F800
1F8000
F80000
F00000
3E0000
07E000
007E00
800FC0
F800C0
3F0000
03F000
003E00
0007C0
0007C0
007E00
07F000
3F0000
F80000
800000
ENDCHAR
STARTCHAR 2277
ENCODING 8823
SWIDTH 687 0
DWIDTH 22 0
BBX 18 22 2 0
BITMAP
800000
F00000
7E0000
07E000
007C00
000FC0
0003C0
003F00
03F800
1F8000
FC00C0
C007C0
007F00
03F000
3F0000
F00000
F80000
1F0000
03F000
003F00
0007C0
000040
ENDCHAR
STARTCHAR 2282
ENCODING 8834
SWIDTH 687 0
DWIDTH 22 0
BBX 18 16 2 2
BITMAP
03FFC0
1FFFC0
3C0000
700000
600000
C00000
C00000
C00000
C00000
C00000
C00000
600000
700000
3C0000
1FFFC0
07FFC0
ENDCHAR
STARTCHAR 2283
ENCODING 8835
SWIDTH 687 0
DWIDTH 22 0
BBX 18 16 2 2
BITMAP
FFF000
FFFC00
000F00
000300
000180
000180
0000C0
0000C0
0000C0
0000C0
000180
000180
000380
000F00
FFFE00
FFF800
ENDCHAR
STARTCHAR 2284
ENCODING 8836
SWIDTH 687 0
DWIDTH 22 0
BBX 18 20 2 0
BITMAP
000600
000600
03FFC0
1FFFC0
3C0C00
701800
601800
C03000
C03000
C03000
C06000
C06000
C0C000
60C000
718000
3D8000
1FFFC0
07FFC0
030000
030000
ENDCHAR
STARTCHAR 2285
ENCODING 8837
SWIDTH 687 0
DWIDTH 22 0
BBX 18 21 2 0
BITMAP
003000
003000
FFF800
FFFE00
006700
00C380
00C180
018180
0180C0
0180C0
0300C0
0300C0
060180
060180
0C0300
0C0E00
FFFC00
FFF000
180000
180000
100000
ENDCHAR
STARTCHAR 2286
ENCODING 8838
SWIDTH 687 0
DWIDTH 22 0
BBX 18 19 2 2
BITMAP
0FFFC0
3FFFC0
780000
600000
C00000
C00000
C00000
C00000
C00000
C00000
600000
780000
3FFFC0
0FFFC0
000000
000000
000000
FFFFC0
FFFFC0
ENDCHAR
STARTCHAR 2287
ENCODING 8839
SWIDTH 687 0
DWIDTH 22 0
BBX 18 19 2 2
BITMAP
FFF800
FFFE00
000700
000380
000180
0000C0
0000C0
0000C0
0000C0
000180
000180
000700
FFFE00
FFFC00
000000
000000
000000
FFFFC0
FFFFC0
ENDCHAR
STARTCHAR 228A
ENCODING 8842
SWIDTH 687 0
DWIDTH 22 0
BBX 18 22 2 -1
BITMAP
0FFFC0
1FFFC0
780000
600000
C00000
C00000
C00000
C00000
C00000
C00000
600000
780000
3FFFC0
0FFFC0
000000
002000
006000
FFFFC0
FFFFC0
018000
018000
010000
ENDCHAR
STARTCHAR 228B
ENCODING 8843
SWIDTH 687 0
DWIDTH 22 0
BBX 18 22 2 -1
BITMAP
FFF800
FFFE00
000700
000180
000180
0000C0
0000C0
0000C0
0000C0
000180
000180
000700
FFFE00
FFFC00
000000
002000
006000
FFFFC0
FFFFC0
018000
018000
010000
ENDCHAR
STARTCHAR 2295
ENCODING 8853
SWIDTH 843 0
DWIDTH 27 0
BBX 24 23 2 0
BITMAP
00FE00
03FF80
0F01E0
1C1870
381838
70181C
60180C
C01806
C01806
C01802
9FFFF3
9FFFF3
801803
C01802
C01806
C01806
60180C
70180C
381838
1C1870
0F01E0
03FFC0
00FE00
ENDCHAR
STARTCHAR 2296
ENCODING 8854
SWIDTH 843 0
DWIDTH 27 0
BBX 24 23 2 0
BITMAP
00FE00
03FF80
0F01E0
1C0070
380038
70001C
60000C
C00006
C00006
C00002
9FFFF3
9FFFF3
800003
C00002
C00006
C00006
60000C
70000C
380038
1C0070
0F01E0
03FFC0
00FE00
ENDCHAR
STARTCHAR 2297
ENCODING 8855
SWIDTH 843 0
DWIDTH 27 0
BBX 24 23 2 0
BITMAP
00FE00
03FF80
0F01E0
1C0070
380038
7600DC
6701CC
C38386
C1C706
C0EE02
807C03
803803
807C03
C0EE02
C1C706
C38386
6701CC
7600CC
380038
1C0070
0F01E0
03FFC0
00FE00
ENDCHAR
STARTCHAR 22A5
ENCODING 8869
SWIDTH 687 0
DWIDTH 22 0
BBX 19 20 1 2
BITMAP
006000
006000
006000
006000
006000
006000
006000
006000
006000
006000
006000
006000
006000
006000
006000
006000
006000
006000
FFFFE0
FFFFE0
ENDCHAR
STARTCHAR 22BF
ENCODING 8895
SWIDTH 687 0
DWIDTH 22 0
BBX 19 20 2 2
BITMAP
000020
000060
0000E0
0001E0
0003E0
000760
000E60
001C60
003860
007060
00E060
01C060
038060
070060
0E0060
1C0060
380060
700060
7FFFE0
FFFFE0
ENDCHAR
STARTCHAR 22DA
ENCODING 8922
SWIDTH 687 0
DWIDTH 22 0
BBX 18 23 2 0
BITMAP
000040
000FC0
00FF00
1FE000
FC0000
F80000
3FC000
01FE00
000FC0
000040
000000
FFFFC0
FFFFC0
000000
800000
FC0000
1FE000
007F00
0003C0
003FC0
07F800
FF0000
E00000
ENDCHAR
STARTCHAR 22DB
ENCODING 8923
SWIDTH 687 0
DWIDTH 22 0
BBX 18 22 2 1
BITMAP
F80000
7FC000
01FE00
000FC0
0007C0
01FE00
3FE000
FC0000
800000
000000
FFFFC0
FFFFC0
000000
0000C0
001FC0
03FE00
7F8000
F00000
FE0000
07F800
003FC0
0001C0
ENDCHAR
STARTCHAR 2305
ENCODING 8965
SWIDTH 687 0
DWIDTH 22 0
BBX 18 14 2 2
BITMAP
FFFFC0
FFFFC0
01C000
01E000
036000
033000
073000
061800
061800
0C1800
0C0C00
180C00
180600
380600
ENDCHAR
STARTCHAR 2306
ENCODING 8966
SWIDTH 687 0
DWIDTH 22 0
BBX 18 19 2 0
BITMAP
FFFFC0
FFFFC0
000000
000000
FFFFC0
FFFFC0
01C000
01E000
036000
033000
033000
063800
061800
0C1800
0C0C00
1C0C00
180E00
180600
100400
ENDCHAR
STARTCHAR 2312
ENCODING 8978
SWIDTH 1000 0
DWIDTH 32 0
BBX 30 7 1 20
BITMAP
003FF000
03FFFF00
0FC00FC0
3E0001F0
70000038
C000000C
80000004
ENDCHAR
STARTCHAR 2318
ENCODING 8984
SWIDTH 1000 0
DWIDTH 32 0
BBX 28 28 2 -2
BITMAP
3C0007C0
7F000FE0
C3000C30
81801830
81801810
C1801830
E1801870
7FFFFFE0
3FFFFFC0
01801800
01801800
01801800
01801800
01801800
01801800
01801800
01801800
01801800
01801800
3FFFFFC0
7FFFFFE0
E1801870
C1801830
81801810
C1801830
C3000C30
7F000FE0
3E0007C0
ENDCHAR
STARTCHAR 23BE
ENCODING 9150
SWIDTH 1000 0
DWIDTH 32 0
BBX 17 33 15 -5
BITMAP
FFFF80
FFFF80
C00000
C00000
C00000
C00000
C00000
C00000
C00000
C00000
C00000
C00000
C00000
C00000
C00000
C00000
C00000
C00000
C00000
C00000
C00000
C00000
C00000
C00000
C00000
C00000
C00000
C00000
C00000
C00000
C00000
C00000
C00000
ENDCHAR
STARTCHAR 23BF
ENCODING 9151
SWIDTH 1000 0
DWIDTH 32 0
BBX 17 33 15 -4
BITMAP
C00000
C00000
C00000
C00000
C00000
C00000
C00000
C00000
C00000
C00000
C00000
C00000
C00000
C00000
C00000
C00000
C00000
C00000
C00000
C00000
C00000
C00000
C00000
C00000
C00000
C00000
C00000
C00000
C00000
C00000
C00000
FFFF80
FFFF80
ENDCHAR
STARTCHAR 23C0
ENCODING 9152
SWIDTH 1000 0
DWIDTH 32 0
BBX 24 32 4 -4
BITMAP
001800
001800
001800
001800
00FF00
0399C0
0C1830
181818
30180C
201804
401806
401802
C01803
801801
801801
801801
801801
801801
801801
C01803
401802
601806
201804
301808
181818
061860
03DBC0
007F00
001800
001800
001800
001800
ENDCHAR
STARTCHAR 23C1
ENCODING 9153
SWIDTH 1000 0
DWIDTH 32 0
BBX 32 33 0 -5
BITMAP
FFFFFFFF
FFFFFFFF
00018000
00018000
00018000
001FF800
00718E00
00C18300
01818180
030180C0
06018040
04018020
04018020
0C018030
08018010
08018010
08018010
08018010
08018010
08018010
0C018030
04018020
06018060
02018040
01018080
00818300
00618600
003FFC00
0007E000
00018000
00018000
00018000
00018000
ENDCHAR
STARTCHAR 23C2
ENCODING 9154
SWIDTH 1000 0
DWIDTH 32 0
BBX 32 33 0 -4
BITMAP
00018000
00018000
00018000
00018000
0007E000
003FFC00
00618600
00C18100
01018080
020180C0
06018060
04018020
0C018030
08018030
08018010
08018010
08018010
08018010
08018010
0C018030
04018020
04018020
06018060
030180C0
01818180
00C18300
00718E00
001FF800
00018000
00018000
00018000
FFFFFFFF
FFFFFFFF
ENDCHAR
STARTCHAR 23C3
ENCODING 9155
SWIDTH 1000 0
DWIDTH 32 0
BBX 26 33 3 -4
BITMAP
000C0000
000C0000
000C0000
000C0000
000C0000
000C0000
001E0000
001E0000
003F0000
002D0000
006D8000
004C8000
008C4000
018C6000
010C2000
030C3000
020C1000
060C0800
040C0800
080C0400
180C0600
100C0200
300C0300
200C0100
400C0080
400C0080
FFFFFFC0
FFFFFFC0
000C0000
000C0000
000C0000
000C0000
000C0000
ENDCHAR
STARTCHAR 23C4
ENCODING 9156
SWIDTH 1000 0
DWIDTH 32 0
BBX 32 32 0 -4
BITMAP
FFFFFFFF
FFFFFFFF
00018000
00018000
00018000
00018000
0003C000
0003C000
0007E000
0005A000
000DB000
00199800
00118800
00318C00
00218400
00418200
00C18200
00818100
01818180
01018080
02018040
02018040
04018020
08018010
08018010
1FFFFFF8
1FFFFFF8
00018000
00018000
00018000
00018000
00018000
ENDCHAR
STARTCHAR 23C5
ENCODING 9157
SWIDTH 1000 0
DWIDTH 32 0
BBX 32 33 0 -4
BITMAP
00018000
00018000
00018000
00018000
00018000
00018000
0003C000
0003C000
0007E000
0005A000
000DB000
00099000
00118800
00318C00
00218400
00618600
00418200
00C18100
00818100
01018080
030180C0
02018040
06018060
04018020
08018010
08018010
1FFFFFF8
1FFFFFF8
00018000
00018000
00018000
FFFFFFFF
FFFFFFFF
ENDCHAR
STARTCHAR 23C6
ENCODING 9158
SWIDTH 1000 0
DWIDTH 32 0
BBX 28 32 2 -4
BITMAP
00060000
00060000
00060000
00060000
00060000
00060000
00060000
00060000
00060000
00060000
00060000
00060000
1F860000
70660000
C01E0000
800E0000
00070010
00078030
000660C0
00061F80
00060000
00060000
00060000
00060000
00060000
00060000
00060000
00060000
00060000
00060000
00060000
00060000
ENDCHAR
STARTCHAR 23C7
ENCODING 9159
SWIDTH 1000 0
DWIDTH 32 0
BBX 32 33 0 -5
BITMAP
FFFFFFFF
FFFFFFFF
00018000
00018000
00018000
00018000
00018000
00018000
00018000
00018000
00018000
00018000
00018000
07E18000
1C198000
30078000
00038000
0001C004
0001F00C
00019C30
000187E0
00018000
00018000
00018000
00018000
00018000
00018000
00018000
00018000
00018000
00018000
00018000
00018000
ENDCHAR
STARTCHAR 23C8
ENCODING 9160
SWIDTH 1000 0
DWIDTH 32 0
BBX 32 33 0 -4
BITMAP
00018000
00018000
00018000
00018000
00018000
00018000
00018000
00018000
00018000
00018000
00018000
00018000
03E18000
0C398000
300D8000
20038000
00018000
0001E00C
0001B838
000187E0
00018000
00018000
00018000
00018000
00018000
00018000
00018000
00018000
00018000
00018000
00018000
FFFFFFFF
FFFFFFFF
ENDCHAR
STARTCHAR 23C9
ENCODING 9161
SWIDTH 1000 0
DWIDTH 32 0
BBX 32 33 0 -5
BITMAP
FFFFFFFF
FFFFFFFF
00018000
00018000
00018000
00018000
00018000
00018000
00018000
00018000
00018000
00018000
00018000
00018000
00018000
00018000
00018000
00018000
00018000
00018000
00018000
00018000
00018000
00018000
00018000
00018000
00018000
00018000
00018000
00018000
00018000
00018000
00018000
ENDCHAR
STARTCHAR 23CA
ENCODING 9162
SWIDTH 1000 0
DWIDTH 32 0
BBX 32 33 0 -4
BITMAP
00018000
00018000
00018000
00018000
00018000
00018000
00018000
00018000
00018000
00018000
00018000
00018000
00018000
00018000
00018000
00018000
00018000
00018000
00018000
00018000
00018000
00018000
00018000
00018000
00018000
00018000
00018000
00018000
00018000
00018000
00018000
FFFFFFFF
FFFFFFFF
ENDCHAR
STARTCHAR 23CB
ENCODING 9163
SWIDTH 1000 0
DWIDTH 32 0
BBX 17 33 0 -5
BITMAP
FFFF80
FFFF80
000180
000180
000180
000180
000180
000180
000180
000180
000180
000180
000180
000180
000180
000180
000180
000180
000180
000180
000180
000180
000180
000180
000180
000180
000180
000180
000180
000180
000180
000180
000180
ENDCHAR
STARTCHAR 23CC
ENCODING 9164
SWIDTH 1000 0
DWIDTH 32 0
BBX 17 33 0 -4
BITMAP
000180
000180
000180
000180
000180
000180
000180
000180
000180
000180
000180
000180
000180
000180
000180
000180
000180
000180
000180
000180
000180
000180
000180
000180
000180
000180
000180
000180
000180
000180
000180
FFFF80
FFFF80
ENDCHAR
STARTCHAR 23CE
ENCODING 9166
SWIDTH 1000 0
DWIDTH 32 0
BBX 27 27 2 -2
BITMAP
00007FE0
00007FE0
00006060
00006060
00006060
00006060
00006060
00006060
00206060
00606060
00E06060
01A06060
07206060
0E3FE060
1C3FC060
30000060
60000060
C0000040
600000C0
30000380
1C3FFF00
0E3FFE00
03200000
01A00000
00E00000
00600000
00200000
ENDCHAR
STARTCHAR 2423
ENCODING 9251
SWIDTH 1000 0
DWIDTH 32 0
BBX 24 7 4 -1
BITMAP
800001
800001
800001
800001
800001
FFFFFF
FFFFFF
ENDCHAR
STARTCHAR 2460
ENCODING 9312
SWIDTH 1000 0
DWIDTH 32 0
BBX 30 30 1 -3
BITMAP
001FE000
00FFF800
03E01E00
07800780
0E0001C0
1C0780E0
381F8060
303F8030
60338018
60038018
C0038008
C003800C
C003800C
80038004
80038004
80038004
80038004
C003800C
C003800C
40038008
60038018
60038018
30038030
18038060
1C0380E0
0E0001C0
07800780
01E01E00
00FFFC00
001FE000
ENDCHAR
STARTCHAR 2461
ENCODING 9313
SWIDTH 1000 0
DWIDTH 32 0
BBX 30 30 1 -3
BITMAP
001FE000
00FFF800
03E01E00
07800780
0E07C1C0
1C1FF0E0
383C7860
30703830
60701C18
60601C18
C0E01C08
C0001C0C
C000380C
80007804
8001F004
8003C004
800F8004
C01E000C
C03C000C
40380008
60700018
60700018
30FFFC30
18FFFC60
1C0000E0
0E0001C0
07800780
01E01E00
00FFFC00
001FE000
ENDCHAR
STARTCHAR 2462
ENCODING 9314
SWIDTH 1000 0
DWIDTH 32 0
BBX 30 30 1 -3
BITMAP
001FE000
00FFF800
03E01E00
07800780
0E0FC1C0
1C1FF0E0
38387860
30703830
60E01818
60E01818
C0001808
C000380C
C000700C
800FE004
800FE004
8000F804
80001C04
C0001C0C
C0000C0C
40C00C08
60E00C18
60E01C18
30783830
183FF060
1C0FC0E0
0E0001C0
07800780
01E01E00
00FFFC00
001FE000
ENDCHAR
STARTCHAR 2463
ENCODING 9315
SWIDTH 1000 0
DWIDTH 32 0
BBX 30 30 1 -3
BITMAP
001FE000
00FFF800
03E01E00
07800780
0E0001C0
1C01E0E0
3801E060
3003E030
6007E018
600EE018
C00EE008
C01CE00C
C038E00C
8038E004
8070E004
80E0E004
81C0E004
C1C0E00C
C3FFFE0C
43FFFE08
6000E018
6000E018
3000E030
1800E060
1C00E0E0
0E0001C0
07800780
01E01E00
00FFFC00
001FE000
ENDCHAR
STARTCHAR 2464
ENCODING 9316
SWIDTH 1000 0
DWIDTH 32 0
BBX 30 30 1 -3
BITMAP
001FE000
00FFF800
03E01E00
07800780
0E0001C0
1C3FF8E0
387FF860
30700030
60700018
60700018
C0700008
C077C00C
C07FF00C
80787804
80701C04
80601C04
80001C04
C0000C0C
C0000C0C
40001C08
60601C18
60703818
30387830
181FF060
1C0FC0E0
0E0001C0
07800780
01E01E00
00FFFC00
001FE000
ENDCHAR
STARTCHAR 2465
ENCODING 9317
SWIDTH 1000 0
DWIDTH 32 0
BBX 30 30 1 -3
BITMAP
001FE000
00FFF800
03E01E00
07800780
0E07C1C0
1C1FF0E0
381C7060
30383830
60701818
60600018
C0600008
C0E0000C
C0E7C00C
80EFF004
80F87804
80F03804
80E01C04
C0E01C0C
C0E01C0C
40601C08
60601C18
60703818
30387830
181FF060
1C07C0E0
0E0001C0
07800780
01E01E00
00FFFC00
001FE000
ENDCHAR
STARTCHAR 2466
ENCODING 9318
SWIDTH 1000 0
DWIDTH 32 0
BBX 30 30 1 -3
BITMAP
001FE000
007FF800
01E01E00
03800780
0E0001C0
1C0000E0
187FFC60
307FFC30
60001C18
60003818
40003808
C000700C
C000700C
80006004
8000E004
8000E004
8001C004
C001C00C
C001800C
40038008
60038018
60070018
30070030
18070060
1C0E00E0
0E0E01C0
07800780
01E01E00
00FFFC00
001FE000
ENDCHAR
STARTCHAR 2467
ENCODING 9319
SWIDTH 1000 0
DWIDTH 32 0
BBX 30 30 1 -3
BITMAP
001FE000
00FFF800
03E01E00
07800780
0E0FC1C0
1C3FF0E0
38787860
30601830
60E01C18
60E01C18
C0E01C08
C0E01C0C
C070780C
803FF004
801FE004
80787004
80E01C04
C0E01C0C
C0C00C0C
41C00C08
60C01C18
60E01C18
30707830
183FF060
1C0FC0E0
0E0001C0
07800780
01E01E00
00FFFC00
001FE000
ENDCHAR
STARTCHAR 2468
ENCODING 9320
SWIDTH 1000 0
DWIDTH 32 0
BBX 30 30 1 -3
BITMAP
001FE000
00FFF800
03E01E00
07800780
0E07C1C0
1C1FE0E0
38387060
30703830
60701818
60601C18
C0601C08
C0601C0C
C0601C0C
80701C04
80703C04
80387C04
801FEC04
C00F8C0C
C0001C0C
40001C08
60701818
60703818
30387030
181FE060
1C0FC0E0
0E0001C0
07800780
01E01E00
00FFFC00
001FE000
ENDCHAR
STARTCHAR 2469
ENCODING 9321
SWIDTH 1000 0
DWIDTH 32 0
BBX 30 30 1 -3
BITMAP
001FE000
00FFF800
03E01E00
07800780
0E0001C0
1CC078E0
3BC1FC60
37C38E30
67C38718
61C30318
C1C70308
C1C7038C
C1C7038C
81C70384
81C70384
81C70384
81C70384
C1C7038C
C1C7038C
41C70308
61C30318
61C38718
31C18E30
19C1FC60
1DC078E0
0E0001C0
07800780
01E01E00
00FFFC00
001FE000
ENDCHAR
STARTCHAR 246A
ENCODING 9322
SWIDTH 1000 0
DWIDTH 32 0
BBX 30 30 1 -3
BITMAP
001FE000
00FFF800
03E01E00
07800780
0E0001C0
1C600CE0
39E03C60
33E07C30
63E07C18
60E01C18
C0E01C08
C0E01C0C
C0E01C0C
80E01C04
80E01C04
80E01C04
80E01C04
C0E01C0C
C0E01C0C
40E01C08
60E01C18
60E01C18
30E01C30
18E01C60
1CE01CE0
0E0001C0
07800780
01E01E00
00FFFC00
001FE000
ENDCHAR
STARTCHAR 246B
ENCODING 9323
SWIDTH 1000 0
DWIDTH 32 0
BBX 30 30 1 -3
BITMAP
001FE000
007FF800
01E01E00
03800780
060001C0
0C00F8E0
19C1FC60
33C38E30
67C30718
65C70718
41C70708
C1C7070C
C1C0070C
81C00E04
81C01E04
81C03C04
81C07804
C1C0F00C
C1C1E00C
41C1C008
61C38018
61C30018
31C70030
19C7FF60
1DC7FFE0
0E0001C0
07800780
01E01E00
00FFFC00
001FE000
ENDCHAR
STARTCHAR 246C
ENCODING 9324
SWIDTH 1000 0
DWIDTH 32 0
BBX 30 30 1 -3
BITMAP
001FE000
00FFF800
03E01E00
07800780
0E0001C0
1CC0F8E0
3BC1FC60
37C38E30
67C70618
61C70718
C1C00708
C1C0060C
C1C00E0C
81C0FC04
81C0FC04
81C00E04
81C00704
C1C0030C
C1C0030C
41C60308
61C60318
61C70718
31C38E30
19C3FE60
1DC0F8E0
0E0001C0
07800780
01E01E00
00FFFC00
001FE000
ENDCHAR
STARTCHAR 246D
ENCODING 9325
SWIDTH 1000 0
DWIDTH 32 0
BBX 30 30 1 -3
BITMAP
001FE000
007FF800
01E01E00
03800780
0E0001C0
1CC00CE0
19C01C60
37C03C30
67C03C18
65C07C18
41C0EC08
C1C0EC0C
C1C1CC0C
81C18C04
81C38C04
81C70C04
81C70C04
C1CE0C0C
C1CFFF8C
41CFFF88
61C00C18
61C00C18
31C00C30
19C00C60
1DC00CE0
0E0001C0
07800780
01E01E00
00FFFC00
001FE000
ENDCHAR
STARTCHAR 246E
ENCODING 9326
SWIDTH 1000 0
DWIDTH 32 0
BBX 30 30 1 -3
BITMAP
001FE000
00FFF800
03E01E00
07800780
0E0001C0
1CC3FEE0
3BC3FE60
37C30030
67C30018
61C30018
C1C30008
C1C7780C
C1C7FC0C
81C78E04
81C70704
81C00704
81C00304
C1C0030C
C1C0030C
41C60308
61C60718
61C70718
31C38E30
19C1FC60
1DC0F8E0
0E0001C0
07800780
01E01E00
00FFFC00
001FE000
ENDCHAR
STARTCHAR 246F
ENCODING 9327
SWIDTH 1000 0
DWIDTH 32 0
BBX 30 30 1 -3
BITMAP
001FE000
00FFF800
03E01E00
07800780
0E0001C0
1CC078E0
3BC1FE60
37C18E30
67C38718
61C30718
C1C70008
C1C6000C
C1C6780C
81C6FC04
81C78E04
81C70704
81C70704
C1C6030C
C1C6030C
41C70308
61C70718
61C30718
31C38E30
19C1FC60
1DC0F8E0
0E0001C0
07800780
01E01E00
00FFFC00
001FE000
ENDCHAR
STARTCHAR 2470
ENCODING 9328
SWIDTH 1000 0
DWIDTH 32 0
BBX 30 30 1 -3
BITMAP
001FE000
00FFF800
03E01E00
07800780
0E0001C0
1CC7FFE0
3BC7FF60
37C00630
66C00E18
60C00E18
C0C00C08
C0C01C0C
C0C0180C
80C01804
80C03804
80C03004
80C03004
C0C0700C
C0C0600C
40C06008
60C0E018
60C0E018
30C0E030
18C1C060
1C0000E0
0E0001C0
07800780
01E01E00
00FFFC00
001FE000
ENDCHAR
STARTCHAR 2471
ENCODING 9329
SWIDTH 1000 0
DWIDTH 32 0
BBX 30 30 1 -3
BITMAP
001FE000
00FFF800
03E01E00
07800780
0E0001C0
1CC0F8E0
3BC3FC60
37C78E30
67C70718
61C60718
C1C60708
C1C7060C
C1C38E0C
81C1FC04
81C1FC04
81C78E04
81C70704
C1CE030C
C1CE030C
41CE0308
61CE0318
61C60718
31C70E30
19C3FE60
1DC0F8E0
0E0001C0
07800780
01E01E00
00FFFC00
001FE000
ENDCHAR
STARTCHAR 2472
ENCODING 9330
SWIDTH 1000 0
DWIDTH 32 0
BBX 30 30 1 -3
BITMAP
001FE000
00FFF800
03E01E00
07800780
0E0001C0
1CC0F8E0
3BC1FC60
37C38E30
67C70618
61C70718
C1C60308
C1C6030C
C1C7070C
81C70704
81C38F04
81C1FF04
81C0F304
C1C0030C
C1C0030C
41C00708
61C70618
61C30618
31C38C30
19C1FC60
1DC0F0E0
0E0001C0
07800780
01E01E00
00FFFC00
001FE000
ENDCHAR
STARTCHAR 2473
ENCODING 9331
SWIDTH 1000 0
DWIDTH 32 0
BBX 30 30 1 -3
BITMAP
001FE000
007FF800
01E01E00
03800780
060001C0
0C781EE0
19FC3F60
318E7330
63866398
63066198
4306E188
C30EC18C
C00EC18C
801CC184
801CC184
8038C184
8070C184
C0E0C18C
C0C0C18C
C1C0C188
6180E198
63806198
338063B0
3BFE7360
1FFE3FE0
0E001FC0
07800780
01E01E00
00FFFC00
001FE000
ENDCHAR
STARTCHAR 24D0
ENCODING 9424
SWIDTH 1000 0
DWIDTH 32 0
BBX 30 30 1 -3
BITMAP
001FE000
00FFF800
03E01E00
07800780
0E0001C0
1C0000E0
38000060
30000030
600FC018
601FE018
C0387008
C070300C
C000300C
8000F004
801FF004
803C3004
80703004
C060300C
C060700C
4070F008
603FBC18
601F1C18
30000030
18000060
1C0000E0
0E0001C0
07800780
01E01E00
00FFFC00
001FE000
ENDCHAR
STARTCHAR 24D1
ENCODING 9425
SWIDTH 1000 0
DWIDTH 32 0
BBX 30 30 1 -3
BITMAP
001FE000
00FFF800
03E01E00
07800780
0E0001C0
1C3000E0
38300060
30300030
60300018
60300018
C033E008
C037F00C
C03E380C
80381C04
80380C04
80300C04
80300C04
C0300C0C
C0300C0C
40381C08
60381C18
603C3818
3037F030
1803E060
1C0000E0
0E0001C0
07800780
01E01E00
00FFFC00
001FE000
ENDCHAR
STARTCHAR 24D2
ENCODING 9426
SWIDTH 1000 0
DWIDTH 32 0
BBX 30 30 1 -3
BITMAP
001FE000
00FFF800
03E01E00
07800780
0E0001C0
1C0000E0
38000060
30000030
600F8018
601FE018
C0387008
C070380C
C070380C
80600004
80600004
80600004
80600004
C060380C
C070380C
40387008
601FE018
6007C018
30000030
18000060
1C0000E0
0E0001C0
07800780
01E01E00
00FFFC00
001FE000
ENDCHAR
STARTCHAR 24D3
ENCODING 9427
SWIDTH 1000 0
DWIDTH 32 0
BBX 30 30 1 -3
BITMAP
001FE000
00FFF800
03E01E00
07800780
0E0001C0
1C0030E0
38003060
30003030
60003018
60003018
C01E3008
C03FB00C
C071F00C
80E07004
80C07004
80C03004
80C03004
C0C0300C
C0C0300C
40C07008
60E07018
6070F018
303FB030
181F0060
1C0000E0
0E0001C0
07800780
01E01E00
00FFFC00
001FE000
ENDCHAR
STARTCHAR 24D4
ENCODING 9428
SWIDTH 1000 0
DWIDTH 32 0
BBX 30 31 1 -4
BITMAP
001FE000
007FF800
01E01E00
03800700
0E0001C0
0C0000C0
18000060
30000030
60000010
600FC018
401FE008
C038700C
C070380C
8060180C
807FF804
807FF804
80600004
8060000C
C070180C
C038780C
401FF008
600FC018
60000010
30000030
18000060
1C0000C0
0E0001C0
07800700
01E01E00
007FF800
001FE000
ENDCHAR
STARTCHAR 24D5
ENCODING 9429
SWIDTH 1000 0
DWIDTH 32 0
BBX 30 30 1 -3
BITMAP
001FE000
00FFF800
01E01E00
07800780
0E0001C0
1C0000E0
3803E060
3007E030
60060018
60060018
C0060008
C006000C
C07FE00C
807FE004
80060004
80060004
80060004
C006000C
C006000C
40060008
60060018
60060018
30060030
18060060
1C0600E0
0E0001C0
07800780
01E01E00
00FFFC00
001FE000
ENDCHAR
STARTCHAR 24D6
ENCODING 9430
SWIDTH 1000 0
DWIDTH 32 0
BBX 30 30 1 -3
BITMAP
001FE000
00FFF800
03E01E00
07800780
0E0001C0
1C0000E0
38000060
300F9830
603FF818
60387818
C0703808
C060380C
C060380C
80603804
80703804
80387804
801FF804
C00FB80C
C000380C
40303008
60387018
601FE018
300FC030
18000060
1C0000E0
0E0001C0
07800780
01E01E00
00FFFC00
001FE000
ENDCHAR
STARTCHAR 24D7
ENCODING 9431
SWIDTH 1000 0
DWIDTH 32 0
BBX 30 30 1 -3
BITMAP
001FE000
00FFF800
03E01E00
07800780
0E0001C0
1C3000E0
38300060
30300030
60300018
60300018
C0300008
C033E00C
C037F00C
803E3804
80381804
80381804
80301804
C030180C
C030180C
40301808
60301818
60301818
30301830
18301860
1C0000E0
0E0001C0
07800780
01E01E00
00FFFC00
001FE000
ENDCHAR
STARTCHAR 24D8
ENCODING 9432
SWIDTH 1000 0
DWIDTH 32 0
BBX 30 30 1 -3
BITMAP
001FE000
00FFF800
03E01E00
07800780
0E0001C0
1C0000E0
38030060
30030030
60000018
60000018
C0000008
C003000C
C003000C
80030004
80030004
80030004
80030004
C003000C
C003000C
40030008
60030018
60030018
30030030
18030060
1C0000E0
0E0001C0
07800780
01E01E00
00FFFC00
001FE000
ENDCHAR
STARTCHAR 24D9
ENCODING 9433
SWIDTH 1000 0
DWIDTH 32 0
BBX 30 30 1 -3
BITMAP
001FE000
00FFF800
03E01E00
07818780
0E0181C0
1C0180E0
38000060
30000030
60000018
60018018
C0018008
C001800C
C001800C
80018004
80018004
80018004
80018004
C001800C
C001800C
40018008
60018018
60018018
30018030
18018060
1C1F80E0
0E1F01C0
07800780
01E01E00
00FFFC00
001FE000
ENDCHAR
STARTCHAR 24DA
ENCODING 9434
SWIDTH 1000 0
DWIDTH 32 0
BBX 30 30 1 -3
BITMAP
001FE000
00FFF800
03E01E00
07800780
0E0001C0
1C3000E0
38300060
30300030
60300018
60300018
C0300008
C030780C
C030F00C
8031C004
80338004
80370004
803F8004
C03DC00C
C038C00C
4030E008
60307018
60303818
30301C30
18300E60
1C0000E0
0E0001C0
07800780
01E01E00
007FFC00
001FE000
ENDCHAR
STARTCHAR 24DB
ENCODING 9435
SWIDTH 1000 0
DWIDTH 32 0
BBX 30 30 1 -3
BITMAP
001FE000
00FFF800
03E01E00
07800780
0E0001C0
1C0000E0
38030060
30030030
60030018
60030018
C0030008
C003000C
C003000C
80030004
80030004
80030004
80030004
C003000C
C003000C
40030008
60030018
60030018
30030030
18030060
1C0000E0
0E0001C0
07800780
01E01E00
00FFFC00
001FE000
ENDCHAR
STARTCHAR 24DC
ENCODING 9436
SWIDTH 1000 0
DWIDTH 32 0
BBX 30 30 1 -3
BITMAP
001FE000
00FFF800
03E01E00
07800780
0E0001C0
1C0000E0
38000060
30000030
619C3818
61BEFC18
C1E7CE08
C1C3860C
C183060C
81830604
81830604
81830604
81830604
C183060C
C183060C
41830608
61830618
60000018
30000030
18000060
1C0000E0
0E0001C0
07800780
01E01E00
00FFFC00
001FE000
ENDCHAR
STARTCHAR 24DD
ENCODING 9437
SWIDTH 1000 0
DWIDTH 32 0
BBX 30 30 1 -3
BITMAP
001FE000
00FFF800
03E01E00
07800780
0E0001C0
1C0000E0
38000060
30000030
6063C018
6067F018
C07C7008
C078380C
C070380C
80703804
80703804
80703804
80703804
C070380C
C070380C
40703808
60703818
60000018
30000030
18000060
1C0000E0
0E0001C0
07800780
01E01E00
00FFFC00
001FE000
ENDCHAR
STARTCHAR 24DE
ENCODING 9438
SWIDTH 1000 0
DWIDTH 32 0
BBX 30 30 1 -3
BITMAP
001FE000
00FFF800
03E01E00
07800780
0E0001C0
1C0000E0
38000060
30000030
600F8018
601FE018
C0387008
C070380C
C070380C
80601804
80601804
80601804
80601804
C060380C
C070380C
40387008
601FE018
6007C018
30000030
18000060
1C0000E0
0E0001C0
07800780
01E01E00
00FFFC00
001FE000
ENDCHAR
STARTCHAR 24DF
ENCODING 9439
SWIDTH 1000 0
DWIDTH 32 0
BBX 30 30 1 -3
BITMAP
001FE000
00FFF800
03E01E00
07800780
0E0001C0
1C0000E0
38000060
3033E030
6037F018
603C3818
C0381C08
C0300C0C
C0300E0C
80300E04
80300E04
80300C04
80381C04
C03C3C0C
C037F80C
4033E008
60300018
60300018
30300030
18300060
1C0000E0
0E0001C0
07800780
01E01E00
00FFFC00
001FE000
ENDCHAR
STARTCHAR 24E0
ENCODING 9440
SWIDTH 1000 0
DWIDTH 32 0
BBX 30 30 1 -3
BITMAP
001FE000
00FFF800
03E01E00
07800780
0E0001C0
1C0000E0
38000060
301E3030
607FB018
60F0F018
C0E07008
C0C0300C
C1C0300C
81C03004
81C03004
80C03004
80E07004
C070F00C
C07FB00C
401F3008
60003018
60003018
30003030
18003060
1C0000E0
0E0001C0
07800780
01E01E00
00FFFC00
001FE000
ENDCHAR
STARTCHAR 24E1
ENCODING 9441
SWIDTH 1000 0
DWIDTH 32 0
BBX 30 30 1 -3
BITMAP
001FE000
00FFF800
03E01E00
07800780
0E0001C0
1C0000E0
38000060
30000030
60000018
600E3818
C00E7808
C00FF00C
C00F800C
800F0004
800E0004
800E0004
800E0004
C00E000C
C00E000C
400E0008
600E0018
600E0018
30000030
18000060
1C0000E0
0E0001C0
07800780
01E01E00
00FFFC00
001FE000
ENDCHAR
STARTCHAR 24E2
ENCODING 9442
SWIDTH 1000 0
DWIDTH 32 0
BBX 30 30 1 -3
BITMAP
001FE000
00FFF800
03E01E00
07800780
0E0001C0
1C0000E0
38000060
30000030
600F8018
601FE018
C0386008
C030700C
C038000C
801C0004
800F8004
8001E004
80007004
C070300C
C030300C
40387008
601FE018
600FC018
30000030
18000060
1C0000E0
0E0001C0
07800780
01E01E00
00FFFC00
001FE000
ENDCHAR
STARTCHAR 24E3
ENCODING 9443
SWIDTH 1000 0
DWIDTH 32 0
BBX 30 31 1 -3
BITMAP
001FE000
007FF800
01E01E00
03800700
060001C0
0C0000C0
18000060
30000030
20060010
60060018
40060008
C03FE00C
C03FE00C
8006000C
80060004
80060004
80060004
8006000C
C006000C
C006000C
40060008
60060018
6007E010
3003E030
18000060
1C0000C0
0E0001C0
07800700
01E01E00
007FF800
001FE000
ENDCHAR
STARTCHAR 24E4
ENCODING 9444
SWIDTH 1000 0
DWIDTH 32 0
BBX 30 30 1 -3
BITMAP
001FE000
00FFF800
03E01E00
07800780
0E0001C0
1C0000E0
38000060
30000030
60703818
60703818
C0703808
C070380C
C070380C
80703804
80703804
80703804
80703804
C070380C
C070780C
4038F808
603FD818
600F0018
30000030
18000060
1C0000E0
0E0001C0
07800780
01E01E00
00FFFC00
001FE000
ENDCHAR
STARTCHAR 24E5
ENCODING 9445
SWIDTH 1000 0
DWIDTH 32 0
BBX 30 30 1 -3
BITMAP
001FE000
00FFF800
03E01E00
07800780
0E0001C0
1C0000E0
38000060
30000030
60000018
60C00C18
C0E01C08
C060180C
C070380C
80303004
80387004
80186004
801CE004
C00CC00C
C00CC00C
400FC008
60078018
60078018
30000030
18000060
1C0000E0
0E0001C0
07800780
01E01E00
00FFFC00
001FE000
ENDCHAR
STARTCHAR 24E6
ENCODING 9446
SWIDTH 1000 0
DWIDTH 32 0
BBX 30 30 1 -3
BITMAP
001FE000
00FFF800
03E01E00
07800780
0E0001C0
1C0000E0
38000060
30000030
60000018
67030398
C7078388
C307830C
C387870C
81878604
818CC604
81CCCE04
80CCCC04
C0D86C0C
C0F87C0C
40787808
60787818
60703818
30000030
18000060
1C0000E0
0E0001C0
07800780
01E01E00
00FFFC00
001FE000
ENDCHAR
STARTCHAR 24E7
ENCODING 9447
SWIDTH 1000 0
DWIDTH 32 0
BBX 30 31 1 -3
BITMAP
001FE000
007FF800
01E01E00
03800700
060001C0
0C0000C0
18000060
30000030
20000010
60F03C18
40703808
C038700C
C01CE00C
800FC00C
80078004
80078004
800FC004
801CC00C
C01CE00C
C038700C
40703808
60E01C18
60000010
30000030
18000060
1C0000C0
0E0001C0
07800700
01E01E00
007FF800
001FE000
ENDCHAR
STARTCHAR 24E8
ENCODING 9448
SWIDTH 1000 0
DWIDTH 32 0
BBX 30 30 1 -3
BITMAP
001FE000
00FFF800
03E01E00
07800780
0E0001C0
1C0000E0
38000060
30600E30
60700C18
60301C18
C0381808
C018380C
C01C300C
800C7004
800E6004
8006E004
8007C004
C007C00C
C003800C
40038008
60030018
60070018
307E0030
187C0060
1C0000E0
0E0001C0
07800780
01E01E00
00FFFC00
001FE000
ENDCHAR
STARTCHAR 24E9
ENCODING 9449
SWIDTH 1000 0
DWIDTH 32 0
BBX 30 31 1 -3
BITMAP
001FE000
007FF800
01E01E00
03800700
060001C0
0C0000C0
18000060
30000030
20000010
607FF818
407FF808
C000700C
C000E00C
8001C00C
80038004
80070004
800E0004
801C000C
C038000C
C070000C
407FF808
607FF818
60000010
30000030
18000060
1C0000C0
0E0001C0
07800700
01E01E00
007FF800
001FE000
ENDCHAR
STARTCHAR 24EB
ENCODING 9451
SWIDTH 1000 0
DWIDTH 32 0
BBX 30 30 1 -3
BITMAP
001FE000
00FFF800
03FFFE00
07FFFF80
0FFFFFC0
1F3FF1E0
3E3FE1E0
3C3FC1F0
7D3FC1F8
7F3FF1F8
FF3FF1F8
FF3FF1FC
FF3FF1FC
FF3FF1FC
FF3FF1FC
FF3FF1FC
FF3FF1FC
FF3FF1FC
FF3FF1FC
7F3FF1F8
7F3FF1F8
7F3FF1F8
3F3FF1F0
1F3FF1E0
1F3FF1E0
0FFFFFC0
07FFFF80
01FFFE00
00FFFC00
001FE000
ENDCHAR
STARTCHAR 24EC
ENCODING 9452
SWIDTH 1000 0
DWIDTH 32 0
BBX 30 31 1 -3
BITMAP
001FE000
007FF800
01FFFE00
03FFFF00
07FFFFC0
0FFF87C0
1E3E01E0
383E78F0
383C78F0
7A3CFCF8
7E3CFCF8
FE38FCFC
FE3FF8FC
FE3FF8FC
FE3FF1FC
FE3FE3FC
FE3FC7FC
FE3F8FFC
FE3F1FFC
FE3E3FFC
7E3E7FF8
7E3C7FF8
7E3CFFF0
3E3C00F0
1E3800E0
1E3800C0
0FFFFFC0
07FFFF00
01FFFE00
007FF800
001FE000
ENDCHAR
STARTCHAR 24ED
ENCODING 9453
SWIDTH 1000 0
DWIDTH 32 0
BBX 30 30 1 -3
BITMAP
001FE000
00FFF800
03FFFE00
07FFFF80
0FFFFFC0
1E3F07E0
3C3E01E0
383C71F0
783CF8F8
7E38F8F8
FE3FF8F8
FE3FF8FC
FE3FF9FC
FE3F83FC
FE3F83FC
FE3FF1FC
FE3FF8FC
FE3FFCFC
FE3FFC7C
7E38FC78
7E38FCF8
7E38FCF8
3E3C78F0
1E3E01E0
1E3F07E0
0FFFFFC0
07FFFF80
01FFFE00
00FFFC00
001FE000
ENDCHAR
STARTCHAR 24EE
ENCODING 9454
SWIDTH 1000 0
DWIDTH 32 0
BBX 30 30 1 -3
BITMAP
001FE000
007FF800
01FFFE00
03FFFF80
0FFFFFC0
1F3FF1E0
1E3FE1E0
383FE1F0
783FC1F8
7A3F81F8
7E3F91F8
FE3F11FC
FE3F31FC
FE3E31FC
FE3C71FC
FE3CF1FC
FE38F1FC
FE39F1FC
FE30007C
7E300078
7E3FF1F8
7E3FF1F8
3E3FF1F0
1E3FF1E0
1E3FF1E0
0FFFFFC0
07FFFF80
01FFFE00
00FFFC00
001FE000
ENDCHAR
STARTCHAR 24EF
ENCODING 9455
SWIDTH 1000 0
DWIDTH 32 0
BBX 30 30 1 -3
BITMAP
001FE000
00FFF800
03FFFE00
07FFFF80
0FFFFFC0
1E3C01E0
3C3C01E0
383CFFF0
7A3CFFF8
7E3CFFF8
FE3CFFF8
FE3CC3FC
FE3C01FC
FE3C70FC
FE3CF8FC
FE3FFCFC
FE3FFC7C
FE3FFC7C
FE3FFC7C
7E38FC78
7E38FCF8
7E3CF8F8
3E3C71F0
1E3E03E0
1E3F07E0
0FFFFFC0
07FFFF80
01FFFE00
00FFFC00
001FE000
ENDCHAR
STARTCHAR 24F0
ENCODING 9456
SWIDTH 1000 0
DWIDTH 32 0
BBX 30 30 1 -3
BITMAP
001FE000
00FFF800
03FFFE00
07FFFF80
0FFFFFC0
1E3F87E0
3C3F01E0
383E38F0
783C78F8
7E3CFCF8
FE3CFFF8
FE38FFFC
FE38C7FC
FE3901FC
FE3870FC
FE3878FC
FE38FCFC
FE38FC7C
FE38FC7C
7E38FCF8
7E3CFCF8
7E3C78F8
3E3C31F0
1E3E01E0
1E3F87E0
0FFFFFC0
07FFFF80
01FFFE00
00FFFC00
001FE000
ENDCHAR
STARTCHAR 24F1
ENCODING 9457
SWIDTH 1000 0
DWIDTH 32 0
BBX 30 30 1 -3
BITMAP
001FE000
00FFF800
03FFFE00
07FFFF80
0FFFFFC0
1F3800E0
3C3800E0
383FF8F0
7A3FF9F8
7E3FF1F8
FE3FF3F8
FE3FF3FC
FE3FE3FC
FE3FE7FC
FE3FE7FC
FE3FC7FC
FE3FCFFC
FE3FCFFC
FE3F8FFC
7E3F8FF8
7E3F9FF8
7E3F1FF8
3E3F1FF0
1E3F1FE0
1FFFFFE0
0FFFFFC0
07FFFF80
01FFFE00
00FFFC00
001FE000
ENDCHAR
STARTCHAR 24F2
ENCODING 9458
SWIDTH 1000 0
DWIDTH 32 0
BBX 30 30 1 -3
BITMAP
001FE000
00FFF800
03FFFE00
07FFFF80
0FFFFFC0
1E3F07E0
3C3E01E0
383C71F0
7838F8F8
7E38FCF8
FE38FCF8
FE38F8FC
FE3C71FC
FE3E03FC
FE3E03FC
FE3C71FC
FE38FCFC
FE39FC7C
FE39FC7C
7E39FC78
7E39FC78
7E38FCF8
3E3878F0
1E3C01E0
1E3F07E0
0FFFFFC0
07FFFF80
01FFFE00
00FFFC00
001FE000
ENDCHAR
STARTCHAR 24F3
ENCODING 9459
SWIDTH 1000 0
DWIDTH 32 0
BBX 30 30 1 -3
BITMAP
001FE000
00FFF800
03FFFE00
07FFFF80
0FFFFFC0
1E3F07E0
3C3E01E0
383C71F0
783CF8F8
7E38FCF8
FE38FCF8
FE38FCFC
FE38FC7C
FE3CF87C
FE3C707C
FE3E007C
FE3F047C
FE3FFCFC
FE3FFCFC
7E3FFCF8
7E3CF8F8
7E3CF9F8
3E3C71F0
1E3E03E0
1E3F07E0
0FFFFFC0
07FFFF80
01FFFE00
00FFFC00
001FE000
ENDCHAR
STARTCHAR 24F4
ENCODING 9460
SWIDTH 1000 0
DWIDTH 32 0
BBX 30 31 1 -3
BITMAP
001FE000
007FF800
01FFFE00
03FFFF00
07FFFFC0
0F0FE1C0
1E07C0E0
3C03C070
3C638C70
78F39E78
78F39E78
F9F39E7C
FFF31E3C
FFE71E3C
FFE71E3C
FFCF1E3C
FF9F1E3C
FF1F1E3C
FF3F1E3C
FE7F1E7C
7E7F9E78
7CFF9E78
7CFF9E70
3C038C70
1803C0E0
1803C0C0
0FFFE1C0
07FFFF00
01FFFE00
007FF800
001FE000
ENDCHAR
STARTCHAR 24F5
ENCODING 9461
SWIDTH 1000 0
DWIDTH 32 0
BBX 30 30 1 -3
BITMAP
001FE000
00E01800
01800600
061FE180
0C7038C0
19C00C60
13038320
26078190
641F8098
481F8048
D8138068
D003802C
90038024
90038024
90038024
90038024
90038024
90038024
9003802C
58038048
48038048
6C038098
26038190
13038330
19800660
0C7038C0
061FE180
01800700
00E01C00
001FE000
ENDCHAR
STARTCHAR 24F6
ENCODING 9462
SWIDTH 1000 0
DWIDTH 32 0
BBX 30 30 1 -3
BITMAP
001FE000
00E01800
01800600
061FE180
0C7038C0
19C00C60
1307C320
261FE190
64387098
48303848
D8701868
9070382C
90003824
90007024
9000F024
9003C024
90078024
900E0024
D01C002C
58380048
48300048
6C7FF898
267FF990
13000330
19800660
0C7038C0
061FE180
01800700
00E01C00
001FE000
ENDCHAR
STARTCHAR 24F7
ENCODING 9463
SWIDTH 1000 0
DWIDTH 32 0
BBX 30 30 1 -3
BITMAP
001FE000
00E01800
01800600
061FE180
0C7038C0
19C00C60
130FC320
261FE190
64387098
48703048
D8703868
D000382C
90003024
9001E024
900F8024
900FE024
90003824
90001824
9000182C
58601848
48701848
6C787898
263FF190
130FC330
19800660
0C7038C0
061FE180
01800700
00E01C00
001FE000
ENDCHAR
STARTCHAR 24F8
ENCODING 9464
SWIDTH 1000 0
DWIDTH 32 0
BBX 30 30 1 -3
BITMAP
001FE000
00E01800
01800600
061FE100
0C7038C0
19C00C60
1300C320
2601C190
6403C098
4807C048
D806C068
D00EC02C
901CC024
9038C024
9030C024
9070C024
90E0C024
91C0C024
91FFFC2C
59FFFC48
4800C048
6C00C098
2600C190
1300C330
19800660
0C7038C0
061FE180
01800700
00E01C00
001FE000
ENDCHAR
STARTCHAR 24F9
ENCODING 9465
SWIDTH 1000 0
DWIDTH 32 0
BBX 30 30 1 -3
BITMAP
001FE000
00E01800
01800600
061FE100
0C7038C0
19C00C40
13000320
263FF190
643FF090
48300048
D8300068
D030002C
9033C024
903FF024
90387024
90303824
90001824
90001824
9000182C
5800184C
48303848
6C387098
261FE190
130FC330
19800660
0C7038C0
061FE180
01800700
00E01C00
001FE000
ENDCHAR
STARTCHAR 24FA
ENCODING 9466
SWIDTH 1000 0
DWIDTH 32 0
BBX 30 30 1 -3
BITMAP
001FE000
00E01800
01800600
061FE180
0C7038C0
19C00C60
1307C320
260FE190
641C7098
48383048
D8303868
D030002C
90600024
9067C024
906FE024
90787024
90703824
90701824
9070182C
58301848
48303848
6C387098
261FE190
1307C330
19800660
0C7038C0
061FE180
01800700
00E01C00
001FE000
ENDCHAR
STARTCHAR 24FB
ENCODING 9467
SWIDTH 1000 0
DWIDTH 32 0
BBX 30 30 1 -3
BITMAP
001FE000
00E01C00
018FC700
06703980
0CC00CC0
1B000360
160001B0
247FF890
6C7FF858
48003848
D8003068
9000702C
90006024
9000E024
9000C024
9001C024
9001C024
90018024
D803806C
48030048
480700C8
64070098
26060110
130E0320
18C00460
0C7038C0
061FE180
01800600
00E03C00
001FE000
ENDCHAR
STARTCHAR 24FC
ENCODING 9468
SWIDTH 1000 0
DWIDTH 32 0
BBX 30 30 1 -3
BITMAP
001FE000
00E01800
01800600
061FE180
0C7038C0
19C00C60
130FC320
261FE190
64387098
48703848
D8601868
D060182C
90703824
90387024
901FE024
901FE024
90787824
90601824
90E0182C
58E01848
48601848
6C707898
263FF190
130FC330
19800660
0C7038C0
061FE180
01800700
00E01C00
001FE000
ENDCHAR
STARTCHAR 24FD
ENCODING 9469
SWIDTH 1000 0
DWIDTH 32 0
BBX 30 30 1 -3
BITMAP
001FE000
00E01800
01800600
061FE180
0C7038C0
19C00C60
1307C320
261FE190
641C7098
48383048
D8303868
D030182C
90301824
90303824
90303824
90387824
901FD824
90079824
9000182C
58303848
48303048
6C387098
261FE190
1307C330
19800660
0C7038C0
061FE180
01800700
00E01C00
001FE000
ENDCHAR
STARTCHAR 24FE
ENCODING 9470
SWIDTH 1000 0
DWIDTH 32 0
BBX 30 30 1 -3
BITMAP
001FE000
00E01800
01800600
061FE180
0C7038C0
19C00C60
13000320
2620F190
64E1F898
49E39C48
D9630C68
D0630E2C
90630624
90630624
90630624
90630624
90630624
90630624
90630E2C
58630C48
48639C48
6C61F898
2660F190
13000330
19800660
0C7038C0
061FE180
01800700
00E01C00
001FE000
ENDCHAR
STARTCHAR 2500
ENCODING 9472
SWIDTH 1000 0
DWIDTH 32 0
BBX 32 1 0 12
BITMAP
FFFFFFFF
ENDCHAR
STARTCHAR 2501
ENCODING 9473
SWIDTH 1000 0
DWIDTH 32 0
BBX 32 4 0 10
BITMAP
FFFFFFFF
FFFFFFFF
FFFFFFFF
FFFFFFFF
ENDCHAR
STARTCHAR 2502
ENCODING 9474
SWIDTH 1000 0
DWIDTH 32 0
BBX 2 32 15 -4
BITMAP
C0
C0
C0
C0
C0
C0
C0
C0
C0
C0
C0
C0
C0
C0
C0
C0
C0
C0
C0
C0
C0
C0
C0
C0
C0
C0
C0
C0
C0
C0
C0
C0
ENDCHAR
STARTCHAR 2503
ENCODING 9475
SWIDTH 1000 0
DWIDTH 32 0
BBX 4 32 14 -4
BITMAP
F0
F0
F0
F0
F0
F0
F0
F0
F0
F0
F0
F0
F0
F0
F0
F0
F0
F0
F0
F0
F0
F0
F0
F0
F0
F0
F0
F0
F0
F0
F0
F0
ENDCHAR
STARTCHAR 250C
ENCODING 9484
SWIDTH 1000 0
DWIDTH 32 0
BBX 17 16 15 -3
BITMAP
FFFF80
C00000
C00000
C00000
C00000
C00000
C00000
C00000
C00000
C00000
C00000
C00000
C00000
C00000
C00000
C00000
ENDCHAR
STARTCHAR 250F
ENCODING 9487
SWIDTH 1000 0
DWIDTH 32 0
BBX 18 18 14 -4
BITMAP
FFFFC0
FFFFC0
FFFFC0
FFFFC0
F00000
F00000
F00000
F00000
F00000
F00000
F00000
F00000
F00000
F00000
F00000
F00000
F00000
F00000
ENDCHAR
STARTCHAR 2510
ENCODING 9488
SWIDTH 1000 0
DWIDTH 32 0
BBX 17 16 0 -3
BITMAP
FFFF80
000180
000180
000180
000180
000180
000180
000180
000180
000180
000180
000180
000180
000180
000180
000180
ENDCHAR
STARTCHAR 2513
ENCODING 9491
SWIDTH 1000 0
DWIDTH 32 0
BBX 18 18 0 -4
BITMAP
FFFFC0
FFFFC0
FFFFC0
FFFFC0
0003C0
0003C0
0003C0
0003C0
0003C0
0003C0
0003C0
0003C0
0003C0
0003C0
0003C0
0003C0
0003C0
0003C0
ENDCHAR
STARTCHAR 2514
ENCODING 9492
SWIDTH 1000 0
DWIDTH 32 0
BBX 17 16 15 12
BITMAP
C00000
C00000
C00000
C00000
C00000
C00000
C00000
C00000
C00000
C00000
C00000
C00000
C00000
C00000
C00000
FFFF80
ENDCHAR
STARTCHAR 2517
ENCODING 9495
SWIDTH 1000 0
DWIDTH 32 0
BBX 18 18 14 10
BITMAP
F00000
F00000
F00000
F00000
F00000
F00000
F00000
F00000
F00000
F00000
F00000
F00000
F00000
F00000
FFFFC0
FFFFC0
FFFFC0
FFFFC0
ENDCHAR
STARTCHAR 2518
ENCODING 9496
SWIDTH 1000 0
DWIDTH 32 0
BBX 17 16 0 12
BITMAP
000180
000180
000180
000180
000180
000180
000180
000180
000180
000180
000180
000180
000180
000180
000180
FFFF80
ENDCHAR
STARTCHAR 251B
ENCODING 9499
SWIDTH 1000 0
DWIDTH 32 0
BBX 18 18 0 10
BITMAP
0003C0
0003C0
0003C0
0003C0
0003C0
0003C0
0003C0
0003C0
0003C0
0003C0
0003C0
0003C0
0003C0
0003C0
FFFFC0
FFFFC0
FFFFC0
FFFFC0
ENDCHAR
STARTCHAR 251C
ENCODING 9500
SWIDTH 1000 0
DWIDTH 32 0
BBX 17 31 15 -3
BITMAP
C00000
C00000
C00000
C00000
C00000
C00000
C00000
C00000
C00000
C00000
C00000
C00000
C00000
C00000
C00000
FFFF80
C00000
C00000
C00000
C00000
C00000
C00000
C00000
C00000
C00000
C00000
C00000
C00000
C00000
C00000
C00000
ENDCHAR
STARTCHAR 251D
ENCODING 9501
SWIDTH 1000 0
DWIDTH 32 0
BBX 17 32 15 -4
BITMAP
C00000
C00000
C00000
C00000
C00000
C00000
C00000
C00000
C00000
C00000
C00000
C00000
C00000
C00000
FFFF80
FFFF80
FFFF80
FFFF80
C00000
C00000
C00000
C00000
C00000
C00000
C00000
C00000
C00000
C00000
C00000
C00000
C00000
C00000
ENDCHAR
STARTCHAR 2520
ENCODING 9504
SWIDTH 1000 0
DWIDTH 32 0
BBX 18 32 14 -4
BITMAP
F00000
F00000
F00000
F00000
F00000
F00000
F00000
F00000
F00000
F00000
F00000
F00000
F00000
F00000
F00000
FFFFC0
F00000
F00000
F00000
F00000
F00000
F00000
F00000
F00000
F00000
F00000
F00000
F00000
F00000
F00000
F00000
F00000
ENDCHAR
STARTCHAR 2523
ENCODING 9507
SWIDTH 1000 0
DWIDTH 32 0
BBX 18 32 14 -4
BITMAP
F00000
F00000
F00000
F00000
F00000
F00000
F00000
F00000
F00000
F00000
F00000
F00000
F00000
F00000
FFFFC0
FFFFC0
FFFFC0
FFFFC0
F00000
F00000
F00000
F00000
F00000
F00000
F00000
F00000
F00000
F00000
F00000
F00000
F00000
F00000
ENDCHAR
STARTCHAR 2524
ENCODING 9508
SWIDTH 1000 0
DWIDTH 32 0
BBX 17 31 0 -3
BITMAP
000180
000180
000180
000180
000180
000180
000180
000180
000180
000180
000180
000180
000180
000180
000180
FFFF80
000180
000180
000180
000180
000180
000180
000180
000180
000180
000180
000180
000180
000180
000180
000180
ENDCHAR
STARTCHAR 2525
ENCODING 9509
SWIDTH 1000 0
DWIDTH 32 0
BBX 17 32 0 -4
BITMAP
000180
000180
000180
000180
000180
000180
000180
000180
000180
000180
000180
000180
000180
000180
FFFF80
FFFF80
FFFF80
FFFF80
000180
000180
000180
000180
000180
000180
000180
000180
000180
000180
000180
000180
000180
000180
ENDCHAR
STARTCHAR 2528
ENCODING 9512
SWIDTH 1000 0
DWIDTH 32 0
BBX 18 32 0 -4
BITMAP
0003C0
0003C0
0003C0
0003C0
0003C0
0003C0
0003C0
0003C0
0003C0
0003C0
0003C0
0003C0
0003C0
0003C0
0003C0
FFFFC0
0003C0
0003C0
0003C0
0003C0
0003C0
0003C0
0003C0
0003C0
0003C0
0003C0
0003C0
0003C0
0003C0
0003C0
0003C0
0003C0
ENDCHAR
STARTCHAR 252B
ENCODING 9515
SWIDTH 1000 0
DWIDTH 32 0
BBX 18 32 0 -4
BITMAP
0003C0
0003C0
0003C0
0003C0
0003C0
0003C0
0003C0
0003C0
0003C0
0003C0
0003C0
0003C0
0003C0
0003C0
FFFFC0
FFFFC0
FFFFC0
FFFFC0
0003C0
0003C0
0003C0
0003C0
0003C0
0003C0
0003C0
0003C0
0003C0
0003C0
0003C0
0003C0
0003C0
0003C0
ENDCHAR
STARTCHAR 252C
ENCODING 9516
SWIDTH 1000 0
DWIDTH 32 0
BBX 32 16 0 -3
BITMAP
FFFFFFFF
00018000
00018000
00018000
00018000
00018000
00018000
00018000
00018000
00018000
00018000
00018000
00018000
00018000
00018000
00018000
ENDCHAR
STARTCHAR 252F
ENCODING 9519
SWIDTH 1000 0
DWIDTH 32 0
BBX 32 18 0 -4
BITMAP
FFFFFFFF
FFFFFFFF
FFFFFFFF
FFFFFFFF
00018000
00018000
00018000
00018000
00018000
00018000
00018000
00018000
00018000
00018000
00018000
00018000
00018000
00018000
ENDCHAR
STARTCHAR 2530
ENCODING 9520
SWIDTH 1000 0
DWIDTH 32 0
BBX 32 17 0 -4
BITMAP
FFFFFFFF
0003C000
0003C000
0003C000
0003C000
0003C000
0003C000
0003C000
0003C000
0003C000
0003C000
0003C000
0003C000
0003C000
0003C000
0003C000
0003C000
ENDCHAR
STARTCHAR 2533
ENCODING 9523
SWIDTH 1000 0
DWIDTH 32 0
BBX 32 18 0 -4
BITMAP
FFFFFFFF
FFFFFFFF
FFFFFFFF
FFFFFFFF
0003C000
0003C000
0003C000
0003C000
0003C000
0003C000
0003C000
0003C000
0003C000
0003C000
0003C000
0003C000
0003C000
0003C000
ENDCHAR
STARTCHAR 2534
ENCODING 9524
SWIDTH 1000 0
DWIDTH 32 0
BBX 32 16 0 12
BITMAP
00018000
00018000
00018000
00018000
00018000
00018000
00018000
00018000
00018000
00018000
00018000
00018000
00018000
00018000
00018000
FFFFFFFF
ENDCHAR
STARTCHAR 2537
ENCODING 9527
SWIDTH 1000 0
DWIDTH 32 0
BBX 32 18 0 10
BITMAP
00018000
00018000
00018000
00018000
00018000
00018000
00018000
00018000
00018000
00018000
00018000
00018000
00018000
00018000
FFFFFFFF
FFFFFFFF
FFFFFFFF
FFFFFFFF
ENDCHAR
STARTCHAR 2538
ENCODING 9528
SWIDTH 1000 0
DWIDTH 32 0
BBX 32 16 0 12
BITMAP
0003C000
0003C000
0003C000
0003C000
0003C000
0003C000
0003C000
0003C000
0003C000
0003C000
0003C000
0003C000
0003C000
0003C000
0003C000
FFFFFFFF
ENDCHAR
STARTCHAR 253B
ENCODING 9531
SWIDTH 1000 0
DWIDTH 32 0
BBX 32 18 0 10
BITMAP
0003C000
0003C000
0003C000
0003C000
0003C000
0003C000
0003C000
0003C000
0003C000
0003C000
0003C000
0003C000
0003C000
0003C000
FFFFFFFF
FFFFFFFF
FFFFFFFF
FFFFFFFF
ENDCHAR
STARTCHAR 253C
ENCODING 9532
SWIDTH 1000 0
DWIDTH 32 0
BBX 32 31 0 -3
BITMAP
00018000
00018000
00018000
00018000
00018000
00018000
00018000
00018000
00018000
00018000
00018000
00018000
00018000
00018000
00018000
FFFFFFFF
00018000
00018000
00018000
00018000
00018000
00018000
00018000
00018000
00018000
00018000
00018000
00018000
00018000
00018000
00018000
ENDCHAR
STARTCHAR 253F
ENCODING 9535
SWIDTH 1000 0
DWIDTH 32 0
BBX 32 32 0 -4
BITMAP
00018000
00018000
00018000
00018000
00018000
00018000
00018000
00018000
00018000
00018000
00018000
00018000
00018000
00018000
FFFFFFFF
FFFFFFFF
FFFFFFFF
FFFFFFFF
00018000
00018000
00018000
00018000
00018000
00018000
00018000
00018000
00018000
00018000
00018000
00018000
00018000
00018000
ENDCHAR
STARTCHAR 2542
ENCODING 9538
SWIDTH 1000 0
DWIDTH 32 0
BBX 32 32 0 -4
BITMAP
0003C000
0003C000
0003C000
0003C000
0003C000
0003C000
0003C000
0003C000
0003C000
0003C000
0003C000
0003C000
0003C000
0003C000
0003C000
FFFFFFFF
0003C000
0003C000
0003C000
0003C000
0003C000
0003C000
0003C000
0003C000
0003C000
0003C000
0003C000
0003C000
0003C000
0003C000
0003C000
0003C000
ENDCHAR
STARTCHAR 254B
ENCODING 9547
SWIDTH 1000 0
DWIDTH 32 0
BBX 32 32 0 -4
BITMAP
0003C000
0003C000
0003C000
0003C000
0003C000
0003C000
0003C000
0003C000
0003C000
0003C000
0003C000
0003C000
0003C000
0003C000
FFFFFFFF
FFFFFFFF
FFFFFFFF
FFFFFFFF
0003C000
0003C000
0003C000
0003C000
0003C000
0003C000
0003C000
0003C000
0003C000
0003C000
0003C000
0003C000
0003C000
0003C000
ENDCHAR
STARTCHAR 25A0
ENCODING 9632
SWIDTH 1000 0
DWIDTH 32 0
BBX 24 24 4 0
BITMAP
FFFFFF
FFFFFF
FFFFFF
FFFFFF
FFFFFF
FFFFFF
FFFFFF
FFFFFF
FFFFFF
FFFFFF
FFFFFF
FFFFFF
FFFFFF
FFFFFF
FFFFFF
FFFFFF
FFFFFF
FFFFFF
FFFFFF
FFFFFF
FFFFFF
FFFFFF
FFFFFF
FFFFFF
ENDCHAR
STARTCHAR 25A1
ENCODING 9633
SWIDTH 1000 0
DWIDTH 32 0
BBX 24 24 4 0
BITMAP
FFFFFF
FFFFFF
C00003
C00003
C00003
C00003
C00003
C00003
C00003
C00003
C00003
C00003
C00003
C00003
C00003
C00003
C00003
C00003
C00003
C00003
C00003
C00003
FFFFFF
FFFFFF
ENDCHAR
STARTCHAR 25B1
ENCODING 9649
SWIDTH 1000 0
DWIDTH 32 0
BBX 30 12 1 6
BITMAP
03FFFFFC
03FFFFF8
06000038
0E000030
0C000070
1C000060
180000E0
380000C0
300001C0
70000180
7FFFFF00
FFFFFF00
ENDCHAR
STARTCHAR 25B2
ENCODING 9650
SWIDTH 1000 0
DWIDTH 32 0
BBX 26 24 3 1
BITMAP
000C0000
000C0000
001E0000
001E0000
003F0000
003F0000
007F8000
007F8000
00FFC000
00FFC000
01FFE000
01FFE000
03FFF000
03FFF000
07FFF800
07FFF800
0FFFFC00
0FFFFC00
1FFFFE00
3FFFFE00
3FFFFF00
7FFFFF80
7FFFFF80
FFFFFFC0
ENDCHAR
STARTCHAR 25B3
ENCODING 9651
SWIDTH 1000 0
DWIDTH 32 0
BBX 26 24 3 1
BITMAP
000C0000
000C0000
001E0000
001E0000
003F0000
00330000
00738000
00618000
00E1C000
00C0C000
01C0E000
01806000
03807000
03003000
07003800
06001800
0E001C00
0C000C00
1C000E00
18000600
38000700
70000380
7FFFFF80
FFFFFFC0
ENDCHAR
STARTCHAR 25B6
ENCODING 9654
SWIDTH 1000 0
DWIDTH 32 0
BBX 24 25 4 -1
BITMAP
800000
E00000
F80000
FE0000
FF8000
FFE000
FFF800
FFFE00
FFFF00
FFFFC0
FFFFF0
FFFFFC
FFFFFF
FFFFFF
FFFFFC
FFFFF0
FFFFC0
FFFF00
FFFC00
FFF000
FFC000
FF0000
FC0000
F00000
C00000
ENDCHAR
STARTCHAR 25B7
ENCODING 9655
SWIDTH 1000 0
DWIDTH 32 0
BBX 24 25 4 -1
BITMAP
800000
E00000
F80000
FE0000
CF8000
C3E000
C0F800
C03E00
C00F00
C003C0
C000F0
C0003C
C0001F
C0001F
C0007C
C001F0
C007C0
C01F00
C07C00
C1F000
C7C000
DF0000
FC0000
F00000
C00000
ENDCHAR
STARTCHAR 25BC
ENCODING 9660
SWIDTH 1000 0
DWIDTH 32 0
BBX 26 24 3 -1
BITMAP
FFFFFFC0
7FFFFF80
7FFFFF80
3FFFFF00
1FFFFF00
1FFFFE00
0FFFFC00
0FFFFC00
07FFF800
07FFF800
03FFF000
03FFF000
01FFE000
01FFE000
00FFC000
00FFC000
007F8000
007F8000
003F0000
003F0000
001E0000
001E0000
000C0000
000C0000
ENDCHAR
STARTCHAR 25BD
ENCODING 9661
SWIDTH 1000 0
DWIDTH 32 0
BBX 26 24 3 -1
BITMAP
FFFFFFC0
7FFFFF80
70000380
38000700
18000600
1C000E00
0C000C00
0E001C00
06001800
07003800
03003000
03807000
01806000
01C0E000
00C0C000
00E1C000
00618000
00738000
00330000
003F0000
001E0000
001E0000
000C0000
000C0000
ENDCHAR
STARTCHAR 25C0
ENCODING 9664
SWIDTH 1000 0
DWIDTH 32 0
BBX 24 25 4 -1
BITMAP
000001
000007
00001F
00007F
0001FF
0007FF
001FFF
007FFF
00FFFF
03FFFF
0FFFFF
3FFFFF
FFFFFF
FFFFFF
3FFFFF
0FFFFF
03FFFF
00FFFF
003FFF
000FFF
0003FF
0000FF
00003F
00000F
000003
ENDCHAR
STARTCHAR 25C1
ENCODING 9665
SWIDTH 1000 0
DWIDTH 32 0
BBX 24 25 4 -1
BITMAP
000001
000007
00001F
00007F
0001F3
0007C3
001F03
007C03
00F003
03C003
0F0003
3C0003
F80003
F80003
3E0003
0F8003
03E003
00F803
003E03
000F83
0003E3
0000FB
00003F
00000F
000003
ENDCHAR
STARTCHAR 25C6
ENCODING 9670
SWIDTH 1000 0
DWIDTH 32 0
BBX 28 28 2 -1
BITMAP
00060000
000F0000
001F8000
003FC000
007FE000
00FFF000
01FFF800
03FFFC00
07FFFE00
0FFFFF00
1FFFFF80
3FFFFFC0
7FFFFFE0
FFFFFFF0
FFFFFFF0
7FFFFFE0
3FFFFFC0
1FFFFF80
0FFFFF00
07FFFE00
03FFFC00
01FFF800
00FFF000
007FE000
003FC000
001F8000
000F0000
00060000
ENDCHAR
STARTCHAR 25C7
ENCODING 9671
SWIDTH 1000 0
DWIDTH 32 0
BBX 28 28 2 -1
BITMAP
00060000
000F0000
001F8000
0039C000
0070E000
00E07000
01C03800
03801C00
07000E00
0E000700
1C000380
380001C0
700000E0
E0000070
E0000070
700000E0
380001C0
1C000380
0E000700
07000E00
03801C00
01C03800
00E07000
0070E000
0039C000
001F8000
000F0000
00060000
ENDCHAR
STARTCHAR 25C9
ENCODING 9673
SWIDTH 1000 0
DWIDTH 32 0
BBX 26 27 3 -1
BITMAP
007F0000
01FFE000
07C0F800
0F003C00
1C000E00
38000700
303F0300
60FFC180
61FFE180
C3FFF0C0
C3FFF0C0
C7FFF8C0
C7FFF8C0
C7FFF8C0
C7FFF8C0
C7FFF8C0
C7FFF8C0
C3FFF0C0
63FFF180
61FFE180
30FFC300
383F0700
1C000E00
0E001C00
07C0F800
01FFE000
007F8000
ENDCHAR
STARTCHAR 25CB
ENCODING 9675
SWIDTH 1000 0
DWIDTH 32 0
BBX 26 26 3 -1
BITMAP
007F8000
01FFE000
07C0F800
0F003C00
1C000E00
38000700
70000380
60000180
E0000180
C00000C0
C00000C0
C00000C0
C00000C0
C00000C0
C00000C0
C00000C0
C00000C0
E0000180
60000180
70000380
38000700
1C000E00
0E003C00
07C0F800
01FFE000
007F8000
ENDCHAR
STARTCHAR 25CE
ENCODING 9678
SWIDTH 1000 0
DWIDTH 32 0
BBX 26 27 3 -1
BITMAP
007F0000
01FFE000
07C0F800
0F003C00
1C000E00
38000700
303F0300
60FFC180
61C1E180
C38070C0
C30030C0
C60018C0
C60018C0
C60018C0
C60018C0
C60018C0
C60018C0
C30030C0
63807180
61C1E180
30FFC300
383F0700
1C000E00
0E001C00
07C0F800
01FFE000
007F8000
ENDCHAR
STARTCHAR 25CF
ENCODING 9679
SWIDTH 1000 0
DWIDTH 32 0
BBX 26 27 3 -1
BITMAP
003F8000
01FFE000
07FFF800
0FFFFC00
1FFFFE00
3FFFFF00
3FFFFF00
7FFFFF80
7FFFFF80
FFFFFFC0
FFFFFFC0
FFFFFFC0
FFFFFFC0
FFFFFFC0
FFFFFFC0
FFFFFFC0
FFFFFFC0
FFFFFFC0
7FFFFF80
7FFFFF80
3FFFFF00
3FFFFF00
1FFFFE00
0FFFFC00
07FFF800
01FFE000
007F8000
ENDCHAR
STARTCHAR 25D0
ENCODING 9680
SWIDTH 1000 0
DWIDTH 32 0
BBX 26 27 3 -1
BITMAP
007F8000
01FFE000
07FFF800
0FF87C00
1FF81E00
3FF80F00
7FF80700
7FF80380
FFF80180
FFF801C0
FFF800C0
FFF800C0
FFF800C0
FFF800C0
FFF800C0
FFF800C0
FFF800C0
FFF800C0
7FF80180
7FF80180
3FF80300
3FF80700
1FF80E00
0FF81C00
07F87800
01FFE000
007F8000
ENDCHAR
STARTCHAR 25D1
ENCODING 9681
SWIDTH 1000 0
DWIDTH 32 0
BBX 26 27 3 -1
BITMAP
007F8000
01FFE000
07FFF800
0F87FC00
1E07FE00
3807FF00
7007FF00
7007FF80
E007FF80
E007FFC0
C007FFC0
C007FFC0
C007FFC0
C007FFC0
C007FFC0
C007FFC0
C007FFC0
C007FFC0
6007FF80
6007FF80
3007FF00
3807FF00
1C07FE00
0E07FC00
0787F800
01FFE000
007F8000
ENDCHAR
STARTCHAR 25D2
ENCODING 9682
SWIDTH 1000 0
DWIDTH 32 0
BBX 26 26 3 -1
BITMAP
007F8000
03FFE000
07C0F800
0E001C00
1C000E00
38000700
70000380
60000180
E00001C0
C00000C0
C00000C0
C00000C0
C00000C0
FFFFFFC0
FFFFFFC0
FFFFFFC0
FFFFFFC0
FFFFFFC0
7FFFFF80
7FFFFF80
3FFFFF00
1FFFFE00
0FFFFC00
07FFF800
01FFE000
007F8000
ENDCHAR
STARTCHAR 25D3
ENCODING 9683
SWIDTH 1000 0
DWIDTH 32 0
BBX 26 26 3 -1
BITMAP
007F8000
01FFE000
07FFF800
0FFFFC00
1FFFFE00
3FFFFF00
7FFFFF80
7FFFFF80
FFFFFFC0
FFFFFFC0
FFFFFFC0
FFFFFFC0
FFFFFFC0
C00000C0
C00000C0
C00000C0
C00000C0
E00001C0
60000180
70000380
38000700
1C000E00
0E001C00
07C0F800
01FFE000
007F8000
ENDCHAR
STARTCHAR 25E6
ENCODING 9702
SWIDTH 1000 0
DWIDTH 32 0
BBX 10 11 11 7
BITMAP
1E00
7F80
E1C0
C0C0
C0C0
C040
C0C0
C0C0
E1C0
7F80
1E00
ENDCHAR
STARTCHAR 25EF
ENCODING 9711
SWIDTH 1000 0
DWIDTH 32 0
BBX 30 30 1 -3
BITMAP
001FE000
00E03800
03800600
06000180
0C0000C0
18000060
30000020
30000010
60000018
40000008
C0000008
C000000C
C000000C
80000004
80000004
80000004
80000004
C000000C
C000000C
40000008
40000008
60000018
20000030
10000020
18000060
0C0000C0
06000180
01800600
00E03C00
001FE000
ENDCHAR
STARTCHAR 2600
ENCODING 9728
SWIDTH 1000 0
DWIDTH 32 0
BBX 30 30 1 -3
BITMAP
00030000
00030000
00030000
00030000
0C0300C0
06000180
03000300
018FC600
003FE000
007FF800
00FFF800
00FFFC00
01FFFE00
01FFFE00
FDFFFEFC
FDFFFEFC
01FFFE00
01FFFE00
00FFFC00
00FFFC00
007FF800
003FF000
018FC600
03000300
06000180
0C0300C0
00030000
00030000
00030000
00030000
ENDCHAR
STARTCHAR 2601
ENCODING 9729
SWIDTH 1000 0
DWIDTH 32 0
BBX 28 22 2 -2
BITMAP
007E0000
00FF8000
01FFC000
03FFE000
03FFE000
03FFF3C0
03FFF7E0
07FFFFF0
07FFFFF0
1FFFFFF0
3FFFFFF0
7FFFFFE0
FFFFFFC0
FFFFFFC0
FFFFFFE0
FFFFFFF0
FFFBFFF0
7FF3FFF0
3FE1FFE0
1F81FFE0
00007FC0
00003F00
ENDCHAR
STARTCHAR 2602
ENCODING 9730
SWIDTH 1000 0
DWIDTH 32 0
BBX 30 29 1 -3
BITMAP
00030000
00030000
003FF000
00FFFC00
03FFFF00
0FFFFFC0
1FFFFFE0
1FFFFFE0
3FFFFFF0
7FFFFFF8
63C78F18
41830608
81030204
81030404
00030000
00030000
00030000
00030000
00030000
00030000
00030000
00030000
00030000
00030000
00030000
00230000
00230000
00220000
001C0000
ENDCHAR
STARTCHAR 2603
ENCODING 9731
SWIDTH 1000 0
DWIDTH 32 0
BBX 30 29 1 -2
BITMAP
C0060000
C00A1818
01842418
02804200
01808100
00010080
00020080
301C0080
30630130
0180C130
01003E00
021CE100
021CE100
721CE100
52000100
21084200
0087841C
01800614
06000188
C8000040
C8030040
10030020
10030020
10000020
10030020
10030040
08030040
06000180
01FFFE00
ENDCHAR
STARTCHAR 2605
ENCODING 9733
SWIDTH 1000 0
DWIDTH 32 0
BBX 28 27 2 -1
BITMAP
00040000
00060000
00060000
00060000
000F0000
000F0000
000F0000
001F8000
001F8000
001F8000
FFFFFFF0
3FFFFFC0
1FFFFF80
0FFFFF00
03FFFC00
01FFF800
00FFF000
00FFF000
00FFF000
01FFF800
01FFF800
01F9F800
03F07C00
03C03C00
03801C00
06000600
04000200
ENDCHAR
STARTCHAR 2606
ENCODING 9734
SWIDTH 1000 0
DWIDTH 32 0
BBX 28 28 2 -1
BITMAP
00040000
00060000
00060000
00060000
000F0000
000F0000
00090000
00198000
00198000
00108000
FFF0FFF0
3FF0FFC0
1C000380
0E000700
03000E00
01801800
00C03000
00C03000
00801000
01861800
018F1800
01198800
0370EC00
03E07C00
03801C00
07000E00
06000600
08000200
ENDCHAR
STARTCHAR 260E
ENCODING 9742
SWIDTH 1000 0
DWIDTH 32 0
BBX 29 24 1 0
BITMAP
07FFFF00
1FFFFFE0
3FFFFFF0
7FF03FF0
7C7038F8
7C7038F8
7C7038F8
F87FF8F8
00FFFC00
01FFFE00
01F87E00
03E01F00
03C00F00
03C00F00
07800780
07800780
0F8007C0
1FC00FE0
3FC00FF0
3FE01FF0
3FF87FF0
7FFFFFF0
7FFFFFF8
7FFFFFF8
ENDCHAR
STARTCHAR 2616
ENCODING 9750
SWIDTH 1000 0
DWIDTH 32 0
BBX 26 25 3 1
BITMAP
001E0000
003F0000
00F3C000
03C0F000
0F807C00
1E001E00
38000700
30000300
30000300
30000300
30000300
30000300
30000300
30000300
70000300
70000380
60000180
60000180
60000180
60000180
60000180
60000180
60000180
FFFFFFC0
FFFFFFC0
ENDCHAR
STARTCHAR 2617
ENCODING 9751
SWIDTH 1000 0
DWIDTH 32 0
BBX 26 25 3 1
BITMAP
001E0000
007F8000
00FFC000
03FFF000
0FFFFC00
1FFFFE00
3FFFFF00
3FFFFF00
3FFFFF00
3FFFFF00
3FFFFF00
3FFFFF00
3FFFFF00
3FFFFF00
7FFFFF00
7FFFFF80
7FFFFF80
7FFFFF80
7FFFFF80
7FFFFF80
7FFFFF80
7FFFFF80
7FFFFF80
FFFFFFC0
FFFFFFC0
ENDCHAR
STARTCHAR 261E
ENCODING 9758
SWIDTH 1000 0
DWIDTH 32 0
BBX 28 13 2 5
BITMAP
7C7FFFE0
47804010
86006010
84049FE0
843BE400
87C1C200
8802B200
84028C00
86058400
89056400
8AC23800
44391000
3807E000
ENDCHAR
STARTCHAR 2640
ENCODING 9792
SWIDTH 1000 0
DWIDTH 32 0
BBX 20 28 6 -2
BITMAP
01F800
03FC00
070E00
0E0700
1C0380
180180
180180
180180
180180
180180
1C0380
0E0700
070E00
03FC00
007000
006000
006000
006000
FFFFF0
FFFFF0
006000
006000
006000
006000
006000
006000
006000
006000
ENDCHAR
STARTCHAR 2642
ENCODING 9794
SWIDTH 1000 0
DWIDTH 32 0
BBX 26 26 3 -1
BITMAP
0001FFC0
0001FFC0
000003C0
000007C0
00000EC0
00001CC0
000038C0
000070C0
0000E0C0
0001C0C0
000380C0
07C70000
1FEE0000
387C0000
70180000
600C0000
E00C0000
C00E0000
C00E0000
C00E0000
E00C0000
600C0000
70180000
38780000
1FF00000
07C00000
ENDCHAR
STARTCHAR 2660
ENCODING 9824
SWIDTH 1000 0
DWIDTH 32 0
BBX 24 29 4 -2
BITMAP
001800
003C00
007E00
00FF00
01FF80
03FFC0
03FFC0
07FFE0
0FFFF0
1FFFF8
1FFFF8
3FFFFC
7FFFFE
7FFFFE
FFFFFF
FFFFFF
FFFFFF
FFFFFF
FFFFFF
FFFFFF
7FDBFE
3F99FC
1F18F8
001800
003C00
003C00
007C00
007E00
008100
ENDCHAR
STARTCHAR 2661
ENCODING 9825
SWIDTH 1000 0
DWIDTH 32 0
BBX 26 27 3 -2
BITMAP
0FC0FC00
18618600
20330100
601E0180
400C0080
C00C00C0
C00000C0
C00000C0
C00000C0
C00000C0
60000180
60000180
30000380
30000300
18000600
18000600
0C000C00
06001800
03003800
03003000
01806000
00C0C000
00618000
00330000
001E0000
001E0000
000C0000
ENDCHAR
STARTCHAR 2662
ENCODING 9826
SWIDTH 1000 0
DWIDTH 32 0
BBX 24 30 4 -3
BITMAP
001800
003C00
006600
006600
00C300
018180
0300C0
0700C0
060060
0C0030
180018
38001C
30000C
600006
C00003
600006
30000C
30000C
180018
0C0030
0C0060
060060
0300C0
018180
018380
00C300
006600
003C00
003C00
001800
ENDCHAR
STARTCHAR 2663
ENCODING 9827
SWIDTH 1000 0
DWIDTH 32 0
BBX 28 30 2 -3
BITMAP
000F0000
003FC000
007FE000
00FFE000
00FFF000
00FFF000
00FFF000
00FFF000
00FFF000
00FFF000
007FE000
0F3FCF00
3F9FBFC0
7FEF7FE0
7FFFFFE0
FFFFFFF0
FFFFFFF0
FFFFFFF0
FFFFFFF0
FFFFFFF0
7FF6FFE0
7FE67FE0
3FC63FC0
0F061F00
00060000
000F0000
000F0000
001F0000
001F8000
00204000
ENDCHAR
STARTCHAR 2664
ENCODING 9828
SWIDTH 1000 0
DWIDTH 32 0
BBX 24 30 4 -3
BITMAP
001800
003C00
007C00
006600
00C300
018180
0300C0
060060
0E0070
0C0030
180018
30000C
30000C
600006
400002
C00003
C00003
C00003
C00003
C00003
C02403
606606
30E70C
1F24F8
006600
004600
004200
00C300
00FF00
010080
ENDCHAR
STARTCHAR 2665
ENCODING 9829
SWIDTH 1000 0
DWIDTH 32 0
BBX 26 26 3 -1
BITMAP
0F807C00
3FE1FF00
7FF3FF80
7FF3FF80
FFFFFFC0
FFFFFFC0
FFFFFFC0
FFFFFFC0
FFFFFFC0
7FFFFF80
7FFFFF80
7FFFFF80
3FFFFF00
1FFFFE00
1FFFFE00
0FFFFC00
07FFF800
07FFF800
03FFF000
01FFE000
00FFC000
007F8000
007F8000
003F0000
001E0000
000C0000
ENDCHAR
STARTCHAR 2666
ENCODING 9830
SWIDTH 1000 0
DWIDTH 32 0
BBX 24 30 4 -2
BITMAP
001800
003C00
007C00
007E00
00FF00
01FF80
03FFC0
03FFC0
07FFE0
0FFFF0
1FFFF8
1FFFF8
3FFFFC
7FFFFE
FFFFFF
7FFFFE
3FFFFC
3FFFFC
1FFFF8
0FFFF0
07FFE0
07FFE0
03FFC0
01FF80
00FF00
00FF00
007E00
003C00
001800
001800
ENDCHAR
STARTCHAR 2667
ENCODING 9831
SWIDTH 1000 0
DWIDTH 32 0
BBX 28 30 2 -3
BITMAP
001F8000
0030C000
00402000
00C03000
00801000
01801800
01801800
01801800
01801800
00801000
0FC03F00
386061C0
6030C040
60108060
C0000030
C0000030
C0000030
C0000030
C0000030
C0090030
60198060
2039C040
18492180
0F999F00
00198000
00198000
00108000
0030C000
003FC000
00402000
ENDCHAR
STARTCHAR 2668
ENCODING 9832
SWIDTH 1000 0
DWIDTH 32 0
BBX 28 26 2 -1
BITMAP
00040000
000C0000
010C3000
03183000
02183000
06187000
061C7000
061C3000
070C3000
030E3800
03861800
01871C00
01870C00
01C30C00
01C30C00
31C30CC0
61830C60
C1871830
C3061830
C0060030
E0040070
700000E0
7C0003C0
1F801F80
07FFFE00
00FFF000
ENDCHAR
STARTCHAR 2669
ENCODING 9833
SWIDTH 1000 0
DWIDTH 32 0
BBX 11 28 8 -2
BITMAP
0060
0060
0060
0060
0060
0060
0060
0060
0060
0060
0060
0060
0060
0060
0060
0060
0060
0060
0060
0060
0060
1F60
7FE0
7FC0
FFC0
7FC0
7F80
3E00
ENDCHAR
STARTCHAR 266A
ENCODING 9834
SWIDTH 1000 0
DWIDTH 32 0
BBX 21 28 6 -2
BITMAP
00C000
00E000
00E000
00F800
00FC00
00DE00
00CF80
00C3C0
00C1E0
00C0F0
00C078
00C038
00C018
00C018
00C018
00C038
00C030
00C060
00C0E0
00C180
00C000
3FC000
7FC000
FFC000
FFC000
FF8000
7F0000
3E0000
ENDCHAR
STARTCHAR 266B
ENCODING 9835
SWIDTH 1000 0
DWIDTH 32 0
BBX 24 30 2 -3
BITMAP
000007
00007F
0007FF
00FFFF
01FFFB
01FF83
01F003
018003
018003
018003
018003
018003
018003
018003
018003
018003
018003
018003
018003
01807B
0181FF
0181FF
0183FF
3D83FE
FF81FC
FF80F8
FF8000
FF0000
FF0000
7C0000
ENDCHAR
STARTCHAR 266C
ENCODING 9836
SWIDTH 1000 0
DWIDTH 32 0
BBX 24 30 2 -3
BITMAP
000007
00007F
0007FF
00FFFF
01FFF3
01FE03
01E007
01807F
0187FF
01FFFF
01FFF3
01FE03
01E003
018003
018003
018003
018003
018003
018003
01807B
0181FF
0181FF
0183FF
3D83FE
FF81FC
FF80F8
FF8000
FF0000
FF0000
7C0000
ENDCHAR
STARTCHAR 266D
ENCODING 9837
SWIDTH 1000 0
DWIDTH 32 0
BBX 13 27 11 -1
BITMAP
C000
C000
C000
C000
C000
C000
C000
C000
C000
C000
C3E0
CFF0
DC78
F038
E038
C038
C038
C038
C070
C070
C0E0
C1C0
C380
CF00
FC00
F000
C000
ENDCHAR
STARTCHAR 266E
ENCODING 9838
SWIDTH 1000 0
DWIDTH 32 0
BBX 10 27 11 -1
BITMAP
C000
C000
C000
C000
C000
C000
C000
C1C0
CFC0
FFC0
FCC0
E0C0
C0C0
C0C0
C0C0
C0C0
C7C0
FFC0
FFC0
F8C0
C0C0
00C0
00C0
00C0
00C0
00C0
00C0
ENDCHAR
STARTCHAR 266F
ENCODING 9839
SWIDTH 1000 0
DWIDTH 32 0
BBX 20 28 6 -2
BITMAP
000600
060600
060600
060600
060600
060600
060630
060FF0
07FFF0
FFFE00
FE0600
060600
060600
060600
060600
060600
060670
063FF0
0FFFC0
FFF600
FE0600
060600
060600
060600
060600
060600
060600
060000
ENDCHAR
STARTCHAR 2713
ENCODING 10003
SWIDTH 1000 0
DWIDTH 32 0
BBX 21 21 7 2
BITMAP
000008
000010
000030
000020
000040
000080
000180
000300
000600
000C00
000C00
001800
403000
E06000
60C000
71C000
738000
3F0000
3E0000
1C0000
080000
ENDCHAR
STARTCHAR 2756
ENCODING 10070
SWIDTH 1000 0
DWIDTH 32 0
BBX 28 28 2 -1
BITMAP
00060000
000F0000
001F8000
003FC000
007FE000
00FFF000
00FFF000
007FE000
063FC600
0F1F8F00
1F8F1F80
3FC63FC0
7FE07FE0
FFF0FFF0
FFF0FFF0
7FE07FE0
3FC63FC0
1F8F1F80
0F1F8F00
063FC600
007FE000
00FFF000
00FFF000
007FE000
003FC000
001F8000
000F0000
00060000
ENDCHAR
STARTCHAR 2776
ENCODING 10102
SWIDTH 1000 0
DWIDTH 32 0
BBX 30 30 1 -3
BITMAP
001FE000
00FFF800
03FFFE00
07FFFF80
0FFFFFC0
1FF87FE0
3FE07FE0
3FC07FF0
7FCC7FF8
7FFC7FF8
FFFC7FF8
FFFC7FFC
FFFC7FFC
FFFC7FFC
FFFC7FFC
FFFC7FFC
FFFC7FFC
FFFC7FFC
FFFC7FFC
7FFC7FF8
7FFC7FF8
7FFC7FF8
3FFC7FF0
1FFC7FE0
1FFC7FE0
0FFFFFC0
07FFFF80
01FFFE00
00FFFC00
001FE000
ENDCHAR
STARTCHAR 2777
ENCODING 10103
SWIDTH 1000 0
DWIDTH 32 0
BBX 30 30 1 -3
BITMAP
001FE000
00FFF800
03FFFE00
07FFFF80
0FF83FC0
1FE00FE0
3FC787E0
3F8FE7F0
7F8FE3F8
7F9FE3F8
FF1FE3F8
FFFFE3FC
FFFFC7FC
FFFF87FC
FFFE0FFC
FFFC3FFC
FFF07FFC
FFE1FFFC
FFC3FFFC
7FC7FFF8
7F8FFFF8
7F8FFFF8
3F0003F0
1F0003E0
1FFFFFE0
0FFFFFC0
07FFFF80
01FFFE00
00FFFC00
001FE000
ENDCHAR
STARTCHAR 2778
ENCODING 10104
SWIDTH 1000 0
DWIDTH 32 0
BBX 30 30 1 -3
BITMAP
001FE000
00FFF800
03FFFE00
07FFFF80
0FF03FC0
1FE00FE0
3FC007E0
3F8787F0
7F0FE7F8
7F1FE7F8
FFFFE7F8
FFFFE7FC
FFFFCFFC
FFF01FFC
FFF01FFC
FFFF07FC
FFFFE3FC
FFFFE3FC
FFFFF3FC
7F3FF3F8
7F1FF3F8
7F1FE3F8
3F87C7F0
1FC00FE0
1FF03FE0
0FFFFFC0
07FFFF80
01FFFE00
00FFFC00
001FE000
ENDCHAR
STARTCHAR 2779
ENCODING 10105
SWIDTH 1000 0
DWIDTH 32 0
BBX 30 30 1 -3
BITMAP
001FE000
00FFFC00
03FFFE00
07FFFF80
0FFFFFC0
1FFE1FE0
3FFE1FF0
3FFC1FF0
7FF81FF8
7FF91FF8
FFF11FF8
FFE31FFC
FFC71FFC
FFCF1FFC
FF8F1FFC
FF1F1FFC
FE3F1FFC
FE3F1FFC
FC0001FC
7C0001F8
7FFF1FF8
7FFF1FF8
3FFF1FF0
1FFF1FE0
1FFF1FE0
0FFFFFC0
07FFFF80
01FFFE00
00FFF800
001FE000
ENDCHAR
STARTCHAR 277A
ENCODING 10106
SWIDTH 1000 0
DWIDTH 32 0
BBX 30 30 1 -3
BITMAP
001FE000
00FFF800
03FFFE00
07FFFF80
0FFFFFC0
1FC007E0
3FC007E0
3F8FFFF0
7F8FFFF8
7F8FFFF8
FF8FFFF8
FF883FFC
FF800FFC
FF8787FC
FF8FE7FC
FF9FE3FC
FFFFE3FC
FFFFF3FC
FFFFF3FC
7FFFE3F8
7F1FE3F8
7F8FC7F8
3FC787F0
1FE00FE0
1FF03FE0
0FFFFFC0
07FFFF80
01FFFE00
00FFFC00
001FE000
ENDCHAR
STARTCHAR 277B
ENCODING 10107
SWIDTH 1000 0
DWIDTH 32 0
BBX 30 30 1 -3
BITMAP
001FE000
00FFF800
03FFFE00
07FFFF80
0FF83FC0
1FE00FE0
3FE00FE0
3FC3C7F0
7F8FE7F8
7F8FFFF8
FF9FFFF8
FF1FFFFC
FF183FFC
FF100FFC
FF0787FC
FF0FC7FC
FF1FE3FC
FF1FE3FC
FF1FE3FC
7F9FE3F8
7F9FE3F8
7F8FC7F8
3FC787F0
1FE00FE0
1FF83FE0
0FFFFFC0
07FFFF80
01FFFE00
00FFFC00
001FE000
ENDCHAR
STARTCHAR 277C
ENCODING 10108
SWIDTH 1000 0
DWIDTH 32 0
BBX 30 30 1 -3
BITMAP
001FE000
007FF800
01FFFE00
03FFFF80
0FFFFFC0
1FFFFFE0
1F8003E0
3F8003F0
7FFFE3F8
7FFFC7F8
7FFFC7F8
FFFF8FFC
FFFF8FFC
FFFF9FFC
FFFF1FFC
FFFF3FFC
FFFE3FFC
FFFE3FFC
FFFE7FFC
7FFC7FF8
7FFC7FF8
7FF8FFF8
3FF8FFF0
1FF8FFE0
1FF1FFE0
0FF1FFC0
07FFFF80
01FFFE00
00FFFC00
001FE000
ENDCHAR
STARTCHAR 277D
ENCODING 10109
SWIDTH 1000 0
DWIDTH 32 0
BBX 30 30 1 -3
BITMAP
001FE000
00FFF800
03FFFE00
07FFFF80
0FF03FC0
1FC00FE0
3F8007E0
3F8787F0
7F1FE3F8
7F1FE3F8
FF1FE3F8
FF1FE7FC
FF87C7FC
FFC00FFC
FFE01FFC
FFC00FFC
FF0783FC
FF1FE3FC
FF3FF3FC
7F3FF3F8
7F3FF3F8
7F1FE3F8
3F8FC7F0
1FC00FE0
1FF03FE0
0FFFFFC0
07FFFF80
01FFFE00
00FFFC00
001FE000
ENDCHAR
STARTCHAR 277E
ENCODING 10110
SWIDTH 1000 0
DWIDTH 32 0
BBX 30 30 1 -3
BITMAP
001FE000
00FFF800
03FFFE00
07FFFF80
0FF83FC0
1FE01FE0
3FC00FE0
3FC787F0
7F8FC7F8
7F8FE3F8
FF9FE3F8
FF9FE3FC
FF9FE3FC
FF8FE3FC
FF8FC3FC
FFC783FC
FFE013FC
FFF073FC
FFFFE3FC
7FFFE3F8
7F8FE7F8
7F8FC7F8
3FC78FF0
1FE01FE0
1FF03FE0
0FFFFFC0
07FFFF80
01FFFE00
00FFFC00
001FE000
ENDCHAR
STARTCHAR 277F
ENCODING 10111
SWIDTH 1000 0
DWIDTH 32 0
BBX 30 30 1 -3
BITMAP
001FE000
00FFF800
03FFFE00
07FFFF80
0FFFFFC0
1E3F83E0
3C3F01E0
383E38F0
783C78F8
7E3CFCF8
FE3CFC78
FE38FC7C
FE38FC7C
FE38FC7C
FE38FE7C
FE38FE7C
FE38FE7C
FE38FC7C
FE38FC7C
7E3CFC78
7E3CFCF8
7E3C78F8
3E3E39F0
1E3F01E0
1E3F87E0
0FFFFFC0
07FFFF80
01FFFE00
00FFFC00
001FE000
ENDCHAR
STARTCHAR 2934
ENCODING 10548
SWIDTH 1000 0
DWIDTH 32 0
BBX 26 25 3 0
BITMAP
00000800
00001C00
00001C00
00003E00
00007F00
0000FF80
0001DDC0
00019CC0
00011C40
00011C40
00001C00
00001C00
00001C00
00001C00
00001C00
00001C00
00001C00
00001C00
00001800
00003800
00003000
00007000
0001E000
FFFFC000
FFFE0000
ENDCHAR
STARTCHAR 2935
ENCODING 10549
SWIDTH 1000 0
DWIDTH 32 0
BBX 26 25 3 -1
BITMAP
FFFE0000
FFFFC000
0001E000
00007000
00003000
00003800
00001800
00001800
00001C00
00001C00
00001C00
00001C00
00001C00
00001C00
00001C00
00011C40
00011C40
00019CC0
0001DDC0
0000FF80
00007F00
00003E00
00001C00
00001C00
00000800
ENDCHAR
STARTCHAR 29BF
ENCODING 10687
SWIDTH 1000 0
DWIDTH 32 0
BBX 26 27 3 -1
BITMAP
003F8000
01FFE000
03C0F800
07003C00
1C000E00
38000700
30000300
60000180
60000180
C01E00C0
C03F00C0
C07F80C0
C07F80C0
C07F80C0
C07F80C0
C07F80C0
C03F00C0
C01E00C0
E0000180
60000180
70000300
38000700
1C000E00
0F003C00
07C0F800
01FFE000
007F8000
ENDCHAR
STARTCHAR 29FA
ENCODING 10746
SWIDTH 687 0
DWIDTH 22 0
BBX 18 18 2 1
BITMAP
061800
061800
061800
061800
061800
061800
061800
061800
FFFFC0
FFFFC0
061800
061800
061800
061800
061800
061800
061800
061800
ENDCHAR
STARTCHAR 29FB
ENCODING 10747
SWIDTH 687 0
DWIDTH 22 0
BBX 18 18 2 1
BITMAP
18C600
18C600
18C600
18C600
18C600
18C600
18C600
18C600
FFFFC0
FFFFC0
18C600
18C600
18C600
18C600
18C600
18C600
18C600
18C600
ENDCHAR
STARTCHAR 2E83
ENCODING 11907
SWIDTH 1000 0
DWIDTH 32 0
BBX 21 24 7 0
BITMAP
E00000
E00000
E00000
E00000
E00000
E00000
E00000
E00000
E00000
E00000
E00000
E00000
E00000
E00000
E00000
E00000
E00038
E00038
E00038
E00038
E00038
E00070
7FFFF0
3FFFF0
ENDCHAR
STARTCHAR 2E85
ENCODING 11909
SWIDTH 1000 0
DWIDTH 32 0
BBX 16 28 7 -2
BITMAP
0004
0007
000E
000E
001C
0038
0070
00E0
01E0
03E0
07E0
0FE0
1EE0
78E0
F0E0
E0E0
00E0
00E0
00E0
00E0
00E0
00E0
00E0
00E0
00E0
00E0
00E0
00E0
ENDCHAR
STARTCHAR 2E87
ENCODING 11911
SWIDTH 1000 0
DWIDTH 32 0
BBX 29 26 2 -2
BITMAP
1FFFFF00
1FFFFF00
1C000700
1C000700
1C000700
1C000700
1C000700
1C000700
1C000700
1C000700
1C000700
1C000700
18000300
18000300
18000300
18000300
18000300
18000300
38000390
38000398
300001B8
700001B0
700001F0
E00000F0
E00000F0
C0000060
ENDCHAR
STARTCHAR 2E89
ENCODING 11913
SWIDTH 1000 0
DWIDTH 32 0
BBX 13 27 9 -2
BITMAP
0018
0018
E018
E018
E018
E018
E018
E018
E018
E018
E018
E018
E018
E018
E018
E018
E018
E018
E018
0018
0018
0018
0018
0018
0438
07F8
07F0
ENDCHAR
STARTCHAR 2E8E
ENCODING 11918
SWIDTH 1000 0
DWIDTH 32 0
BBX 29 24 1 -1
BITMAP
7FFFFFF8
7FFFFFF8
00703000
00703000
00703000
00703000
00703000
00703000
00703000
00703000
00703000
00703000
00603000
00603000
00603000
00E03010
00C03018
01C03018
03C03018
07803018
0F003018
3E003838
FC003FF0
70001FE0
ENDCHAR
STARTCHAR 2E8F
ENCODING 11919
SWIDTH 1000 0
DWIDTH 32 0
BBX 27 27 3 -2
BITMAP
01004000
0180E000
03807000
03007000
07003800
0E001C00
0E000E00
1C000700
38000380
70C1C3C0
E0C1C180
40C1C000
00C1C000
00C1C000
00C1C000
00C1C000
00C1C000
01C1C000
0181C000
0181C080
0381C0E0
0701C0C0
0F01C0C0
1E01C0C0
FC00FFC0
F000FF80
40000000
ENDCHAR
STARTCHAR 2E90
ENCODING 11920
SWIDTH 1000 0
DWIDTH 32 0
BBX 27 28 3 -2
BITMAP
00380000
00380000
00380000
00380000
00380000
00380000
00380000
FFFFFFC0
FFFFFFC0
003B0000
003B0000
003B0000
00330000
00330000
00330000
00730000
00630000
00E30000
00E30000
01C30080
03C300E0
038300C0
0F0300C0
1E0300C0
3C0301C0
F803FFC0
E001FF00
40000000
ENDCHAR
STARTCHAR 2E92
ENCODING 11922
SWIDTH 1000 0
DWIDTH 32 0
BBX 25 24 5 0
BITMAP
FFFFF800
FFFFF800
C0001800
C0001800
C0001800
C0001800
C0001800
C0001800
C0001800
FFFFF800
FFFFF800
C0001800
C0001800
C0000000
C0000000
C0000000
C0000300
C0000380
C0000300
C0000300
C0000300
E0000700
FFFFFF00
3FFFFC00
ENDCHAR
STARTCHAR 2E93
ENCODING 11923
SWIDTH 1000 0
DWIDTH 32 0
BBX 26 25 3 0
BITMAP
000C0000
001C0000
001C0000
00380000
00700000
00E03800
10E03800
39C07000
3F80F000
1F00E000
0F01C000
03838000
01C70000
00EF0000
007E0000
007C2000
00387000
00703800
00E01C00
01C00E00
03800600
0701FF00
FFFFFF80
FFFF81C0
7C000180
ENDCHAR
STARTCHAR 2E94
ENCODING 11924
SWIDTH 1000 0
DWIDTH 32 0
BBX 28 24 2 1
BITMAP
01C00000
01C00000
01800000
01800000
01FFFE00
01FFFE00
03800E00
03800E00
03000C00
03000C00
03000C00
07000C00
07000C00
06000C00
07FFFC00
0FFFFC00
0E001800
0C001800
0C001800
00001800
00003800
00003800
FFFFFFF0
FFFFFFF0
ENDCHAR
STARTCHAR 2E96
ENCODING 11926
SWIDTH 1000 0
DWIDTH 32 0
BBX 13 29 9 -2
BITMAP
0300
0300
0300
0300
0300
0300
0300
0360
3370
7330
7330
6338
6318
6318
6310
E300
C300
4300
0300
0300
0300
0300
0300
0300
0300
0300
0300
0300
0300
ENDCHAR
STARTCHAR 2E97
ENCODING 11927
SWIDTH 1000 0
DWIDTH 32 0
BBX 28 26 2 -1
BITMAP
00600000
00600000
00600000
00600000
00600000
00600000
00600000
10620600
1C670700
18638300
18638380
38618180
3861C1C0
3060C0C0
3060E0E0
7060E0E0
60607070
E0607070
E0606020
40600000
00600000
00600000
00600000
00600000
1FE00000
0FC00000
ENDCHAR
STARTCHAR 2E98
ENCODING 11928
SWIDTH 1000 0
DWIDTH 32 0
BBX 16 28 7 -2
BITMAP
01C0
01C0
01C0
01C0
01C0
01C0
7FFF
7FFF
01C0
01C0
01C0
01C0
01C0
01C7
01FF
1FFC
FFC0
79C0
01C0
01C0
01C0
01C0
01C0
01C0
01C0
11C0
1F80
1F80
ENDCHAR
STARTCHAR 2E99
ENCODING 11929
SWIDTH 1000 0
DWIDTH 32 0
BBX 27 27 3 -1
BITMAP
01C00000
01C00000
01800000
03800000
03800000
03FFFFC0
07FFFFC0
06003800
0E003000
1F003000
1B007000
3B806000
7180E000
E1C0E000
40E1C000
0061C000
00738000
003F0000
001F0000
001F0000
003F8000
0079E000
01E0F800
07C03F00
3F000FE0
FC0003C0
70000080
ENDCHAR
STARTCHAR 2E9B
ENCODING 11931
SWIDTH 1000 0
DWIDTH 32 0
BBX 27 25 3 -2
BITMAP
7FFFFF80
7FFFFF80
00070000
00070000
0C060000
0C060000
1C060000
1C060000
180E0000
1FFFFFE0
3FFFFFE0
380C0000
301C0000
101B0000
003B0000
003B0000
00730000
00630080
00E300C0
01C300C0
078300C0
0F0300C0
3E0381C0
F803FFC0
F001FF00
ENDCHAR
STARTCHAR 2E9E
ENCODING 11934
SWIDTH 1000 0
DWIDTH 32 0
BBX 25 27 4 -1
BITMAP
000E0000
000E0000
000E0000
000FFF80
000FFF80
000E0000
00EE0000
01CE0000
01FFFC00
03FFFC00
03001C00
06001800
0E003800
1F807000
79C07000
F0F0E000
C079C000
001FC000
000F8000
000F0000
001E0000
003C0000
00F00000
03E00000
0F800000
7E000000
38000000
ENDCHAR
STARTCHAR 2E9F
ENCODING 11935
SWIDTH 1000 0
DWIDTH 32 0
BBX 28 27 2 -2
BITMAP
07FFFF00
0FFFFF00
0E000300
0E100300
0E3C0300
0E1E0300
0C078300
0C03C300
0C018300
0C000300
FFFFFFF0
FFFFFFF0
1C000300
1C300300
1C380300
181E0300
180F0700
18038700
18018700
38000700
3FFFFFF0
3FFFFFF0
38000600
30000600
30000E00
0001FE00
0001FC00
ENDCHAR
STARTCHAR 2EA0
ENCODING 11936
SWIDTH 1000 0
DWIDTH 32 0
BBX 28 26 2 -2
BITMAP
1FFFFF80
1FFFFF80
1C000380
1C000380
1C000380
1C000380
1FFFFF80
1FFFFF80
1C030380
1C030380
1C030000
1C030000
1C03FFF0
1FFFFFF0
1FFF8000
1C01C000
1C01C000
1C00C000
1C00E000
1C007020
1C007870
1C1E3870
1DFE1E60
3FF00FE0
FF0007E0
700001C0
ENDCHAR
STARTCHAR 2EA1
ENCODING 11937
SWIDTH 1000 0
DWIDTH 32 0
BBX 10 25 11 -1
BITMAP
3000
7C00
1E00
0F00
0300
0000
0000
C000
F000
7800
1E00
0E00
0400
0000
00C0
01C0
01C0
0380
0700
0E00
0E00
1C00
3800
7000
6000
ENDCHAR
STARTCHAR 2EA3
ENCODING 11939
SWIDTH 1000 0
DWIDTH 32 0
BBX 26 10 3 6
BITMAP
00011C00
0C630E00
1C638600
18618700
38618300
3861C380
7061C1C0
7070C1C0
E070C0C0
40000000
ENDCHAR
STARTCHAR 2EA4
ENCODING 11940
SWIDTH 1000 0
DWIDTH 32 0
BBX 24 14 3 7
BITMAP
00001E
0007FF
0FFFF8
FFFE00
F80006
001007
18300E
38380E
1C181C
0C1C1C
0E1C38
060C70
070870
020060
ENDCHAR
STARTCHAR 2EA6
ENCODING 11942
SWIDTH 1000 0
DWIDTH 32 0
BBX 11 28 8 -2
BITMAP
0060
0060
0060
0060
2060
7060
7060
3860
1C60
1C60
0E60
0460
0060
0060
0060
01E0
07E0
1F60
7E60
F860
E060
0060
0060
0060
0060
0060
0060
0060
ENDCHAR
STARTCHAR 2EA8
ENCODING 11944
SWIDTH 1000 0
DWIDTH 32 0
BBX 12 28 8 -2
BITMAP
0010
3830
1C70
0C60
0EC0
07C0
0380
0780
1FC0
3CC0
F0C0
E060
00E0
01E0
03F0
0370
0630
0E30
3C30
7830
F030
C070
0070
0070
0060
10E0
1FE0
1F80
ENDCHAR
STARTCHAR 2EAA
ENCODING 11946
SWIDTH 1000 0
DWIDTH 32 0
BBX 17 25 7 -1
BITMAP
7FFF00
7FFF80
000E00
001C00
003800
00E000
00C000
30C000
30C000
30C000
30FF00
30FF00
30C000
30C000
30C000
30C000
30C000
30C000
30C380
30DF80
30FE00
3FF000
FF8000
FC0000
C00000
ENDCHAR
STARTCHAR 2EAB
ENCODING 11947
SWIDTH 1000 0
DWIDTH 32 0
BBX 24 13 4 6
BITMAP
FFFFFF
FFFFFF
C18303
C18303
C18303
C18303
C18303
C18303
C18303
FFFFFF
FFFFFF
C00003
C00003
ENDCHAR
STARTCHAR 2EAD
ENCODING 11949
SWIDTH 1000 0
DWIDTH 32 0
BBX 17 28 8 -2
BITMAP
018000
018000
018000
018000
018000
018000
7FFE00
7FFE00
000E00
001C00
003800
003000
006000
01C000
03E000
07F800
1FDC00
3DCE00
F1C780
E1C380
01C000
01C000
01C000
01C000
01C000
01C000
01C000
01C000
ENDCHAR
STARTCHAR 2EB2
ENCODING 11954
SWIDTH 1000 0
DWIDTH 32 0
BBX 24 13 4 6
BITMAP
FFFFFF
FFFFFF
C18303
C18303
C18303
C18303
C18303
C18303
C18303
FFFFFF
FFFFFF
C00003
C00003
ENDCHAR
STARTCHAR 2EB9
ENCODING 11961
SWIDTH 1000 0
DWIDTH 32 0
BBX 28 22 2 3
BITMAP
000C0000
000C0080
000C01C0
000C0380
0FFFFF00
0FFFFF00
000C0E00
000C1C00
000C3800
000CF000
FFFFFFF0
FFFFFFF0
00078000
001E0000
003C0000
00F80000
01E00000
07800000
1F000000
7C000000
F0000000
C0000000
ENDCHAR
STARTCHAR 2EBD
ENCODING 11965
SWIDTH 1000 0
DWIDTH 32 0
BBX 24 26 4 -2
BITMAP
00C000
07E000
7F87FF
F807FF
E00007
E00007
E00007
E00007
E00007
E00007
E00007
FFC7FF
FFC7FF
E00007
E00007
E00007
E00007
E00007
E00007
E00007
E00007
E00007
FFE7FF
FFE7FF
E00007
E00007
ENDCHAR
STARTCHAR 2EBE
ENCODING 11966
SWIDTH 1000 0
DWIDTH 32 0
BBX 28 11 2 10
BITMAP
00C03000
00C03000
00C03000
00C03000
00C03000
FFFFFFF0
FFFFFFF0
00C03000
00C03000
00C03000
00C03000
ENDCHAR
STARTCHAR 2EBF
ENCODING 11967
SWIDTH 1000 0
DWIDTH 32 0
BBX 28 11 2 10
BITMAP
03001C00
03001C00
03001C00
03001C00
03001C00
FFF9FFF0
FFF9FFF0
03001C00
03001C00
03001C00
03001C00
ENDCHAR
STARTCHAR 2EC0
ENCODING 11968
SWIDTH 1000 0
DWIDTH 32 0
BBX 28 11 2 10
BITMAP
00C07000
00C07000
00C07000
00C07000
00C07000
FFC07FF0
FFC07FF0
00C07000
00C07000
00C07000
00C07000
ENDCHAR
STARTCHAR 2EC1
ENCODING 11969
SWIDTH 1000 0
DWIDTH 32 0
BBX 28 30 2 -3
BITMAP
000C0000
000C0000
000C0000
000FFF00
000FFF00
000C0000
000C0000
1FFFFFF0
1FFFFFF0
180C0070
180C0060
180FFC60
1BFFFC00
1BFC0100
180C0180
180C0180
180FFF80
180FFF00
18000000
38000000
38186000
38186000
30186000
30186000
30386030
70306030
60F07030
E3E07FF0
C7C03FF0
46000000
ENDCHAR
STARTCHAR 2EC2
ENCODING 11970
SWIDTH 1000 0
DWIDTH 32 0
BBX 18 28 6 -2
BITMAP
00C000
00C000
00C000
00C000
00C000
7FFF80
7FFF80
000300
000600
000E00
001C00
003800
0071C0
00E180
01E300
07FE00
0EFC00
3CEF00
F8E380
60E1C0
00E080
00E000
00E000
00E000
00E000
00E000
00E000
00E000
ENDCHAR
STARTCHAR 2EC3
ENCODING 11971
SWIDTH 1000 0
DWIDTH 32 0
BBX 26 15 3 6
BITMAP
FFFFFFC0
FFFFFFC0
00E18000
00E18000
00E18000
3FFFFF00
3FFFFF00
30E18300
30E18300
30E18300
30E18300
3FFFFF00
3FFFFF00
30000300
30000300
ENDCHAR
STARTCHAR 2EC4
ENCODING 11972
SWIDTH 1000 0
DWIDTH 32 0
BBX 28 25 2 -1
BITMAP
FFFFFFF0
FFFFFFF0
0070C000
0070C000
0070C000
0070C000
0070C000
3FFFFFC0
3FFFFFC0
3060C0C0
3060C0C0
3060C0C0
3060C0C0
30E0C6C0
30C0C6C0
31C0FEC0
3780FCC0
370000C0
300000C0
300000C0
300000C0
3FFFFFC0
3FFFFFC0
300000C0
300000C0
ENDCHAR
ENDFONT
